<svg xmlns="http://www.w3.org/2000/svg" viewBox="1036.3 -49.3 662.9 324.8"><g fill="#FF0"><path d="M1037 46.3c-.4-1.3-.8-3.6-.8-4.5 0-3.4 2.1-5.4 5.7-5.4 2.5 0 4.7 1.3 5.5 4.4l14.9 57.7 16-57.4c.7-2.5 2.4-3.8 5.1-3.8 2.5 0 4.2 1.3 4.9 3.8l16 57.7 14.9-57.9c.8-3.1 3-4.4 5.5-4.4 3.6 0 5.7 2.1 5.7 5.4 0 .9-.5 3.2-.8 4.5l-19.5 74.6c-.7 2.8-2.6 4.1-5.4 4.1-2.8 0-4.9-1.3-5.7-4.1l-15.8-58-15.7 57.8c-.7 2.8-2.9 4.1-5.7 4.1-2.8 0-4.5-1.3-5.4-4.1L1037 46.3zM1147.8 96.1c1.9 10.3 9.8 17.8 20.7 17.8 5.7 0 11.7-1.1 17.1-4.9 1.4-.9 3-1.7 4.7-1.7 3.7 0 5.3 2.6 5.3 5.5 0 2.2-1.2 4-2.9 5.4-6.1 5.1-16.7 7-24.1 7-21.1 0-32.7-15.1-32.7-34.3 0-18.1 11.4-34 31.7-34 18.4 0 31.2 13.2 31.2 33.5 0 3.1-1.9 5.8-5.7 5.8l-45.3-.1zm-.1-10.5h38.9c-1.3-10.7-8.3-17.5-19.1-17.5-10.9 0-18 7.3-19.8 17.5zM1224.3 116.2v2.5c0 3.8-2.9 5.9-5.8 5.9s-5.8-2.1-5.8-5.9V42.1c0-4 3-5.9 5.8-5.9s5.8 1.9 5.8 5.9v23.6c4.5-5.5 11.2-8.9 19.9-8.9 20.7 0 31.7 15.8 31.7 34.2s-11.5 34.1-31.7 34.1c-8.7 0-15.3-3.3-19.9-8.9zm40.1-25.2c0-12.3-7.5-22.9-20.2-22.9-12.4 0-19.6 10.2-19.9 22.1V92c.4 11.8 7.5 21.9 19.9 21.9 12.7-.1 20.2-10.6 20.2-22.9zM1283.3 45.7c-.6-1.4-1.1-3.1-1.1-4.1 0-3.2 2.3-5.4 5.9-5.4 2.6 0 4.4 1.2 5.3 3.5l22.9 63.7 22.8-63.7c.8-2.3 2.6-3.5 5.3-3.5 3.6 0 5.9 2.2 5.9 5.4 0 .9-.5 2.6-1.1 4.1l-27.4 75.1c-.9 2.6-2.8 4.1-5.5 4.1-2.9 0-4.5-1.4-5.7-4.1l-27.3-75.1zM1387.4 87.2h-14.8v31.6c0 3.8-2.9 5.9-5.8 5.9s-5.8-2.1-5.8-5.9V42.6c0-4 3-5.9 5.8-5.9h30.3c13.9 0 25.3 9.4 25.3 24.7 0 13.9-9.2 23.6-21.1 25.4l20.1 27.4c.9 1.3 1.8 3.1 1.8 4.8 0 3.2-2.6 5.5-5.9 5.5-1.7 0-3.6-.7-5.1-2.5l-24.8-34.8zM1372.6 48v27.9h24.5c7.2 0 13.7-5.4 13.7-14.4 0-8.9-6.5-13.4-13.7-13.4h-24.5zM1067.6-48.9c2.1 0 3.3 1.7 3.3 3.2 0 1.5-1.2 3.1-3.3 3.1h-10.9v38.7c0 2.1-1.6 3.2-3.2 3.2s-3.2-1.1-3.2-3.2v-38.7h-10.9c-2.1 0-3.3-1.7-3.3-3.2 0-1.5 1.2-3.1 3.3-3.1h28.2zM1076.4-45.9c0-2.2 1.7-3.2 3.2-3.2 1.5 0 3.2 1.1 3.2 3.2v13c2-3 6-4.9 10.4-4.9 9.7 0 15.1 5.4 15.1 16v18.1c0 2.2-1.7 3.2-3.2 3.2-1.6 0-3.2-1.1-3.2-3.2v-18.1c0-6.3-4-9.8-9.6-9.8-5.1 0-9.5 4.2-9.5 10.6v17.2c0 2.1-1.6 3.2-3.2 3.2s-3.2-1.1-3.2-3.2v-42.1zM1117.3-45.3c0-2.3 1.8-4 4.1-4s4.1 1.7 4.1 4-1.8 4-4.1 4-4.1-1.8-4.1-4zm.9 11.2c0-2.3 1.7-3.3 3.2-3.3s3.2 1.1 3.2 3.3v30.2c0 2.1-1.6 3.2-3.2 3.2s-3.2-1.1-3.2-3.2v-30.2zM1154.3-21.7c7.1 1.3 11.1 4.5 11.1 10.8 0 6.5-5.4 10.5-14.1 10.5-6.6 0-14.6-3.9-14.6-7.4 0-1.6.9-3 2.7-3 1.4 0 2.5.7 3.6 1.5 2.3 1.8 4.9 3 9.2 3 4.1 0 6.8-1.7 6.8-4.6 0-3.2-2.7-4.2-6.6-4.9l-3.6-.7c-6.1-1.1-11.1-4.2-11.1-11 0-5.9 5.5-10.4 13-10.4 6 0 14.1 3.1 14.1 6.8 0 1.6-.9 3-2.7 3-2.3 0-5.8-4-11.9-4-3.4 0-6 1.7-6 4.5 0 3 2.9 4.5 6.5 5.1l3.6.8zM1192.6-45.3c0-2.3 1.8-4 4.1-4s4.1 1.7 4.1 4-1.8 4-4.1 4-4.1-1.8-4.1-4zm.9 11.2c0-2.3 1.7-3.3 3.2-3.3 1.5 0 3.2 1.1 3.2 3.3v30.2c0 2.1-1.6 3.2-3.2 3.2s-3.2-1.1-3.2-3.2v-30.2zM1224.5-21.7c7.1 1.3 11.1 4.5 11.1 10.8 0 6.5-5.4 10.5-14.1 10.5-6.6 0-14.6-3.9-14.6-7.4 0-1.6.9-3 2.7-3 1.4 0 2.5.7 3.6 1.5 2.3 1.8 4.9 3 9.2 3 4.1 0 6.8-1.7 6.8-4.6 0-3.2-2.7-4.2-6.6-4.9l-3.6-.7c-6.1-1.1-11.1-4.2-11.1-11 0-5.9 5.5-10.4 13-10.4 6 0 14.1 3.1 14.1 6.8 0 1.6-.9 3-2.7 3-2.3 0-5.8-4-11.9-4-3.4 0-6 1.7-6 4.5 0 3 2.9 4.5 6.5 5.1l3.6.8zM1297.6-3.9c0 2.1-1.6 3.2-3.2 3.2s-3.2-1.1-3.2-3.2v-1.4c-2.5 3-6.1 4.9-10.9 4.9-11.3 0-17.4-8.7-17.4-18.8s6-18.7 17.4-18.7c4.7 0 8.4 1.9 10.9 4.9v-1.1c0-2.3 1.6-3.3 3.2-3.3 1.5 0 3.2 1.1 3.2 3.3v30.2zm-17.3-27.8c-6.9 0-11.1 5.8-11.1 12.5 0 6.8 4.1 12.6 11.1 12.6 6.7 0 10.9-5.7 10.9-12.6 0-6.7-4-12.5-10.9-12.5zM1036.2 243.9v-75.2c0-4 3-5.9 5.8-5.9h50.1c3.7 0 5.9 3.1 5.9 5.9s-2.2 5.7-5.9 5.7h-44.3v24.7h31.1c3.8 0 5.9 3.1 5.9 5.9 0 2.8-2.1 5.7-5.9 5.7h-31.1v27.6h44.3c3.7 0 5.9 3.1 5.9 5.9s-2.2 5.7-5.9 5.7H1042c-2.9-.1-5.8-2.1-5.8-6zM1131.2 216.7l-18.8-22.4c-.9-1.2-1.8-3.2-1.8-4.4 0-3.4 2.8-5.9 6-5.9 1.7 0 3.2.6 4.7 2.3l17.9 21.3 17.9-21.3c1.4-1.7 3-2.3 4.7-2.3 3.2 0 6 2.5 6 5.9 0 1.2-.8 3.2-1.8 4.4l-19 22.4 20.2 23.8c1.1 1.2 1.8 3.2 1.8 4.5 0 3.2-2.6 5.8-5.9 5.8-1.8 0-3.4-.5-4.8-2.2l-19.1-22.6-19.1 22.6c-1.4 1.7-3 2.2-4.8 2.2-3.2 0-5.9-2.5-5.9-5.8 0-1.3.7-3.4 1.8-4.5l20-23.8zM1191.9 242.3v27.3c0 4-2.9 5.9-5.8 5.9s-5.8-1.9-5.8-5.9v-79.7c0-4.1 3-6 5.8-6s5.8 1.9 5.8 6v1.9c4.5-5.5 11.2-8.9 19.9-8.9 20.7 0 31.7 15.8 31.7 34.2s-11.5 34.1-31.7 34.1c-8.7 0-15.3-3.3-19.9-8.9zm40.1-25.2c0-12.3-7.5-22.9-20.2-22.9-12.4 0-19.6 10.2-19.9 22.1v1.8c.4 11.8 7.5 21.9 19.9 21.9 12.7 0 20.2-10.6 20.2-22.9zM1267.2 222.2c1.9 10.3 9.8 17.8 20.7 17.8 5.7 0 11.7-1.1 17.1-4.9 1.4-.9 3-1.7 4.7-1.7 3.7 0 5.3 2.6 5.3 5.5 0 2.2-1.2 4-2.9 5.4-6.1 5.1-16.7 7-24.1 7-21.1 0-32.7-15.1-32.7-34.3 0-18.1 11.4-34 31.7-34 18.4 0 31.2 13.2 31.2 33.5 0 3.1-1.9 5.8-5.7 5.8l-45.3-.1zm-.1-10.5h38.9c-1.3-10.7-8.3-17.5-19.1-17.5-10.9 0-18 7.3-19.8 17.5zM1333.8 189.9c0-4.1 3-6 5.8-6s5.8 1.9 5.8 6v2.1c3.1-5.5 8.7-9 15.1-9 4.8 0 8.7 1.4 8.7 6.1 0 3.8-2.2 6.1-5.1 6.1-1.4 0-3.1-.7-4.8-.7-6.6 0-13.9 7.2-13.9 21.1v29.3c0 3.8-2.9 5.9-5.8 5.9s-5.8-2.1-5.8-5.9v-55zM1382.8 169.3c0-4.2 3.2-7.2 7.4-7.2s7.4 3 7.4 7.2-3.2 7.3-7.4 7.3-7.4-3.1-7.4-7.3zm1.7 20.6c0-4.1 3-6 5.8-6s5.8 1.9 5.8 6v55c0 3.8-2.9 5.9-5.8 5.9s-5.8-2.1-5.8-5.9v-55zM1487.2 211.5c0-10.4-3.7-17.1-12.6-17.1-8.7 0-12.8 6.2-12.8 18.4v32c0 4-3 5.9-5.8 5.9s-5.8-1.9-5.8-5.9v-33.4c0-10.4-3.7-17.1-12.6-17.1-8.4 0-12.8 6-12.8 17.5v32.9c0 3.8-2.9 5.9-5.8 5.9s-5.8-2.1-5.8-5.9v-55c0-4.1 3-6 5.8-6s5.8 1.9 5.8 6v.2c3-4.3 8.1-7.2 15.1-7.2 8.3 0 14.3 3 17.9 9.5 3.5-5.5 9.6-9.5 18.5-9.5 14.4 0 22.4 8.8 22.4 28.6v33.4c0 4-3 5.9-5.8 5.9s-5.8-1.9-5.8-5.9v-33.2h.1zM1522.5 222.2c1.9 10.3 9.8 17.8 20.7 17.8 5.7 0 11.7-1.1 17.1-4.9 1.4-.9 3-1.7 4.7-1.7 3.7 0 5.3 2.6 5.3 5.5 0 2.2-1.2 4-2.9 5.4-6.1 5.1-16.7 7-24.1 7-21.1 0-32.7-15.1-32.7-34.3 0-18.1 11.4-34 31.7-34 18.4 0 31.2 13.2 31.2 33.5 0 3.1-1.9 5.8-5.7 5.8l-45.3-.1zm-.1-10.5h38.9c-1.3-10.7-8.3-17.5-19.1-17.5-10.9 0-18 7.3-19.8 17.5zM1587.1 189.9c0-4.1 3-6 5.8-6s5.8 1.9 5.8 6v2.1c3.6-5.5 10.9-9 19-9 17.7 0 27.5 9.8 27.5 29v32.9c0 4-3 5.9-5.8 5.9-2.9 0-5.9-1.9-5.9-5.9V212c0-11.5-7.3-17.8-17.5-17.8-9.2 0-17.3 7.7-17.3 19.3v31.3c0 3.8-2.9 5.9-5.8 5.9s-5.8-2.1-5.8-5.9v-54.9zM1668 184.7v-15.5c0-3.8 2.8-5.9 5.8-5.9 2.9 0 5.8 2.1 5.8 5.9v15.5h12.5c3.8 0 5.9 2.8 5.9 5.7 0 2.8-2.1 5.9-5.9 5.9h-12.5v35.1c0 4.9 2.1 8.5 7.1 8.5 1.7 0 3.1-.6 4.5-.9.9-.4 1.8-.5 2.6-.5 3.6 0 5.4 2.2 5.4 5.5 0 2.3-1.2 3.8-2.8 4.9-2.6 1.7-6.8 2.2-10.7 2.2-12.7 0-17.8-7.2-17.8-19.6v-35.2h-5.4c-3.7 0-5.9-3.1-5.9-5.9 0-2.9 2.2-5.7 5.9-5.7h5.5z"/></g></svg>