# WaveFront *.obj file (generated by CINEMA 4D)

v -3.00000000000000 -2.00000000000000 -3.00000000000000
v -3.00000000000000 -2.00000000000000 3.00000000000000
v 3.00000000000000 -2.00000000000000 -3.00000000000000
v 3.00000000000000 -2.00000000000000 3.00000000000000
v -3.00000000000000 -2.06000000000000 -3.00000000000000
v -3.00000000000000 -2.06000000000000 3.00000000000000
v 3.00000000000000 -2.06000000000000 -3.00000000000000
v 3.00000000000000 -2.06000000000000 3.00000000000000
# 8 vertices

vn 0.00000000000000 -1.00000000000000 0.00000000000000
vn 0.00000000000000 1.00000000000000 0.00000000000000
vn 1.00000000000000 0.00000000000000 0.00000000000000
vn 0.00000000000000 0.00000000000000 1.00000000000000
vn -1.00000000000000 0.00000000000000 0.00000000000000
vn 0.00000000000000 0.00000000000000 -1.00000000000000
# 6 normals

vt 0.68375009298325 0.29773223400116 0.00000000000000
vt 0.68375009298325 0.70226776599884 0.00000000000000
vt 0.34076622128487 0.58611702919006 0.00000000000000
vt 0.34076622128487 0.99065268039703 0.00000000000000
vt 0.00000000000000 -1.00000000000000 0.00000000000000
vt 1.00000000000000 -1.00000000000000 0.00000000000000
vt 1.00000000000000 -0.00000000000000 0.00000000000000
vt 0.00000000000000 -0.00000000000000 0.00000000000000
# 8 texture coordinates

o Floor
usemtl default
f 8/1/1 6/2/1 5/3/1 7/4/1
f 3/5/2 1/6/2 2/7/2 4/8/2
f 4/1/3 8/1/3 7/4/3 3/4/3
f 2/2/4 6/2/4 8/1/4 4/1/4
f 1/3/5 5/3/5 6/2/5 2/2/5
f 3/4/6 7/4/6 5/3/6 1/3/6
