# WaveFront *.obj file (generated by CINEMA 4D)

v -3.00000000000000 -2.99999999687252 -3.00000000000000
v -3.00000000000000 3.00000000000000 -3.00000000000000
v 3.00000000000000 -2.99999999687252 -3.00000000000000
v 3.00000000000000 3.00000000000000 -3.00000000000000
v -3.00000000000000 -2.99999999687252 2.94000005722046
v 3.00000000000000 -2.99999999687252 2.94000005722046
v -3.00000000000000 3.00000000000000 2.94000005722046
v -3.00000000000000 -2.99999999687252 3.00000000000000
v 3.00000000000000 3.00000000000000 3.00000000000000
v 3.00000000000000 3.00000000000000 2.94000005722046
v -3.00000000000000 3.00000000000000 3.00000000000000
v 3.00000000000000 -2.99999999687252 3.00000000000000
v 0.43984884365746 -2.99999999687252 0.40545038802585
v 0.40969811878711 3.00000000000000 -0.43560111289620
v -0.40969811878711 -2.99999999687252 -0.43560111289620
v -0.43984884365746 3.00000000000000 0.40545038802585
v 0.38567256581192 -2.99999999687252 0.45962666587139
v 0.20521208599540 -2.99999999687252 0.56381557247155
v 0.30000000000000 -2.99999999687252 0.51961524227066
v 0.00000000000000 -2.99999999687252 0.60000000000000
v -0.30000000000000 -2.99999999687252 0.51961524227066
v -0.10418890660016 -2.99999999687252 0.59088465180732
v -0.38567256581192 -2.99999999687252 0.45962666587139
v -0.20521208599540 -2.99999999687252 0.56381557247155
v -0.45962666587139 -2.99999999687252 0.38567256581192
v 0.10418890660016 -2.99999999687252 0.59088465180732
v -0.51961524227066 -2.99999999687252 0.30000000000000
v -0.56381557247155 -2.99999999687252 0.20521208599540
v -0.59088465180732 -2.99999999687252 0.10418890660016
v -0.60000000000000 -2.99999999687252 0.00000000000000
v -0.59088465180732 -2.99999999687252 -0.10418890660016
v -0.56381557247155 -2.99999999687252 -0.20521208599540
v -0.51961524227066 -2.99999999687252 -0.30000000000000
v -0.45962666587139 -2.99999999687252 -0.38567256581192
v 0.60000000000000 3.00000000000000 0.00000000000000
v 0.59088465180732 3.00000000000000 0.10418890660016
v 0.56381557247155 3.00000000000000 0.20521208599540
v 0.51961524227066 3.00000000000000 0.30000000000000
v 0.45962666587139 3.00000000000000 0.38567256581192
v 0.38567256581192 3.00000000000000 0.45962666587139
v 0.30000000000000 3.00000000000000 0.51961524227066
v 0.20521208599540 3.00000000000000 0.56381557247155
v 0.10418890660016 3.00000000000000 0.59088465180732
v 0.00000000000000 3.00000000000000 0.60000000000000
v -0.10418890660016 3.00000000000000 0.59088465180732
v -0.20521208599540 3.00000000000000 0.56381557247155
v -0.30000000000000 3.00000000000000 0.51961524227066
v -0.38567256581192 3.00000000000000 0.45962666587139
v 0.45962666587139 3.00000000000000 -0.38567256581192
v 0.51961524227066 3.00000000000000 -0.30000000000000
v 0.56381557247155 3.00000000000000 -0.20521208599540
v 0.59088465180732 3.00000000000000 -0.10418890660016
v 0.60000000000000 -2.99999999687252 0.00000000000000
v 0.59088465180732 -2.99999999687252 0.10418890660016
v 0.56381557247155 -2.99999999687252 0.20521208599540
v 0.51961524227066 -2.99999999687252 0.30000000000000
v 0.45962666587139 -2.99999999687252 0.38567256581192
v -0.38567256581192 -2.99999999687252 -0.45962666587139
v -0.30000000000000 -2.99999999687252 -0.51961524227066
v -0.20521208599540 -2.99999999687252 -0.56381557247155
v -0.10418890660016 -2.99999999687252 -0.59088465180732
v -0.00000000000000 -2.99999999687252 -0.60000000000000
v 0.10418890660016 -2.99999999687252 -0.59088465180732
v 0.20521208599540 -2.99999999687252 -0.56381557247155
v 0.30000000000000 -2.99999999687252 -0.51961524227066
v 0.38567256581192 -2.99999999687252 -0.45962666587139
v 0.45962666587139 -2.99999999687252 -0.38567256581192
v 0.51961524227066 -2.99999999687252 -0.30000000000000
v 0.56381557247155 -2.99999999687252 -0.20521208599540
v 0.59088465180732 -2.99999999687252 -0.10418890660016
v -0.45962666587139 3.00000000000000 0.38567256581192
v -0.51961524227066 3.00000000000000 0.30000000000000
v -0.56381557247155 3.00000000000000 0.20521208599540
v -0.59088465180732 3.00000000000000 0.10418890660016
v -0.60000000000000 3.00000000000000 0.00000000000000
v -0.59088465180732 3.00000000000000 -0.10418890660016
v -0.56381557247155 3.00000000000000 -0.20521208599540
v -0.51961524227066 3.00000000000000 -0.30000000000000
v -0.45962666587139 3.00000000000000 -0.38567256581192
v -0.38567256581192 3.00000000000000 -0.45962666587139
v -0.30000000000000 3.00000000000000 -0.51961524227066
v -0.20521208599540 3.00000000000000 -0.56381557247155
v -0.10418890660016 3.00000000000000 -0.59088465180732
v -0.00000000000000 3.00000000000000 -0.60000000000000
v 0.10418890660016 3.00000000000000 -0.59088465180732
v 0.20521208599540 3.00000000000000 -0.56381557247155
v 0.30000000000000 3.00000000000000 -0.51961524227066
v 0.38567256581192 3.00000000000000 -0.45962666587139
v -3.00000000000000 -2.93999999687252 -3.00000000000000
v 3.00000000000000 -2.93999999687252 -3.00000000000000
v -3.00000000000000 -2.93999999687252 2.94000005722046
v 3.00000000000000 -2.93999999687252 2.94000005722046
v 0.43984884365746 -2.93999999687252 0.40545038802585
v -0.40969811878711 -2.93999999687252 -0.43560111289620
v 0.38567256581192 -2.93999999687252 0.45962666587139
v 0.20521208599540 -2.93999999687252 0.56381557247155
v 0.30000000000000 -2.93999999687252 0.51961524227066
v 0.00000000000000 -2.93999999687252 0.60000000000000
v -0.30000000000000 -2.93999999687252 0.51961524227066
v -0.10418890660016 -2.93999999687252 0.59088465180732
v -0.38567256581192 -2.93999999687252 0.45962666587139
v -0.20521208599540 -2.93999999687252 0.56381557247155
v -0.45962666587139 -2.93999999687252 0.38567256581192
v 0.10418890660016 -2.93999999687252 0.59088465180732
v -0.51961524227066 -2.93999999687252 0.30000000000000
v -0.56381557247155 -2.93999999687252 0.20521208599540
v -0.59088465180732 -2.93999999687252 0.10418890660016
v -0.60000000000000 -2.93999999687252 0.00000000000000
v -0.59088465180732 -2.93999999687252 -0.10418890660016
v -0.56381557247155 -2.93999999687252 -0.20521208599540
v -0.51961524227066 -2.93999999687252 -0.30000000000000
v -0.45962666587139 -2.93999999687252 -0.38567256581192
v 0.60000000000000 -2.93999999687252 0.00000000000000
v 0.59088465180732 -2.93999999687252 0.10418890660016
v 0.56381557247155 -2.93999999687252 0.20521208599540
v 0.51961524227066 -2.93999999687252 0.30000000000000
v 0.45962666587139 -2.93999999687252 0.38567256581192
v -0.38567256581192 -2.93999999687252 -0.45962666587139
v -0.30000000000000 -2.93999999687252 -0.51961524227066
v -0.20521208599540 -2.93999999687252 -0.56381557247155
v -0.10418890660016 -2.93999999687252 -0.59088465180732
v -0.00000000000000 -2.93999999687252 -0.60000000000000
v 0.10418890660016 -2.93999999687252 -0.59088465180732
v 0.20521208599540 -2.93999999687252 -0.56381557247155
v 0.30000000000000 -2.93999999687252 -0.51961524227066
v 0.38567256581192 -2.93999999687252 -0.45962666587139
v 0.45962666587139 -2.93999999687252 -0.38567256581192
v 0.51961524227066 -2.93999999687252 -0.30000000000000
v 0.56381557247155 -2.93999999687252 -0.20521208599540
v 0.59088465180732 -2.93999999687252 -0.10418890660016
# 130 vertices

vn 1.00000000000000 0.00000000000000 0.00000000000000
vn 0.00000000000000 0.00000000000000 0.00000000000000
vn 0.00000000000000 1.00000000000000 0.00000000000000
vn -1.00000000000000 0.00000000000000 0.00000000000000
vn -1.00000000000000 0.00000000000000 -0.00000000000000
vn -1.00000000000000 -0.00000000000000 0.00000000000000
vn 0.00000000000000 -1.00000000000000 0.00000000000000
vn 1.00000000000000 -0.00000000000000 0.00000000000000
vn 0.00000000000000 -1.00000000000000 -0.00000000000000
vn 0.00000000000000 1.00000000000000 -0.00000000000000
vn -0.00000000000000 1.00000000000000 0.00000000000000
vn -0.00000000000000 -1.00000000000000 0.00000000000000
vn 0.00000000000000 0.00000000000000 1.00000000000000
vn -0.47454243587176 0.00000000000000 0.88023262638742
vn -0.52503264196782 0.00000000000000 0.85108209055783
vn -0.36926730288229 0.00000000000000 0.92932322634380
vn -0.62018393888427 0.00000000000000 0.78445642450680
vn -0.66484506693319 0.00000000000000 0.74698128288104
vn -0.00000000000000 0.00000000000000 1.00000000000000
vn -0.85108209055783 0.00000000000000 0.52503264196782
vn -0.88023262638742 0.00000000000000 0.47454243587176
vn -0.78445642450680 0.00000000000000 0.62018393888427
vn -0.74698128288104 0.00000000000000 0.66484506693319
vn -0.66484488201160 0.00000000000000 -0.74698144746907
vn -0.62018387320716 0.00000000000000 -0.78445647643051
vn -0.70710681098887 0.00000000000000 -0.70710675138423
vn 0.70710678118655 0.00000000000000 0.70710678118655
vn 0.74698127962616 0.00000000000000 0.66484507059019
vn 0.78445642450680 0.00000000000000 0.62018393888427
vn 0.85108209055783 0.00000000000000 0.52503264196782
vn -0.52503264196782 0.00000000000000 -0.85108209055783
vn -0.47454243587176 0.00000000000000 -0.88023262638742
vn 0.88023262638742 0.00000000000000 0.47454243587176
vn 0.92932322634380 0.00000000000000 0.36926730288229
vn -0.36926730288229 0.00000000000000 -0.92932322634380
vn -0.31448234679230 0.00000000000000 -0.94926332150569
vn 0.94926332150569 0.00000000000000 0.31448234679230
vn 0.97932730241891 0.00000000000000 0.20228206726477
vn -0.20228208155620 0.00000000000000 -0.97932729946698
vn -0.14486669180459 0.00000000000000 -0.98945118202244
vn 0.98945118202244 0.00000000000000 0.14486669180459
vn 0.99957503540831 0.00000000000000 0.02915044748322
vn 0.00000000000000 -0.00000000000000 1.00000000000000
vn -0.02915044748322 0.00000000000000 -0.99957503540831
vn 0.02915044748322 0.00000000000000 -0.99957503540831
vn 0.99957503540831 0.00000000000000 -0.02915044748322
vn 0.98945118202244 0.00000000000000 -0.14486669180459
vn 0.14486670639303 0.00000000000000 -0.98945117988652
vn 0.20228206726477 0.00000000000000 -0.97932730241891
vn 0.97932730241891 0.00000000000000 -0.20228206726477
vn 0.94926332150569 0.00000000000000 -0.31448234679230
vn 0.31448234679230 0.00000000000000 -0.94926332150569
vn 0.36926730288229 0.00000000000000 -0.92932322634380
vn 0.92932322634380 0.00000000000000 -0.36926730288229
vn 0.88023262638742 0.00000000000000 -0.47454243587176
vn 0.47454243587176 0.00000000000000 -0.88023262638742
vn 0.52503264196782 0.00000000000000 -0.85108209055783
vn 0.85108209055783 0.00000000000000 -0.52503264196782
vn 0.78445642450680 0.00000000000000 -0.62018393888427
vn 0.62018393888427 0.00000000000000 -0.78445642450680
vn 0.66484506693319 0.00000000000000 -0.74698128288104
vn 0.74698128288104 0.00000000000000 -0.66484506693319
vn -0.70710713881430 0.00000000000000 -0.70710642355861
vn -0.74698173046205 0.00000000000000 -0.66484456405683
vn 0.66484507059019 0.00000000000000 0.74698127962616
vn 0.62018393888427 0.00000000000000 0.78445642450680
vn -0.78445663827409 0.00000000000000 -0.62018366849484
vn -0.85108209055783 0.00000000000000 -0.52503264196782
vn 0.52503264196782 0.00000000000000 0.85108209055783
vn 0.47454243587176 0.00000000000000 0.88023262638742
vn -0.88023262638742 0.00000000000000 -0.47454243587176
vn -0.92932322634380 0.00000000000000 -0.36926730288229
vn 0.36926730288229 0.00000000000000 0.92932322634380
vn 0.31448234679230 0.00000000000000 0.94926332150569
vn -0.94926332150569 0.00000000000000 -0.31448234679230
vn -0.97932730241891 0.00000000000000 -0.20228206726477
vn 0.20228208155620 0.00000000000000 0.97932729946698
vn 0.14486669180459 0.00000000000000 0.98945118202244
vn -0.98945118202244 0.00000000000000 -0.14486669180459
vn -0.99957503540831 0.00000000000000 -0.02915044748322
vn 0.00000000000000 0.00000000000000 -1.00000000000000
vn 0.02915044748322 0.00000000000000 0.99957503540831
vn -0.02915044748322 0.00000000000000 0.99957503540831
vn -0.14486670639303 0.00000000000000 0.98945117988652
vn -0.20228206726477 0.00000000000000 0.97932730241891
vn -0.99957503540831 0.00000000000000 0.02915044748322
vn -0.98945118202244 0.00000000000000 0.14486669180459
vn -0.97932730241891 0.00000000000000 0.20228206726477
vn -0.94926332150569 0.00000000000000 0.31448234679230
vn -0.31448234679230 0.00000000000000 0.94926332150569
vn -0.92932322634380 0.00000000000000 0.36926730288229
vn 0.00000000000000 -0.00000000000000 -1.00000000000000
# 92 normals

vt 0.66086226701736 0.27769267559052 0.00000000000000
vt 0.34557139873505 0.27769267559052 0.00000000000000
vt 0.34557139873505 0.01069247722626 0.00000000000000
vt 0.00000000000000 0.00000000000000 0.00000000000000
vt 0.65923380851746 0.99065268039703 0.00000000000000
vt 0.52334630489349 0.81804060935974 0.00000000000000
vt 0.52625089883804 0.81438791751862 0.00000000000000
vt 0.48093095421791 0.75739562511444 0.00000000000000
vt 0.47825407981873 0.76076185703278 0.00000000000000
vt 0.34076622128487 0.58611702919006 0.00000000000000
vt 0.48552420735359 0.75335097312927 0.00000000000000
vt 0.52946710586548 0.80861163139343 0.00000000000000
vt 0.49060618877411 0.75037086009979 0.00000000000000
vt 0.53183686733246 0.80222070217133 0.00000000000000
vt 0.49602243304253 0.74854588508606 0.00000000000000
vt 0.53328818082809 0.79540956020355 0.00000000000000
vt 0.50160843133926 0.74793124198914 0.00000000000000
vt 0.53377687931061 0.78838479518890 0.00000000000000
vt 0.65923380851746 0.58611702919006 0.00000000000000
vt 0.50719439983368 0.74854588508606 0.00000000000000
vt 0.53328818082809 0.78136014938354 0.00000000000000
vt 0.51261067390442 0.75037086009979 0.00000000000000
vt 0.53183686733246 0.77454888820648 0.00000000000000
vt 0.51769268512726 0.75335097312927 0.00000000000000
vt 0.52946710586548 0.76815807819366 0.00000000000000
vt 0.52228593826294 0.75739562511444 0.00000000000000
vt 0.52625089883804 0.76238179206848 0.00000000000000
vt 0.99097877740860 0.98930764198303 0.00000000000000
vt 0.67568790912628 0.98930764198303 0.00000000000000
vt 0.67568790912628 0.72230744361877 0.00000000000000
vt 0.68375009298325 0.29773223400116 0.00000000000000
vt 0.68053323030472 0.70226776599884 0.00000000000000
vt 0.68375009298325 0.70226776599884 0.00000000000000
vt 0.71669840812683 0.70226776599884 0.00000000000000
vt 0.71991527080536 0.43257737159729 0.00000000000000
vt 0.71669840812683 0.43257737159729 0.00000000000000
vt 0.70183265209198 0.29773223400116 0.00000000000000
vt 0.69861584901810 0.70226776599884 0.00000000000000
vt 0.70183265209198 0.70226776599884 0.00000000000000
vt 0.71991527080536 0.14419245719910 0.00000000000000
vt 0.71669840812683 0.41388297080994 0.00000000000000
vt 0.71991527080536 0.41388297080994 0.00000000000000
vt 0.32510429620743 0.98964142799377 0.00000000000000
vt 0.18989621102810 0.81789231300354 0.00000000000000
vt 0.19278629124165 0.81425797939301 0.00000000000000
vt 0.14769296348095 0.75755059719086 0.00000000000000
vt 0.14502947032452 0.76090002059937 0.00000000000000
vt 0.00822904612869 0.58712840080261 0.00000000000000
vt 0.15226325392723 0.75352621078491 0.00000000000000
vt 0.19598644971848 0.80851054191589 0.00000000000000
vt 0.15731979906559 0.75056099891663 0.00000000000000
vt 0.19834434986115 0.80215167999268 0.00000000000000
vt 0.16270898282528 0.74874508380890 0.00000000000000
vt 0.19978837668896 0.79537439346313 0.00000000000000
vt 0.16826705634594 0.74813354015350 0.00000000000000
vt 0.32510429620743 0.58712840080261 0.00000000000000
vt 0.20027464628220 0.78838491439819 0.00000000000000
vt 0.17382511496544 0.74874508380890 0.00000000000000
vt 0.19978837668896 0.78139531612396 0.00000000000000
vt 0.17921429872513 0.75056099891663 0.00000000000000
vt 0.19834434986115 0.77461814880371 0.00000000000000
vt 0.18427084386349 0.75352621078491 0.00000000000000
vt 0.19598644971848 0.76825928688049 0.00000000000000
vt 0.18884113430977 0.75755059719086 0.00000000000000
vt 0.19278629124165 0.76251184940338 0.00000000000000
vt 0.66086226701736 0.01069247722626 0.00000000000000
vt 0.52228593826294 0.81937408447266 0.00000000000000
vt 0.47696596384048 0.76238179206848 0.00000000000000
vt 0.51769268512726 0.82341861724854 0.00000000000000
vt 0.47374975681305 0.76815807819366 0.00000000000000
vt 0.51261067390442 0.82639873027802 0.00000000000000
vt 0.47137999534607 0.77454888820648 0.00000000000000
vt 0.50719439983368 0.82822382450104 0.00000000000000
vt 0.46992871165276 0.78136014938354 0.00000000000000
vt 0.50160843133926 0.82883834838867 0.00000000000000
vt 0.34076622128487 0.99065268039703 0.00000000000000
vt 0.46943998336792 0.78838479518890 0.00000000000000
vt 0.46992871165276 0.79540956020355 0.00000000000000
vt 0.49602243304253 0.82822382450104 0.00000000000000
vt 0.49060618877411 0.82639873027802 0.00000000000000
vt 0.47137999534607 0.80222070217133 0.00000000000000
vt 0.48552420735359 0.82341861724854 0.00000000000000
vt 0.47374975681305 0.80861163139343 0.00000000000000
vt 0.48093095421791 0.81937408447266 0.00000000000000
vt 0.47696596384048 0.81438791751862 0.00000000000000
vt 0.99097877740860 0.72230744361877 0.00000000000000
vt 0.18884113430977 0.81921911239624 0.00000000000000
vt 0.14374780654907 0.76251184940338 0.00000000000000
vt 0.18427084386349 0.82324349880219 0.00000000000000
vt 0.14054764807224 0.76825928688049 0.00000000000000
vt 0.17921429872513 0.82620871067047 0.00000000000000
vt 0.13818974792957 0.77461814880371 0.00000000000000
vt 0.17382511496544 0.82802462577820 0.00000000000000
vt 0.13674572110176 0.78139531612396 0.00000000000000
vt 0.16826705634594 0.82863616943359 0.00000000000000
vt 0.00822904612869 0.98964142799377 0.00000000000000
vt 0.13625945150852 0.78838491439819 0.00000000000000
vt 0.13674572110176 0.79537439346313 0.00000000000000
vt 0.16270898282528 0.82802462577820 0.00000000000000
vt 0.13818974792957 0.80215167999268 0.00000000000000
vt 0.15731979906559 0.82620871067047 0.00000000000000
vt 0.15226325392723 0.82324349880219 0.00000000000000
vt 0.14054764807224 0.80851054191589 0.00000000000000
vt 0.14374780654907 0.81425797939301 0.00000000000000
vt 0.14769296348095 0.81921911239624 0.00000000000000
vt 0.68053323030472 0.29773223400116 0.00000000000000
vt 0.71991527080536 0.70226776599884 0.00000000000000
vt 0.69861584901810 0.29773223400116 0.00000000000000
vt 0.71669840812683 0.14419245719910 0.00000000000000
vt 0.00000000000000 -0.00000000000000 0.00000000000000
vt 1.00000000000000 -0.00000000000000 0.00000000000000
vt 1.00000000000000 -1.00000000000000 0.00000000000000
vt 0.00000000000000 -1.00000000000000 0.00000000000000
# 113 texture coordinates

o Vertical:Room
usemtl default
f 2/1/1 7/2/1 5/3/1
f 92/5/3 93/6/3 95/7/3
f 112/8/3 94/9/3 89/10/3
f 111/11/3 112/8/3 89/10/3
f 92/5/3 95/7/3 97/12/3
f 110/13/3 111/11/3 89/10/3
f 92/5/3 97/12/3 96/14/3
f 109/15/3 110/13/3 89/10/3
f 92/5/3 96/14/3 104/16/3
f 108/17/3 109/15/3 89/10/3
f 92/5/3 104/16/3 98/18/3
f 107/20/3 108/17/3 89/10/3
f 91/19/3 98/18/3 100/21/3
f 106/22/3 107/20/3 91/19/3
f 91/19/3 100/21/3 102/23/3
f 105/24/3 106/22/3 91/19/3
f 91/19/3 102/23/3 99/25/3
f 103/26/3 105/24/3 91/19/3
f 91/19/3 99/25/3 101/27/3
f 91/19/3 101/27/3 103/26/3
f 10/28/4 4/29/5 3/30/4
f 12/31/3 5/32/3 8/33/3
f 9/34/4 6/35/4 12/36/6
f 11/37/7 10/38/7 9/39/7
f 8/40/1 7/41/1 11/42/8
f 7/43/7 16/44/7 48/45/7
f 49/46/9 14/47/7 4/48/7
f 50/49/9 49/46/9 4/48/7
f 7/43/7 48/45/7 47/50/7
f 51/51/9 50/49/9 4/48/7
f 7/43/7 47/50/7 46/52/7
f 52/53/9 51/51/9 4/48/7
f 7/43/7 46/52/7 45/54/7
f 35/55/7 52/53/9 4/48/7
f 7/43/7 45/54/7 44/57/7
f 36/58/7 35/55/7 4/48/7
f 10/56/7 44/57/7 43/59/7
f 37/60/7 36/58/7 10/56/7
f 10/56/7 43/59/7 42/61/7
f 38/62/7 37/60/7 10/56/7
f 10/56/7 42/61/7 41/63/7
f 39/64/7 38/62/7 10/56/7
f 10/56/7 41/63/7 40/65/7
f 10/56/7 40/65/7 39/64/7
f 1/66/1 2/1/1 5/3/1
f 117/67/10 93/6/3 92/5/3
f 89/10/3 94/9/3 118/68/3
f 116/69/10 117/67/10 92/5/3
f 89/10/3 118/68/3 119/70/3
f 115/71/10 116/69/10 92/5/3
f 89/10/3 119/70/3 120/72/3
f 114/73/10 115/71/10 92/5/3
f 89/10/3 120/72/3 121/74/3
f 113/75/3 114/73/10 92/5/3
f 89/10/3 121/74/3 122/77/3
f 90/76/3 122/77/3 123/78/3
f 130/79/11 113/75/3 90/76/3
f 129/80/11 130/79/11 90/76/3
f 90/76/3 123/78/3 124/81/3
f 128/82/11 129/80/11 90/76/3
f 90/76/3 124/81/3 125/83/3
f 127/84/11 128/82/11 90/76/3
f 90/76/3 125/83/3 126/85/3
f 126/85/3 127/84/11 90/76/3
f 6/86/4 10/28/4 3/30/4
f 71/87/7 16/44/7 7/43/7
f 4/48/7 14/47/7 88/88/7
f 72/89/7 71/87/7 7/43/7
f 4/48/7 88/88/7 87/90/7
f 73/91/7 72/89/7 7/43/7
f 4/48/7 87/90/7 86/92/7
f 74/93/7 73/91/7 7/43/7
f 4/48/7 86/92/7 85/94/7
f 75/95/7 74/93/7 7/43/7
f 4/48/7 85/94/7 84/97/7
f 2/96/7 4/48/7 84/97/7
f 76/99/12 75/95/7 2/96/7
f 2/96/7 83/98/7 82/100/7
f 77/101/12 76/99/12 2/96/7
f 78/102/12 77/101/12 2/96/7
f 2/96/7 82/100/7 81/103/7
f 2/96/7 81/103/7 80/104/7
f 79/105/12 78/102/12 2/96/7
f 80/104/7 79/105/12 2/96/7
f 12/31/3 6/106/3 5/32/3
f 9/34/4 10/107/4 6/35/4
f 11/37/7 7/108/7 10/38/7
f 8/40/1 5/109/1 7/41/1
f 2/110/13 1/111/13 3/112/13
f 65/83/14 125/83/15 124/81/16
f 66/85/17 126/85/18 125/83/15
f 2/110/13 3/112/13 4/113/19
f 68/82/20 128/82/21 127/84/22
f 67/84/23 127/84/22 126/85/18
f 6/112/3 13/111/3 17/110/3
f 34/112/3 15/111/3 1/110/3
f 33/112/3 34/111/3 1/110/3
f 6/112/3 17/111/3 19/110/3
f 32/112/3 33/111/3 1/110/3
f 6/112/3 19/111/3 18/110/3
f 31/112/3 32/111/3 1/110/3
f 6/112/3 18/111/3 26/110/3
f 30/112/3 31/111/3 1/110/3
f 26/112/3 20/111/3 5/110/3
f 30/112/3 1/111/3 5/110/3
f 5/112/3 20/111/3 22/110/3
f 28/112/3 29/111/3 5/110/3
f 5/112/3 22/111/3 24/110/3
f 27/112/3 28/111/3 5/110/3
f 5/112/3 24/111/3 21/110/3
f 25/112/3 27/111/3 5/110/3
f 5/112/3 21/111/3 23/110/3
f 5/112/3 23/111/3 25/110/3
f 57/112/10 13/111/3 6/110/3
f 1/112/3 15/111/3 58/110/3
f 56/112/10 57/111/10 6/110/3
f 1/112/3 58/111/3 59/110/3
f 55/112/10 56/111/10 6/110/3
f 1/112/3 59/111/3 60/110/3
f 54/112/3 55/111/10 6/110/3
f 1/112/3 60/111/3 61/110/3
f 54/112/3 6/111/3 3/110/3
f 61/112/3 62/111/3 3/110/3
f 3/112/3 62/111/3 63/110/3
f 70/112/11 53/111/11 3/110/3
f 69/112/11 70/111/11 3/110/3
f 3/112/3 63/111/3 64/110/3
f 68/112/11 69/111/11 3/110/3
f 3/112/3 64/111/3 65/110/3
f 67/112/11 68/111/11 3/110/3
f 3/112/3 65/111/3 66/110/3
f 66/112/3 67/111/11 3/110/3
f 17/7/24 95/7/25 93/6/26
f 15/9/27 94/9/27 112/8/28
f 34/8/29 112/8/28 111/11/30
f 19/12/31 97/12/32 95/7/25
f 33/11/33 111/11/30 110/13/34
f 18/14/35 96/14/36 97/12/32
f 32/13/37 110/13/34 109/15/38
f 26/16/39 104/16/40 96/14/36
f 31/15/41 109/15/38 108/17/42
f 6/5/13 92/5/43 91/19/13
f 20/18/44 98/18/45 104/16/40
f 5/19/4 91/19/4 89/10/4
f 30/17/46 108/17/42 107/20/47
f 22/21/48 100/21/49 98/18/45
f 29/20/50 107/20/47 106/22/51
f 24/23/52 102/23/53 100/21/49
f 28/22/54 106/22/51 105/24/55
f 21/25/56 99/25/57 102/23/53
f 27/24/58 105/24/55 103/26/59
f 23/27/60 101/27/61 99/25/57
f 25/26/62 103/26/59 101/27/61
f 13/6/63 93/6/26 117/67/64
f 58/68/65 118/68/66 94/9/27
f 57/67/67 117/67/64 116/69/68
f 59/70/69 119/70/70 118/68/66
f 56/69/71 116/69/68 115/71/72
f 60/72/73 120/72/74 119/70/70
f 55/71/75 115/71/72 114/73/76
f 61/74/77 121/74/78 120/72/74
f 3/76/1 90/76/1 92/5/1
f 54/73/79 114/73/76 113/75/80
f 1/10/81 89/10/81 90/76/81
f 62/77/82 122/77/83 121/74/78
f 63/78/84 123/78/85 122/77/83
f 53/75/86 113/75/80 130/79/87
f 70/79/88 130/79/87 129/80/89
f 64/81/90 124/81/16 123/78/85
f 69/80/91 129/80/89 128/82/21
f 9/112/81 12/111/92 8/110/81
f 92/5/3 98/18/3 91/19/3
f 107/20/3 89/10/3 91/19/3
f 7/43/7 44/57/7 10/56/7
f 36/58/7 4/48/7 10/56/7
f 113/75/3 92/5/3 90/76/3
f 89/10/3 122/77/3 90/76/3
f 75/95/7 7/43/7 2/96/7
f 2/96/7 84/97/7 83/98/7
f 65/83/14 124/81/16 64/81/90
f 66/85/17 125/83/15 65/83/14
f 68/82/20 127/84/22 67/84/23
f 67/84/23 126/85/18 66/85/17
f 6/113/3 26/112/3 5/110/3
f 29/113/3 30/112/3 5/110/3
f 53/113/11 54/112/3 3/110/3
f 1/113/3 61/112/3 3/110/3
f 17/7/24 93/6/26 13/6/63
f 15/9/27 112/8/28 34/8/29
f 34/8/29 111/11/30 33/11/33
f 19/12/31 95/7/25 17/7/24
f 33/11/33 110/13/34 32/13/37
f 18/14/35 97/12/32 19/12/31
f 32/13/37 109/15/38 31/15/41
f 26/16/39 96/14/36 18/14/35
f 31/15/41 108/17/42 30/17/46
f 6/5/13 91/19/13 5/19/13
f 20/18/44 104/16/40 26/16/39
f 5/19/4 89/10/4 1/10/4
f 30/17/46 107/20/47 29/20/50
f 22/21/48 98/18/45 20/18/44
f 29/20/50 106/22/51 28/22/54
f 24/23/52 100/21/49 22/21/48
f 28/22/54 105/24/55 27/24/58
f 21/25/56 102/23/53 24/23/52
f 27/24/58 103/26/59 25/26/62
f 23/27/60 99/25/57 21/25/56
f 25/26/62 101/27/61 23/27/60
f 13/6/63 117/67/64 57/67/67
f 58/68/65 94/9/27 15/9/27
f 57/67/67 116/69/68 56/69/71
f 59/70/69 118/68/66 58/68/65
f 56/69/71 115/71/72 55/71/75
f 60/72/73 119/70/70 59/70/69
f 55/71/75 114/73/76 54/73/79
f 61/74/77 120/72/74 60/72/73
f 3/76/1 92/5/1 6/5/1
f 54/73/79 113/75/80 53/75/86
f 1/10/81 90/76/81 3/76/81
f 62/77/82 121/74/78 61/74/77
f 63/78/84 122/77/83 62/77/82
f 53/75/86 130/79/87 70/79/88
f 70/79/88 129/80/89 69/80/91
f 64/81/90 123/78/85 63/78/84
f 69/80/91 128/82/21 68/82/20
f 11/113/81 9/112/81 8/110/81

