<?xml version="1.0" encoding="utf-8"?>
<!-- Generator: Adobe Illustrator 21.0.0, SVG Export Plug-In . SVG Version: 6.00 Build 0)  -->
<svg version="1.1" id="Layer_1" xmlns="http://www.w3.org/2000/svg" xmlns:xlink="http://www.w3.org/1999/xlink" x="0px" y="0px"
	 viewBox="0 0 80 80" style="enable-background:new 0 0 80 80;" xml:space="preserve">
<path d="M52.6,59.3c-2.3,0-7-1.8-8-8.6l-3.2-18.2c0-0.2-0.1-0.4-0.5-0.5h-1.8c-0.4,0-0.5,0.3-0.5,0.4l-3.2,18.3
	c-0.9,6.8-5.6,8.5-8,8.5c0,0,0,0,0,0H8.9c-7,0-8.8-5.8-8.8-8.8V28.8c0-7,5.8-8.8,8.8-8.8h62.3c3,0,8.8,1.8,8.8,8.8v21.7
	c0,3-1.8,8.8-8.8,8.8H52.6C52.6,59.3,52.6,59.3,52.6,59.3z M39.1,29h1.8c1,0,3.1,0.6,3.5,3l3.2,18.3c0.8,6,4.8,6.1,5,6.1h0h18.5
	c5.6,0,5.8-5.2,5.8-5.8V28.8c0-5.6-5.2-5.8-5.8-5.8H8.9c-0.6,0-5.8,0.2-5.8,5.8v21.7c0,0.6,0.2,5.8,5.8,5.8h18.5c0.4,0,4.2-0.3,5-6
	l3.2-18.3C36,29.6,38.1,29,39.1,29z M61.6,48.4c-4.8,0-8.8-3.9-8.8-8.8s3.9-8.8,8.8-8.8s8.8,3.9,8.8,8.8S66.4,48.4,61.6,48.4z
	 M61.6,33.9c-3.2,0-5.8,2.6-5.8,5.8s2.6,5.8,5.8,5.8s5.8-2.6,5.8-5.8S64.8,33.9,61.6,33.9z M18.4,48.4c-4.8,0-8.8-3.9-8.8-8.8
	s3.9-8.8,8.8-8.8c4.8,0,8.8,3.9,8.8,8.8S23.2,48.4,18.4,48.4z M18.4,33.9c-3.2,0-5.8,2.6-5.8,5.8s2.6,5.8,5.8,5.8
	c3.2,0,5.8-2.6,5.8-5.8S21.6,33.9,18.4,33.9z"/>
</svg>
