# WaveFront *.obj file (generated by CINEMA 4D)

v 2.56075000000000 -2.06074820435883 -3.12001702929077
v 2.56075000000000 1.99999991008803 -3.12001702929077
v 2.56075000000000 2.00000000000000 -3.00001500000000
v -2.50000000000000 1.99999991008803 -3.12001702929077
v 2.56075000000000 -2.06075000000000 -3.00001702929077
v -2.50000000000000 -2.06074820435883 -3.12001702929077
v -2.50000000000000 -2.06075000000000 -3.00001702929077
v -2.50000000000000 2.00000000000000 -3.00001500000000
v -0.36450000000000 -0.39970000000000 -3.00001702928903
v -0.35896242597295 -0.46299476075960 -3.00001702928903
v -0.06329476075960 -0.75866242597295 -3.00001702928903
v 0.23429608373074 -0.67892319951687 -3.00001702928903
v 0.27922319951687 -0.63399608373074 -3.00001702928903
v 0.31566625967943 -0.58195000000000 -3.00001702928903
v 0.34251796027646 -0.52436634224221 -3.00001702928903
v 0.35896242597295 -0.46299476075960 -3.00001702928903
v 0.36450000000000 -0.39970000000000 -3.00001702928903
v 0.35896242597295 -0.33640523924040 -3.00001702928903
v 0.34251796027646 -0.27503365775779 -3.00001702928903
v 0.31566625967943 -0.21745000000000 -3.00001702928903
v 0.27922319951687 -0.16540391626926 -3.00001702928903
v 0.23429608373074 -0.12047680048313 -3.00001702928903
v -0.06329476075960 -0.04073757402705 -3.00001702928903
v -0.34251796027646 -0.27503365775779 -3.00001702928903
v -0.35896242597295 -0.33640523924040 -3.00001702928903
v -0.35896242597295 -0.46299476075960 -3.12001702928903
v -0.34251796027646 -0.52436634224221 -3.12001702928903
v -0.31566625967943 -0.58195000000000 -3.12001702928903
v -0.27922319951687 -0.63399608373074 -3.12001702928903
v 0.06329476075960 -0.75866242597295 -3.12001702928903
v 0.12466634224221 -0.74221796027646 -3.12001702928903
v 0.18225000000000 -0.71536625967942 -3.12001702928903
v 0.23429608373074 -0.67892319951687 -3.12001702928903
v 0.27922319951687 -0.63399608373074 -3.12001702928903
v 0.31566625967943 -0.58195000000000 -3.12001702928903
v 0.34251796027646 -0.52436634224221 -3.12001702928903
v 0.35896242597295 -0.46299476075960 -3.12001702928903
v 0.36450000000000 -0.39970000000000 -3.12001702928903
v 0.35896242597295 -0.33640523924040 -3.12001702928903
v 0.34251796027646 -0.27503365775779 -3.12001702928903
v 0.31566625967943 -0.21745000000000 -3.12001702928903
v 0.06329476075960 -0.04073757402705 -3.12001702928903
v -0.00000000000000 -0.03520000000000 -3.12001702928903
v -0.06329476075960 -0.04073757402705 -3.12001702928903
v -0.12466634224221 -0.05718203972354 -3.12001702928903
v -0.18225000000000 -0.08403374032057 -3.12001702928903
v -0.23429608373074 -0.12047680048313 -3.12001702928903
v -0.27922319951687 -0.16540391626926 -3.12001702928903
v -0.34251796027646 -0.52436634224221 -3.00001702928903
v -0.31566625967943 -0.58195000000000 -3.00001702928903
v -0.27922319951687 -0.63399608373074 -3.00001702928903
v -0.23429608373074 -0.67892319951687 -3.00001702928903
v -0.18225000000000 -0.71536625967942 -3.00001702928903
v -0.12466634224221 -0.74221796027646 -3.00001702928903
v -0.00000000000000 -0.76420000000000 -3.00001702928903
v 0.06329476075960 -0.75866242597295 -3.00001702928903
v 0.12466634224221 -0.74221796027646 -3.00001702928903
v 0.18225000000000 -0.71536625967942 -3.00001702928903
v 0.18225000000000 -0.08403374032057 -3.00001702928903
v 0.12466634224221 -0.05718203972354 -3.00001702928903
v 0.06329476075960 -0.04073757402705 -3.00001702928903
v 0.00000000000000 -0.03520000000000 -3.00001702928903
v -0.12466634224221 -0.05718203972354 -3.00001702928903
v -0.18225000000000 -0.08403374032057 -3.00001702928903
v -0.23429608373074 -0.12047680048313 -3.00001702928903
v -0.27922319951687 -0.16540391626926 -3.00001702928903
v -0.31566625967943 -0.21745000000000 -3.00001702928903
v -0.36450000000000 -0.39970000000000 -3.12001702928903
v -0.23429608373074 -0.67892319951687 -3.12001702928903
v -0.18225000000000 -0.71536625967942 -3.12001702928903
v -0.12466634224221 -0.74221796027646 -3.12001702928903
v -0.06329476075960 -0.75866242597295 -3.12001702928903
v -0.00000000000000 -0.76420000000000 -3.12001702928903
v 0.27922319951687 -0.16540391626926 -3.12001702928903
v 0.23429608373074 -0.12047680048313 -3.12001702928903
v 0.18225000000000 -0.08403374032057 -3.12001702928903
v 0.12466634224221 -0.05718203972354 -3.12001702928903
v -0.31566625967943 -0.21745000000000 -3.12001702928903
v -0.34251796027646 -0.27503365775779 -3.12001702928903
v -0.35896242597295 -0.33640523924040 -3.12001702928903
# 80 vertices

vn 0.00000000000000 0.99999999999884 -0.00000152585096
vn 0.00000000000000 0.00000000000000 -1.00000000000000
vn 0.00000030305142 0.00000014231045 -0.99999999999994
vn 0.00000005510026 0.00000002587463 -1.00000000000000
vn 0.00000000000000 0.00000000000000 0.00000000000000
vn 0.00000038242356 0.00000053305666 -0.99999999999978
vn 0.00000065918402 0.00000023773507 -0.99999999999975
vn 0.00000066325333 0.00000023863814 -0.99999999999975
vn 0.00000057229852 0.00000032889196 -0.99999999999978
vn 0.00000049164379 0.00000041214582 -0.99999999999979
vn 0.00000041453717 0.00000049505894 -0.99999999999979
vn 0.00000033513845 0.00000058397984 -0.99999999999977
vn 0.00000024664533 0.00000068701570 -0.99999999999973
vn 0.00000013857573 0.00000081738790 -0.99999999999966
vn 0.00000001945288 0.00000091658183 -0.99999999999958
vn -0.00000002143376 0.00000002755594 -1.00000000000000
vn -0.00000043202544 0.00000045157648 -0.99999999999980
vn -0.00000011972426 0.00000084469320 -0.99999999999964
vn -0.00000024856314 0.00000069208318 -0.99999999999973
vn 0.00000000000000 -0.00000000000000 -1.00000000000000
vn -0.00000033861252 0.00000058988434 -0.99999999999977
vn -0.00000041983105 0.00000050127596 -0.99999999999979
vn -0.00000049909085 0.00000041830123 -0.99999999999979
vn -0.00000058240664 0.00000033461436 -0.99999999999977
vn -0.00000067687040 0.00000024343598 -0.99999999999974
vn -0.00000009645192 0.00000012400173 -0.99999999999999
vn -0.00000079332972 0.00000013508597 -0.99999999999968
vn -0.00000052582925 0.00000016156780 -0.99999999999985
vn -1.00000000000000 0.00000000000000 0.00000000000000
vn 0.00000000000000 -0.99999999988359 -0.00001525876632
vn 1.00000000000000 0.00000000000000 0.00000000000000
vn 0.98480775725069 0.17364815362931 0.00000000000000
vn 0.93969258114247 0.34202025224510 0.00000000000000
vn 0.86602539989853 0.50000000673059 0.00000000000000
vn 0.76604448230814 0.64278756298271 0.00000000000000
vn 0.64278769163671 0.76604437435462 0.00000000000000
vn 0.49999996202710 0.86602542570810 0.00000000000000
vn 0.34202012782408 0.93969262642802 0.00000000000000
vn 0.17364819698482 0.98480774960594 -0.00000000000000
vn 0.00000000000000 1.00000000000000 -0.00000000000000
vn -0.17364819698482 0.98480774960594 0.00000000000000
vn -0.34202012782408 0.93969262642802 0.00000000000000
vn -0.49999996202710 0.86602542570810 0.00000000000000
vn -0.64278769163671 0.76604437435462 0.00000000000000
vn -0.76604448230814 0.64278756298271 0.00000000000000
vn -0.86602539989853 0.50000000673059 0.00000000000000
vn -0.93969258114247 0.34202025224510 0.00000000000000
vn -0.98480775725069 0.17364815362931 0.00000000000000
vn -0.98480774705769 -0.17364821143666 0.00000000000000
vn -0.93969256198590 -0.34202030487732 0.00000000000000
vn -0.86602542570810 -0.49999996202710 0.00000000000000
vn -0.76604448703050 -0.64278755735482 0.00000000000000
vn -0.64278756298271 -0.76604448230814 0.00000000000000
vn -0.50000000673059 -0.86602539989853 0.00000000000000
vn -0.34202012782408 -0.93969262642802 0.00000000000000
vn -0.17364820717782 -0.98480774780864 0.00000000000000
vn 0.00000000000000 -1.00000000000000 -0.00000000000000
vn 0.17364820717782 -0.98480774780864 -0.00000000000000
vn 0.34202012782408 -0.93969262642802 0.00000000000000
vn 0.50000000673059 -0.86602539989853 0.00000000000000
vn 0.64278756298271 -0.76604448230814 0.00000000000000
vn 0.76604448703050 -0.64278755735482 0.00000000000000
vn 0.86602542570810 -0.49999996202710 0.00000000000000
vn 0.93969256198590 -0.34202030487732 0.00000000000000
vn 0.98480774705769 -0.17364821143666 0.00000000000000
# 65 normals

vt 0.97619044780731 -0.02380952239037 0.00000000000000
vt 0.97619044780731 -1.00000000000000 0.00000000000000
vt 1.00000000000000 -1.00000000000000 0.00000000000000
vt 1.00000000000000 -0.00000000000000 0.00000000000000
vt 0.51240342855453 -0.57034337520599 0.00000000000000
vt 0.50000000000000 -0.57142853736877 0.00000000000000
vt 0.52443003654480 -0.56712090969086 0.00000000000000
vt 0.00000000000000 -1.00000000000000 0.00000000000000
vt 0.48759657144547 -0.57034337520599 0.00000000000000
vt 0.53571426868439 -0.56185889244080 0.00000000000000
vt 0.47556999325752 -0.56712090969086 0.00000000000000
vt 0.54591339826584 -0.55471742153168 0.00000000000000
vt 0.46428570151329 -0.56185889244080 0.00000000000000
vt 0.55471748113632 -0.54591333866119 0.00000000000000
vt 0.45408660173416 -0.55471742153168 0.00000000000000
vt 0.44528254866600 -0.54591333866119 0.00000000000000
vt 0.56185895204544 -0.53571426868439 0.00000000000000
vt 0.43814104795456 -0.53571426868439 0.00000000000000
vt 0.56712090969086 -0.52443003654480 0.00000000000000
vt 0.43287909030914 -0.52443003654480 0.00000000000000
vt 0.57034343481064 -0.51240336894989 0.00000000000000
vt 0.42965659499168 -0.51240336894989 0.00000000000000
vt 0.57142859697342 -0.50000000000000 0.00000000000000
vt 0.42857143282890 -0.50000000000000 0.00000000000000
vt 0.57034343481064 -0.48759657144547 0.00000000000000
vt 0.56712090969086 -0.47556996345520 0.00000000000000
vt 0.00000000000000 -0.00000000000000 0.00000000000000
vt 0.42965659499168 -0.48759657144547 0.00000000000000
vt 0.56185895204544 -0.46428567171097 0.00000000000000
vt 0.43287909030914 -0.47556996345520 0.00000000000000
vt 0.55471748113632 -0.45408660173416 0.00000000000000
vt 0.43814104795456 -0.46428567171097 0.00000000000000
vt 0.54591339826584 -0.44528251886368 0.00000000000000
vt 0.44528254866600 -0.45408660173416 0.00000000000000
vt 0.45408660173416 -0.44528251886368 0.00000000000000
vt 0.53571426868439 -0.43814104795456 0.00000000000000
vt 0.46428570151329 -0.43814104795456 0.00000000000000
vt 0.52443003654480 -0.43287909030914 0.00000000000000
vt 0.47556999325752 -0.43287909030914 0.00000000000000
vt 0.51240342855453 -0.42965656518936 0.00000000000000
vt 0.48759657144547 -0.42965656518936 0.00000000000000
vt 0.50000000000000 -0.42857140302658 0.00000000000000
vt 0.42965659499168 -0.20949906110764 0.00000000000000
vt 0.42857143282890 -0.21428570151329 0.00000000000000
vt 0.43287909030914 -0.20586431026459 0.00000000000000
vt 0.42965659499168 -0.22015750408173 0.00000000000000
vt 0.43814104795456 -0.20342260599136 0.00000000000000
vt 0.43287909030914 -0.22701478004456 0.00000000000000
vt 0.44528254866600 -0.20219683647156 0.00000000000000
vt 0.43814104795456 -0.23471841216087 0.00000000000000
vt 0.45408660173416 -0.20219683647156 0.00000000000000
vt 0.44528254866600 -0.24308571219444 0.00000000000000
vt 0.45408660173416 -0.25188976526260 0.00000000000000
vt 0.46428570151329 -0.20342260599136 0.00000000000000
vt 0.46428570151329 -0.26086306571960 0.00000000000000
vt 0.47556999325752 -0.20586431026459 0.00000000000000
vt 0.47556999325752 -0.26970565319061 0.00000000000000
vt 0.48759657144547 -0.20949906110764 0.00000000000000
vt 0.48759657144547 -0.27809745073318 0.00000000000000
vt 0.50000000000000 -0.21428570151329 0.00000000000000
vt 0.50000000000000 -0.28571426868439 0.00000000000000
vt 0.51240342855453 -0.22015750408173 0.00000000000000
vt 0.51240342855453 -0.29224592447281 0.00000000000000
vt 0.52443003654480 -0.22701478004456 0.00000000000000
vt 0.53571426868439 -0.23471841216087 0.00000000000000
vt 0.52443003654480 -0.29741519689560 0.00000000000000
vt 0.54591339826584 -0.24308571219444 0.00000000000000
vt 0.53571426868439 -0.30099582672119 0.00000000000000
vt 0.55471748113632 -0.25188976526260 0.00000000000000
vt 0.54591339826584 -0.30282765626907 0.00000000000000
vt 0.55471748113632 -0.30282765626907 0.00000000000000
vt 0.56185895204544 -0.26086306571960 0.00000000000000
vt 0.56185895204544 -0.30099582672119 0.00000000000000
vt 0.56712090969086 -0.26970565319061 0.00000000000000
vt 0.56712090969086 -0.29741519689560 0.00000000000000
vt 0.57034343481064 -0.27809745073318 0.00000000000000
vt 0.57034343481064 -0.29224592447281 0.00000000000000
vt 0.57142859697342 -0.28571426868439 0.00000000000000
vt 0.00000000000000 -0.02272727340460 0.00000000000000
vt 0.00000000000000 -0.04545454680920 0.00000000000000
vt 0.02777777798474 -0.04545454680920 0.00000000000000
vt 0.02777777798474 -0.02272727340460 0.00000000000000
vt 0.05555555596948 -0.04545454680920 0.00000000000000
vt 0.05555555596948 -0.02272727340460 0.00000000000000
vt 0.08333333581686 -0.04545454680920 0.00000000000000
vt 0.08333333581686 -0.02272727340460 0.00000000000000
vt 0.11111111193895 -0.04545454680920 0.00000000000000
vt 0.11111111193895 -0.02272727340460 0.00000000000000
vt 0.13888889551163 -0.04545454680920 0.00000000000000
vt 0.13888889551163 -0.02272727340460 0.00000000000000
vt 0.16666667163372 -0.04545454680920 0.00000000000000
vt 0.16666667163372 -0.02272727340460 0.00000000000000
vt 0.19444444775581 -0.04545454680920 0.00000000000000
vt 0.19444444775581 -0.02272727340460 0.00000000000000
vt 0.22222222387791 -0.04545454680920 0.00000000000000
vt 0.22222222387791 -0.02272727340460 0.00000000000000
vt 0.25000000000000 -0.04545454680920 0.00000000000000
vt 0.25000000000000 -0.02272727340460 0.00000000000000
vt 0.27777779102325 -0.04545454680920 0.00000000000000
vt 0.27777779102325 -0.02272727340460 0.00000000000000
vt 0.30555555224419 -0.04545454680920 0.00000000000000
vt 0.30555555224419 -0.02272727340460 0.00000000000000
vt 0.33333334326744 -0.04545454680920 0.00000000000000
vt 0.33333334326744 -0.02272727340460 0.00000000000000
vt 0.36111110448837 -0.04545454680920 0.00000000000000
vt 0.36111110448837 -0.02272727340460 0.00000000000000
vt 0.38888889551163 -0.04545454680920 0.00000000000000
vt 0.38888889551163 -0.02272727340460 0.00000000000000
vt 0.41666665673256 -0.04545454680920 0.00000000000000
vt 0.41666665673256 -0.02272727340460 0.00000000000000
vt 0.44444444775581 -0.04545454680920 0.00000000000000
vt 0.44444444775581 -0.02272727340460 0.00000000000000
vt 0.47222220897675 -0.04545454680920 0.00000000000000
vt 0.47222220897675 -0.02272727340460 0.00000000000000
vt 0.50000000000000 -0.04545454680920 0.00000000000000
vt 0.50000000000000 -0.02272727340460 0.00000000000000
vt 0.52777779102325 -0.04545454680920 0.00000000000000
vt 0.52777779102325 -0.02272727340460 0.00000000000000
vt 0.55555558204651 -0.04545454680920 0.00000000000000
vt 0.55555558204651 -0.02272727340460 0.00000000000000
vt 0.58333331346512 -0.04545454680920 0.00000000000000
vt 0.58333331346512 -0.02272727340460 0.00000000000000
vt 0.61111110448837 -0.04545454680920 0.00000000000000
vt 0.61111110448837 -0.02272727340460 0.00000000000000
vt 0.63888889551163 -0.04545454680920 0.00000000000000
vt 0.63888889551163 -0.02272727340460 0.00000000000000
vt 0.66666668653488 -0.04545454680920 0.00000000000000
vt 0.66666668653488 -0.02272727340460 0.00000000000000
vt 0.69444441795349 -0.04545454680920 0.00000000000000
vt 0.69444441795349 -0.02272727340460 0.00000000000000
vt 0.72222220897675 -0.04545454680920 0.00000000000000
vt 0.72222220897675 -0.02272727340460 0.00000000000000
vt 0.75000000000000 -0.04545454680920 0.00000000000000
vt 0.75000000000000 -0.02272727340460 0.00000000000000
vt 0.77777779102325 -0.04545454680920 0.00000000000000
vt 0.77777779102325 -0.02272727340460 0.00000000000000
vt 0.80555558204651 -0.04545454680920 0.00000000000000
vt 0.80555558204651 -0.02272727340460 0.00000000000000
vt 0.83333331346512 -0.04545454680920 0.00000000000000
vt 0.83333331346512 -0.02272727340460 0.00000000000000
vt 0.86111110448837 -0.04545454680920 0.00000000000000
vt 0.86111110448837 -0.02272727340460 0.00000000000000
vt 0.88888889551163 -0.04545454680920 0.00000000000000
vt 0.88888889551163 -0.02272727340460 0.00000000000000
vt 0.91666668653488 -0.04545454680920 0.00000000000000
vt 0.91666668653488 -0.02272727340460 0.00000000000000
vt 0.94444441795349 -0.04545454680920 0.00000000000000
vt 0.94444441795349 -0.02272727340460 0.00000000000000
vt 0.97222220897675 -0.04545454680920 0.00000000000000
vt 0.97222220897675 -0.02272727340460 0.00000000000000
vt 1.00000000000000 -0.04545454680920 0.00000000000000
vt 1.00000000000000 -0.02272727340460 0.00000000000000
# 152 texture coordinates

o FirstWall
usemtl default
f 2/1/1 4/2/1 8/3/1 3/4/1
f 16/5/2 17/6/3 5/3/4
f 15/7/2 16/5/2 5/3/4
f 3/8/6 5/3/4 17/6/3 18/9/7
f 14/10/2 15/7/2 5/3/4
f 3/8/6 18/9/7 19/11/8
f 13/12/2 14/10/2 5/3/4
f 3/8/6 19/11/8 20/13/9
f 12/14/2 13/12/2 5/3/4
f 3/8/6 20/13/9 21/15/10
f 3/8/6 21/15/10 22/16/11
f 58/17/2 12/14/2 5/3/4
f 3/8/6 22/16/11 59/18/12
f 57/19/2 58/17/2 5/3/4
f 3/8/6 59/18/12 60/20/13
f 56/21/2 57/19/2 5/3/4
f 3/8/6 60/20/13 61/22/14
f 55/23/2 56/21/2 5/3/4
f 3/8/6 61/22/14 62/24/15
f 11/25/2 55/23/2 5/3/4 7/4/16
f 54/26/2 11/25/2 7/4/16
f 8/27/17 3/8/6 62/24/15 23/28/18
f 53/29/2 54/26/2 7/4/16
f 8/27/17 23/28/18 63/30/19
f 52/31/20 53/29/2 7/4/16
f 8/27/17 63/30/19 64/32/21
f 51/33/20 52/31/20 7/4/16
f 8/27/17 64/32/21 65/34/22
f 8/27/17 65/34/22 66/35/23
f 50/36/20 51/33/20 7/4/16
f 8/27/17 66/35/23 67/37/24
f 49/38/2 50/36/20 7/4/16
f 8/27/17 67/37/24 24/39/25
f 10/40/26 49/38/2 7/4/16
f 8/27/17 24/39/25 25/41/27
f 9/42/28 10/40/26 7/4/16 8/27/17
f 8/27/17 25/41/27 9/42/28
f 6/4/29 7/4/29 8/27/29 4/27/29
f 37/43/2 38/44/2 1/27/2
f 36/45/2 37/43/2 1/27/2
f 2/27/2 1/27/2 38/44/2 39/46/2
f 35/47/2 36/45/2 1/27/2
f 2/27/2 39/46/2 40/48/2
f 34/49/2 35/47/2 1/27/2
f 2/27/2 40/48/2 41/50/2
f 33/51/2 34/49/2 1/27/2
f 2/27/2 41/50/2 74/52/2
f 2/27/2 74/52/2 75/53/2
f 32/54/2 33/51/2 1/27/2
f 2/27/2 75/53/2 76/55/2
f 31/56/2 32/54/2 1/27/2
f 2/27/2 76/55/2 77/57/2
f 30/58/2 31/56/2 1/27/2
f 2/27/2 77/57/2 42/59/2
f 73/60/2 30/58/2 1/27/2
f 2/27/2 42/59/2 43/61/2
f 72/62/2 73/60/2 1/27/2 6/4/2
f 44/63/2 4/3/2 2/27/2 43/61/2
f 71/64/2 72/62/2 6/4/2
f 70/65/2 71/64/2 6/4/2
f 4/3/2 44/63/2 45/66/2
f 69/67/20 70/65/2 6/4/2
f 4/3/2 45/66/2 46/68/2
f 29/69/20 69/67/20 6/4/2
f 4/3/2 46/68/2 47/70/2
f 4/3/2 47/70/2 48/71/2
f 28/72/20 29/69/20 6/4/2
f 4/3/2 48/71/2 78/73/2
f 27/74/20 28/72/20 6/4/2
f 4/3/2 78/73/2 79/75/2
f 26/76/2 27/74/20 6/4/2
f 4/3/2 79/75/2 80/77/2
f 68/78/2 26/76/2 6/4/2
f 80/77/2 68/78/2 6/4/2 4/3/2
f 5/4/30 7/3/30 6/3/30 1/4/30
f 1/4/31 2/27/31 3/27/31 5/4/31
f 68/79/31 9/80/31 10/81/32 26/82/32
f 26/82/32 10/81/32 49/83/33 27/84/33
f 27/84/33 49/83/33 50/85/34 28/86/34
f 28/86/34 50/85/34 51/87/35 29/88/35
f 29/88/35 51/87/35 52/89/36 69/90/36
f 53/91/37 70/92/37 69/90/36 52/89/36
f 54/93/38 71/94/38 70/92/37 53/91/37
f 11/95/39 72/96/39 71/94/38 54/93/38
f 55/97/40 73/98/40 72/96/39 11/95/39
f 56/99/41 30/100/41 73/98/40 55/97/40
f 57/101/42 31/102/42 30/100/41 56/99/41
f 58/103/43 32/104/43 31/102/42 57/101/42
f 12/105/44 33/106/44 32/104/43 58/103/43
f 33/106/44 12/105/44 13/107/45 34/108/45
f 34/108/45 13/107/45 14/109/46 35/110/46
f 35/110/46 14/109/46 15/111/47 36/112/47
f 36/112/47 15/111/47 16/113/48 37/114/48
f 37/114/48 16/113/48 17/115/29 38/116/29
f 38/116/29 17/115/29 18/117/49 39/118/49
f 39/118/49 18/117/49 19/119/50 40/120/50
f 40/120/50 19/119/50 20/121/51 41/122/51
f 41/122/51 20/121/51 21/123/52 74/124/52
f 74/124/52 21/123/52 22/125/53 75/126/53
f 75/126/53 22/125/53 59/127/54 76/128/54
f 76/128/54 59/127/54 60/129/55 77/130/55
f 77/130/55 60/129/55 61/131/56 42/132/56
f 42/132/56 61/131/56 62/133/57 43/134/57
f 43/134/57 62/133/57 23/135/58 44/136/58
f 44/136/58 23/135/58 63/137/59 45/138/59
f 45/138/59 63/137/59 64/139/60 46/140/60
f 46/140/60 64/139/60 65/141/61 47/142/61
f 47/142/61 65/141/61 66/143/62 48/144/62
f 48/144/62 66/143/62 67/145/63 78/146/63
f 78/146/63 67/145/63 24/147/64 79/148/64
f 79/148/64 24/147/64 25/149/65 80/150/65
f 80/150/65 25/149/65 9/151/31 68/152/31
