# WaveFront *.obj file (generated by CINEMA 4D)

v 2.43925000000000 -1.93925000000000 -3.00000000000000
v -2.50000000000000 -2.06075000000000 -3.00000000000000
v 2.43925000000000 -1.93925000000000 2.87925005722046
v -2.50000000000000 -2.06075000000000 2.87925005722046
v 2.43925000000000 -2.06075000000000 -3.00000000000000
v -2.50000000000000 -1.93925000000000 -3.00000000000000
v 2.43925000000000 -2.06075000000000 2.87925005722046
v -2.50000000000000 -1.93925000000000 2.87925005722046
# 8 vertices

vn -1.00000000000000 0.00000000000000 0.00000000000000
vn 0.00000000000000 -1.00000000000000 0.00000000000000
vn 0.00000000000000 1.00000000000000 0.00000000000000
vn 0.00000000000000 0.00000000000000 -1.00000000000000
vn 0.00000000000000 0.00000000000000 1.00000000000000
vn 1.00000000000000 0.00000000000000 0.00000000000000
# 6 normals

vt 0.00000000000000 -0.00000000000000 0.00000000000000
vt 1.00000000000000 -0.00000000000000 0.00000000000000
vt 1.00000000000000 -1.00000000000000 0.00000000000000
vt 0.00000000000000 -1.00000000000000 0.00000000000000
# 4 texture coordinates

o Horizontal:Room
usemtl default
f 6/1/1 2/1/1 4/2/1 8/2/1
f 7/3/2 4/2/2 2/1/2 5/4/2
f 1/4/3 6/3/3 8/2/3 3/1/3
f 1/1/4 5/2/4 2/3/4 6/4/4
f 7/1/5 3/2/5 8/3/5 4/4/5
f 1/1/6 3/2/6 7/3/6 5/4/6
