# WaveFront *.obj file (generated by CINEMA 4D)

v 2.56075000000000 2.00000000000000 3.00075005722046
v -2.50000000000000 2.00000000000000 2.87925005722046
v 2.56075000000000 2.00000000000000 -3.00000000000000
v -2.50000000000000 2.00000000000000 -3.00000000000000
v 2.56075000000000 -2.06075000000000 -3.00000000000000
v -2.50000000000000 -1.93925000000000 -3.00000000000000
v 2.56075000000000 -2.06075000000000 3.00075005722046
v -2.50000000000000 -1.93925000000000 2.87925005722046
v 2.43925000000000 2.00000000000000 -3.00000000000000
v -2.50000000000000 2.00000000000000 3.00075005722046
v 2.43925000000000 2.00000000000000 2.87925005722046
v -0.35896242597295 -0.33640523924040 3.00075005722046
v 2.43925000000000 -1.93925000000000 -3.00000000000000
v -2.50000000000000 -2.06075000000000 -3.00000000000000
v 2.43925000000000 -1.93925000000000 2.87925005722046
v -2.50000000000000 -2.06075000000000 3.00075005722046
v 0.34251796027646 -0.52436634224221 2.87925005722046
v 0.27922319951687 -0.16540391626926 2.87925005722046
v 0.35896242597295 -0.33640523924040 2.87925005722046
v 0.36450000000000 -0.39970000000000 2.87925005722046
v 0.35896242597295 -0.46299476075960 2.87925005722046
v -0.31566625967943 -0.58195000000000 3.00075005722046
v -0.34251796027646 -0.52436634224221 3.00075005722046
v -0.35896242597295 -0.46299476075960 3.00075005722046
v -0.36450000000000 -0.39970000000000 3.00075005722046
v -0.12466634224221 -0.74221796027646 3.00075005722046
v -0.18225000000000 -0.71536625967942 3.00075005722046
v -0.23429608373074 -0.67892319951687 3.00075005722046
v -0.27922319951687 -0.63399608373074 3.00075005722046
v 0.12466634224221 -0.74221796027646 3.00075005722046
v 0.06329476075960 -0.75866242597295 3.00075005722046
v -0.06329476075960 -0.75866242597295 3.00075005722046
v 0.34251796027646 -0.52436634224221 3.00075005722046
v 0.35896242597295 -0.46299476075960 3.00075005722046
v 0.36450000000000 -0.39970000000000 3.00075005722046
v 0.35896242597295 -0.33640523924040 3.00075005722046
v 0.18225000000000 -0.71536625967942 3.00075005722046
v 0.23429608373074 -0.67892319951687 3.00075005722046
v 0.27922319951687 -0.63399608373074 3.00075005722046
v 0.31566625967943 -0.58195000000000 3.00075005722046
v 0.18225000000000 -0.08403374032057 3.00075005722046
v 0.12466634224221 -0.05718203972354 3.00075005722046
v 0.06329476075960 -0.04073757402704 3.00075005722046
v -0.00000000000000 -0.03520000000000 3.00075005722046
v 0.34251796027646 -0.27503365775779 3.00075005722046
v 0.31566625967943 -0.21745000000000 3.00075005722046
v 0.27922319951687 -0.16540391626926 3.00075005722046
v 0.23429608373074 -0.12047680048313 3.00075005722046
v -0.31566625967943 -0.21745000000000 3.00075005722046
v -0.27922319951687 -0.16540391626926 3.00075005722046
v -0.36450000000000 -0.39970000000000 -3.00000000000000
v -0.34251796027646 -0.27503365775779 3.00075005722046
v -0.12466634224221 -0.05718203972354 3.00075005722046
v -0.06329476075960 -0.04073757402704 3.00075005722046
v -0.23429608373074 -0.12047680048313 3.00075005722046
v -0.18225000000000 -0.08403374032057 3.00075005722046
v -0.18225000000000 -0.71536625967942 -3.00000000000000
v -0.23429608373074 -0.67892319951687 -3.00000000000000
v -0.06329476075960 -0.75866242597295 -3.00000000000000
v -0.12466634224221 -0.74221796027646 -3.00000000000000
v -0.34251796027646 -0.52436634224221 -3.00000000000000
v -0.35896242597295 -0.46299476075960 -3.00000000000000
v -0.27922319951687 -0.63399608373074 -3.00000000000000
v -0.31566625967943 -0.58195000000000 -3.00000000000000
v 0.31566625967943 -0.58195000000000 -3.00000000000000
v 0.34251796027646 -0.52436634224221 -3.00000000000000
v 0.23429608373074 -0.67892319951687 -3.00000000000000
v 0.27922319951687 -0.63399608373074 -3.00000000000000
v 0.12466634224221 -0.74221796027646 -3.00000000000000
v 0.18225000000000 -0.71536625967942 -3.00000000000000
v 0.00000000000000 -0.76420000000000 -3.00000000000000
v 0.06329476075960 -0.75866242597295 -3.00000000000000
v 0.23429608373074 -0.12047680048313 -3.00000000000000
v 0.18225000000000 -0.08403374032057 -3.00000000000000
v 0.31566625967943 -0.21745000000000 -3.00000000000000
v 0.27922319951687 -0.16540391626926 -3.00000000000000
v 0.35896242597295 -0.33640523924040 -3.00000000000000
v 0.34251796027646 -0.27503365775779 -3.00000000000000
v 0.35896242597295 -0.46299476075960 -3.00000000000000
v 0.36450000000000 -0.39970000000000 -3.00000000000000
v -0.27922319951687 -0.16540391626926 -3.00000000000000
v -0.23429608373074 -0.12047680048313 -3.00000000000000
v -0.18225000000000 -0.08403374032057 -3.00000000000000
v -0.12466634224221 -0.05718203972354 -3.00000000000000
v -0.06329476075960 -0.04073757402705 -3.00000000000000
v 0.00000000000000 -0.03520000000000 -3.00000000000000
v 0.06329476075960 -0.04073757402705 -3.00000000000000
v 0.12466634224221 -0.05718203972354 -3.00000000000000
v -0.31566625967943 -0.58195000000000 2.87925005722046
v -0.34251796027646 -0.52436634224221 2.87925005722046
v -0.35896242597295 -0.46299476075960 2.87925005722046
v -0.36450000000000 -0.39970000000000 2.87925005722046
v -0.35896242597295 -0.33640523924040 -3.00000000000000
v -0.34251796027646 -0.27503365775779 -3.00000000000000
v -0.31566625967943 -0.21745000000000 -3.00000000000000
v 0.27922319951687 -0.63399608373074 2.87925005722046
v 0.23429608373074 -0.67892319951687 2.87925005722046
v 0.31566625967943 -0.58195000000000 2.87925005722046
v 0.34251796027646 -0.27503365775779 2.87925005722046
v -0.06329476075960 -0.75866242597295 2.87925005722046
v -0.12466634224221 -0.74221796027646 2.87925005722046
v -0.00000000000000 -0.76420000000000 2.87925005722046
v -0.12466634224221 -0.05718203972354 2.87925005722046
v -0.18225000000000 -0.08403374032057 2.87925005722046
v -0.23429608373074 -0.12047680048313 2.87925005722046
v -0.27922319951687 -0.16540391626926 2.87925005722046
v -0.31566625967943 -0.21745000000000 2.87925005722046
v 0.31566625967943 -0.21745000000000 2.87925005722046
v 0.23429608373074 -0.12047680048313 2.87925005722046
v 0.18225000000000 -0.08403374032057 2.87925005722046
v 0.12466634224221 -0.05718203972354 2.87925005722046
v -0.06329476075960 -0.04073757402704 2.87925005722046
v 0.06329476075960 -0.04073757402704 2.87925005722046
v -0.27922319951687 -0.63399608373074 2.87925005722046
v -0.23429608373074 -0.67892319951687 2.87925005722046
v -0.18225000000000 -0.71536625967942 2.87925005722046
v 0.06329476075960 -0.75866242597295 2.87925005722046
v 0.12466634224221 -0.74221796027646 2.87925005722046
v 0.18225000000000 -0.71536625967942 2.87925005722046
v -0.34251796027646 -0.27503365775779 2.87925005722046
v -0.35896242597295 -0.33640523924040 2.87925005722046
v -0.00000000000000 -0.03520000000000 2.87925005722046
v -0.00000000000000 -0.76420000000000 3.00075005722046
# 123 vertices

vn -1.00000000000000 0.00000000000000 0.00000000000000
vn -0.34202024508556 0.93969258374833 0.00000000000000
vn -0.50000005143407 0.86602537408896 0.00000000000000
vn -0.98480775215419 -0.17364818253299 0.00000000000000
vn -1.00000000000000 -0.00000001869760 0.00000000000000
vn 0.64278762168183 0.76604443305374 0.00000000000000
vn 0.76604437907697 0.64278768600883 0.00000000000000
vn -0.93969265776873 -0.34202004171618 0.00000000000000
vn 0.50000005143407 0.86602537408896 0.00000000000000
vn -0.86602546641882 -0.49999989151405 0.00000000000000
vn 0.98480775725069 0.17364815362931 0.00000000000000
vn 1.00000000000000 -0.00000001869760 0.00000000000000
vn -0.76604440842653 -0.64278765103139 0.00000000000000
vn -0.76604437907697 0.64278768600883 0.00000000000000
vn -0.64278762168183 0.76604443305374 0.00000000000000
vn -0.64278762168183 -0.76604443305374 0.00000000000000
vn 0.86602544060926 0.49999993621753 0.00000000000000
vn 0.93969265776873 0.34202004171618 0.00000000000000
vn -0.49999998783667 -0.86602541080694 0.00000000000000
vn -0.34202018045631 -0.93969260727146 0.00000000000000
vn -0.17364818253299 -0.98480775215419 0.00000000000000
vn 0.34202024508556 0.93969258374833 0.00000000000000
vn 0.00000000000000 -1.00000000000000 0.00000000000000
vn -0.86602544060926 0.49999993621753 0.00000000000000
vn 0.17364818253299 -0.98480775215419 0.00000000000000
vn 0.17364800911094 0.98480778273316 0.00000000000000
vn 0.34202018045631 -0.93969260727146 0.00000000000000
vn -0.93969265776873 0.34202004171618 0.00000000000000
vn 0.49999998783667 -0.86602541080694 0.00000000000000
vn 0.00000000000000 1.00000000000000 0.00000000000000
vn 0.64278762168183 -0.76604443305374 0.00000000000000
vn -0.98480775725069 0.17364815362931 0.00000000000000
vn 0.76604440842653 -0.64278765103139 0.00000000000000
vn -0.17364800911094 0.98480778273316 0.00000000000000
vn 0.86602546641882 -0.49999989151405 0.00000000000000
vn 0.93969265776873 -0.34202004171618 0.00000000000000
vn 0.98480775215419 -0.17364818253299 0.00000000000000
vn 0.00000000000000 0.00000000000000 -1.00000000000000
vn 0.00000000000000 0.00000000000000 0.00000000000000
vn 0.00000000000000 -0.00000000000000 -1.00000000000000
vn 0.00000000000000 1.00000000000000 0.00000000000000
vn 1.00000000000000 0.00000000000000 0.00000000000000
vn 0.00000000000000 0.00000000000000 1.00000000000000
vn -0.00000000000000 0.00000000000000 1.00000000000000
vn 0.00000000000000 -0.00000000000000 1.00000000000000
# 45 normals

vt 0.00000000000000 -0.00000000000000 0.00000000000000
vt 1.00000000000000 -0.00000000000000 0.00000000000000
vt 0.30555555224419 -0.04545454680920 0.00000000000000
vt 0.30555555224419 -0.02272727340460 0.00000000000000
vt 0.33333334326744 -0.02272727340460 0.00000000000000
vt 0.33333334326744 -0.04545454680920 0.00000000000000
vt 0.52777779102325 -0.02272727340460 0.00000000000000
vt 0.52777779102325 -0.04545454680920 0.00000000000000
vt 0.50000000000000 -0.04545454680920 0.00000000000000
vt 0.50000000000000 -0.02272727340460 0.00000000000000
vt 0.13888889551163 -0.02272727340460 0.00000000000000
vt 0.13888889551163 -0.04545454680920 0.00000000000000
vt 0.11111111193895 -0.04545454680920 0.00000000000000
vt 0.11111111193895 -0.02272727340460 0.00000000000000
vt 0.55555558204651 -0.02272727340460 0.00000000000000
vt 0.55555558204651 -0.04545454680920 0.00000000000000
vt 0.16666667163372 -0.02272727340460 0.00000000000000
vt 0.16666667163372 -0.04545454680920 0.00000000000000
vt 0.58333331346512 -0.02272727340460 0.00000000000000
vt 0.58333331346512 -0.04545454680920 0.00000000000000
vt 0.02777777798474 -0.02272727340460 0.00000000000000
vt 0.02777777798474 -0.04545454680920 0.00000000000000
vt 0.00000000000000 -0.04545454680920 0.00000000000000
vt 0.00000000000000 -0.02272727340460 0.00000000000000
vt 0.61111110448837 -0.02272727340460 0.00000000000000
vt 0.61111110448837 -0.04545454680920 0.00000000000000
vt 0.38888889551163 -0.02272727340460 0.00000000000000
vt 0.38888889551163 -0.04545454680920 0.00000000000000
vt 0.36111110448837 -0.04545454680920 0.00000000000000
vt 0.36111110448837 -0.02272727340460 0.00000000000000
vt 0.63888889551163 -0.02272727340460 0.00000000000000
vt 0.63888889551163 -0.04545454680920 0.00000000000000
vt 0.08333333581686 -0.02272727340460 0.00000000000000
vt 0.08333333581686 -0.04545454680920 0.00000000000000
vt 0.05555555596948 -0.04545454680920 0.00000000000000
vt 0.05555555596948 -0.02272727340460 0.00000000000000
vt 0.66666668653488 -0.02272727340460 0.00000000000000
vt 0.66666668653488 -0.04545454680920 0.00000000000000
vt 0.69444441795349 -0.02272727340460 0.00000000000000
vt 0.69444441795349 -0.04545454680920 0.00000000000000
vt 0.72222220897675 -0.02272727340460 0.00000000000000
vt 0.72222220897675 -0.04545454680920 0.00000000000000
vt 0.19444444775581 -0.02272727340460 0.00000000000000
vt 0.19444444775581 -0.04545454680920 0.00000000000000
vt 0.75000000000000 -0.02272727340460 0.00000000000000
vt 0.75000000000000 -0.04545454680920 0.00000000000000
vt 0.41666665673256 -0.02272727340460 0.00000000000000
vt 0.41666665673256 -0.04545454680920 0.00000000000000
vt 0.77777779102325 -0.02272727340460 0.00000000000000
vt 0.77777779102325 -0.04545454680920 0.00000000000000
vt 0.22222222387791 -0.02272727340460 0.00000000000000
vt 0.22222222387791 -0.04545454680920 0.00000000000000
vt 0.80555558204651 -0.02272727340460 0.00000000000000
vt 0.80555558204651 -0.04545454680920 0.00000000000000
vt 0.44444444775581 -0.02272727340460 0.00000000000000
vt 0.44444444775581 -0.04545454680920 0.00000000000000
vt 0.83333331346512 -0.02272727340460 0.00000000000000
vt 0.83333331346512 -0.04545454680920 0.00000000000000
vt 0.25000000000000 -0.02272727340460 0.00000000000000
vt 0.25000000000000 -0.04545454680920 0.00000000000000
vt 0.86111110448837 -0.02272727340460 0.00000000000000
vt 0.86111110448837 -0.04545454680920 0.00000000000000
vt 0.47222220897675 -0.02272727340460 0.00000000000000
vt 0.47222220897675 -0.04545454680920 0.00000000000000
vt 0.88888889551163 -0.02272727340460 0.00000000000000
vt 0.88888889551163 -0.04545454680920 0.00000000000000
vt 0.27777779102325 -0.02272727340460 0.00000000000000
vt 0.27777779102325 -0.04545454680920 0.00000000000000
vt 0.91666668653488 -0.02272727340460 0.00000000000000
vt 0.91666668653488 -0.04545454680920 0.00000000000000
vt 0.94444441795349 -0.02272727340460 0.00000000000000
vt 0.94444441795349 -0.04545454680920 0.00000000000000
vt 0.97222220897675 -0.02272727340460 0.00000000000000
vt 0.97222220897675 -0.04545454680920 0.00000000000000
vt 1.00000000000000 -0.02272727340460 0.00000000000000
vt 1.00000000000000 -0.04545454680920 0.00000000000000
vt 1.00000000000000 -1.00000000000000 0.00000000000000
vt 0.00000000000000 -1.00000000000000 0.00000000000000
vt 0.41904687881470 -1.00000000000000 0.00000000000000
vt 0.42443716526031 -1.00000000000000 0.00000000000000
vt 0.41574576497078 -1.00000000000000 0.00000000000000
vt 0.43175283074379 -1.00000000000000 0.00000000000000
vt 0.44077163934708 -1.00000000000000 0.00000000000000
vt 0.45121949911118 -1.00000000000000 0.00000000000000
vt 0.46277901530266 -1.00000000000000 0.00000000000000
vt 0.47509890794754 -1.00000000000000 0.00000000000000
vt 0.48780488967896 -1.00000000000000 0.00000000000000
vt 0.50051087141037 -1.00000000000000 0.00000000000000
vt 0.51283073425293 -1.00000000000000 0.00000000000000
vt 0.52439022064209 -1.00000000000000 0.00000000000000
vt 0.53483814001083 -1.00000000000000 0.00000000000000
vt 0.54385691881180 -1.00000000000000 0.00000000000000
vt 0.55117261409760 -1.00000000000000 0.00000000000000
vt 0.55656290054321 -1.00000000000000 0.00000000000000
vt 0.55986398458481 -1.00000000000000 0.00000000000000
vt 0.56097561120987 -1.00000000000000 0.00000000000000
vt 0.97619044780731 -0.02380952239037 0.00000000000000
vt 0.02380952425301 -0.02380952239037 0.00000000000000
vt 0.02380952425301 -1.00000000000000 0.00000000000000
vt 0.41463413834572 -0.20226055383682 0.00000000000000
vt 0.41574576497078 -0.19752034544945 0.00000000000000
vt 0.41904687881470 -0.19392609596252 0.00000000000000
vt 0.41574576497078 -0.20808526873589 0.00000000000000
vt 0.42443716526031 -0.19151431322098 0.00000000000000
vt 0.41904687881470 -0.21490010619164 0.00000000000000
vt 0.43175283074379 -0.19030439853668 0.00000000000000
vt 0.42443716526031 -0.22257068753242 0.00000000000000
vt 0.44077163934708 -0.19030439853668 0.00000000000000
vt 0.43175283074379 -0.23091787099838 0.00000000000000
vt 0.44077163934708 -0.23971670866013 0.00000000000000
vt 0.45121949911118 -0.19151431322098 0.00000000000000
vt 0.45121949911118 -0.24869981408119 0.00000000000000
vt 0.46277901530266 -0.19392609596252 0.00000000000000
vt 0.46277901530266 -0.25756561756134 0.00000000000000
vt 0.47509890794754 -0.19752034544945 0.00000000000000
vt 0.47509890794754 -0.26599073410034 0.00000000000000
vt 0.48780488967896 -0.20226055383682 0.00000000000000
vt 0.50051087141037 -0.20808526873589 0.00000000000000
vt 0.48780488967896 -0.27364665269852 0.00000000000000
vt 0.51283073425293 -0.21490010619164 0.00000000000000
vt 0.50051087141037 -0.28021800518036 0.00000000000000
vt 0.52439022064209 -0.22257068753242 0.00000000000000
vt 0.51283073425293 -0.28542256355286 0.00000000000000
vt 0.53483814001083 -0.23091787099838 0.00000000000000
vt 0.52439022064209 -0.28902953863144 0.00000000000000
vt 0.54385691881180 -0.23971670866013 0.00000000000000
vt 0.53483814001083 -0.29087537527084 0.00000000000000
vt 0.54385691881180 -0.29087537527084 0.00000000000000
vt 0.55117261409760 -0.24869981408119 0.00000000000000
vt 0.55117261409760 -0.28902953863144 0.00000000000000
vt 0.55656290054321 -0.25756561756134 0.00000000000000
vt 0.55656290054321 -0.28542256355286 0.00000000000000
vt 0.55986398458481 -0.26599073410034 0.00000000000000
vt 0.55986398458481 -0.28021800518036 0.00000000000000
vt 0.56097561120987 -0.27364665269852 0.00000000000000
vt 0.41463413834572 -1.00000000000000 0.00000000000000
# 136 texture coordinates

o Horizontal:Room
usemtl default
f 8/1/1 16/1/1 10/2/1 2/2/1
f 118/3/2 30/4/2 37/5/3 119/6/3
f 36/7/4 19/8/4 20/9/5 35/10/5
f 28/11/6 115/12/6 114/13/7 29/14/7
f 45/15/8 99/16/8 19/8/4 36/7/4
f 115/12/6 28/11/6 27/17/9 116/18/9
f 46/19/10 108/20/10 99/16/8 45/15/8
f 24/21/11 91/22/11 92/23/12 25/24/12
f 47/25/13 18/26/13 108/20/10 46/19/10
f 39/27/14 96/28/14 97/29/15 38/30/15
f 48/31/16 109/32/16 18/26/13 47/25/13
f 22/33/17 89/34/17 90/35/18 23/36/18
f 41/37/19 110/38/19 109/32/16 48/31/16
f 23/36/18 90/35/18 91/22/11 24/21/11
f 42/39/20 111/40/20 110/38/19 41/37/19
f 29/14/7 114/13/7 89/34/17 22/33/17
f 43/41/21 113/42/21 111/40/20 42/39/20
f 116/18/9 27/17/9 26/43/22 101/44/22
f 44/45/23 122/46/23 113/42/21 43/41/21
f 40/47/24 98/48/24 96/28/14 39/27/14
f 54/49/25 112/50/25 122/46/23 44/45/23
f 101/44/22 26/43/22 32/51/26 100/52/26
f 53/53/27 103/54/27 112/50/25 54/49/25
f 33/55/28 17/56/28 98/48/24 40/47/24
f 56/57/29 104/58/29 103/54/27 53/53/27
f 100/52/26 32/51/26 123/59/30 102/60/30
f 55/61/31 105/62/31 104/58/29 56/57/29
f 34/63/32 21/64/32 17/56/28 33/55/28
f 50/65/33 106/66/33 105/62/31 55/61/31
f 102/60/30 123/59/30 31/67/34 117/68/34
f 49/69/35 107/70/35 106/66/33 50/65/33
f 35/10/5 20/9/5 21/64/32 34/63/32
f 52/71/36 120/72/36 107/70/35 49/69/35
f 119/6/3 37/5/3 38/30/15 97/29/15
f 12/73/37 121/74/37 120/72/36 52/71/36
f 117/68/34 31/67/34 30/4/2 118/3/2
f 25/75/12 92/76/12 121/74/37 12/73/37
f 7/77/23 16/2/23 14/1/23 5/78/23
f 11/78/38 99/79/38 108/80/38
f 17/79/38 21/81/38 15/78/38
f 11/78/38 108/80/38 18/82/38
f 98/80/38 17/79/38 15/78/38
f 11/78/38 18/82/38 109/83/38
f 96/82/38 98/80/38 15/78/38
f 97/83/38 96/82/38 15/78/38
f 11/78/38 109/83/38 110/84/38
f 119/84/38 97/83/38 15/78/38
f 11/78/38 110/84/38 111/85/38
f 118/85/38 119/84/38 15/78/38
f 11/78/38 111/85/38 113/86/38
f 117/86/38 118/85/38 15/78/38
f 2/77/38 11/78/38 113/86/38 122/87/38
f 2/77/38 122/87/38 112/88/38
f 102/87/38 117/86/38 15/78/38 8/77/38
f 2/77/38 112/88/38 103/89/38
f 100/88/38 102/87/38 8/77/38
f 2/77/38 103/89/38 104/90/38
f 101/89/40 100/88/38 8/77/38
f 2/77/38 104/90/38 105/91/38
f 116/90/40 101/89/40 8/77/38
f 2/77/38 105/91/38 106/92/38
f 115/91/40 116/90/40 8/77/38
f 114/92/40 115/91/40 8/77/38
f 2/77/38 106/92/38 107/93/38
f 89/93/40 114/92/40 8/77/38
f 2/77/38 107/93/38 120/94/38
f 90/94/38 89/93/40 8/77/38
f 2/77/38 120/94/38 121/95/38
f 91/95/38 90/94/38 8/77/38
f 2/77/38 121/95/38 92/96/38
f 92/96/38 91/95/38 8/77/38 2/77/38
f 15/78/1 11/78/1 9/1/1 13/1/1
f 6/1/1 14/1/1 16/2/1 8/2/1
f 1/1/41 3/2/41 9/97/41 11/98/41
f 5/77/42 3/2/42 1/1/42 7/78/42
f 2/99/41 10/78/41 1/1/41 11/98/41
f 13/1/43 80/100/43 79/101/43
f 13/1/43 79/101/43 66/102/43
f 77/103/43 80/100/43 13/1/43 9/1/43
f 13/1/43 66/102/43 65/104/43
f 78/105/44 77/103/43 9/1/43
f 13/1/43 65/104/43 68/106/43
f 75/107/44 78/105/44 9/1/43
f 13/1/43 68/106/43 67/108/43
f 76/109/44 75/107/44 9/1/43
f 73/110/44 76/109/44 9/1/43
f 13/1/43 67/108/43 70/111/43
f 74/112/44 73/110/44 9/1/43
f 13/1/43 70/111/43 69/113/43
f 88/114/44 74/112/44 9/1/43
f 13/1/43 69/113/43 72/115/43
f 87/116/43 88/114/44 9/1/43
f 6/2/43 13/1/43 72/115/43 71/117/43
f 6/2/43 71/117/43 59/118/43
f 86/119/43 87/116/43 9/1/43 4/77/43
f 6/2/43 59/118/43 60/120/43
f 85/121/45 86/119/43 4/77/43
f 6/2/43 60/120/43 57/122/43
f 84/123/45 85/121/45 4/77/43
f 6/2/43 57/122/43 58/124/43
f 83/125/45 84/123/45 4/77/43
f 6/2/43 58/124/43 63/126/43
f 82/127/45 83/125/45 4/77/43
f 81/128/45 82/127/45 4/77/43
f 6/2/43 63/126/43 64/129/43
f 95/130/45 81/128/45 4/77/43
f 6/2/43 64/129/43 61/131/43
f 94/132/43 95/130/45 4/77/43
f 6/2/43 61/131/43 62/133/43
f 93/134/43 94/132/43 4/77/43
f 4/77/43 6/2/43 62/133/43 51/135/43
f 51/135/43 93/134/43 4/77/43
f 13/78/41 6/77/41 8/2/41 15/1/41
f 11/78/38 20/136/38 19/81/38
f 11/78/38 19/81/38 99/79/38
f 21/81/38 20/136/38 11/78/38 15/78/38
