# WaveFront *.obj file (generated by CINEMA 4D)

v 2.56076861346583 2.00000000000000 3.00019639529604
v -2.50000000000000 2.00000000000000 2.88019639529604
v 2.56076861346583 2.00000000000000 -2.99999999998836
v -2.50000000000000 2.00000000000000 -2.99999999998836
v 2.56076861346583 -2.06075000000000 -2.99999999998836
v -2.50000000000000 -1.93925000000000 -2.99999999998836
v 2.56076861346583 -2.06075000000000 3.00019639529604
v -2.50000000000000 -1.93925000000000 2.88019639529604
v 2.43925000000000 2.00000000000000 -2.99999999998836
v -2.50000000000000 2.00000000000000 3.00019639529604
v 2.43925000000000 2.00000000000000 2.88019639529604
v 2.43925000000000 -1.93925000000000 -2.99999999998836
v -2.50000000000000 -2.06075000000000 -2.99999999998836
v 2.43925000000000 -1.93925000000000 2.88019639529604
v -2.50000000000000 -2.06075000000000 3.00019639529604
v -0.12312725159724 -1.93925000000000 0.33828934348293
v -0.35453079108440 -1.93925000000000 0.06251334396009
v -0.33828934348293 -1.93925000000000 0.12312725159724
v -0.33828934348293 -2.06075000000000 -0.12312725159724
v 0.27577599952283 -2.06075000000000 -0.23140353948715
v -0.27577599952283 -2.06075000000000 -0.23140353948715
v -0.31176914536240 -2.06075000000000 -0.18000000000000
v -0.18000000000000 -2.06075000000000 -0.31176914536240
v -0.23140353948715 -2.06075000000000 -0.27577599952283
v -0.06251334396009 -2.06075000000000 -0.35453079108440
v -0.12312725159724 -2.06075000000000 -0.33828934348293
v 0.06251334396009 -2.06075000000000 -0.35453079108440
v 0.00000000000000 -2.06075000000000 -0.36000000000000
v 0.18000000000000 -2.06075000000000 -0.31176914536240
v 0.12312725159724 -2.06075000000000 -0.33828934348293
v -0.18000000000000 -2.06075000000000 0.31176914536240
v 0.23140353948715 -2.06075000000000 -0.27577599952283
v -0.06251334396009 -2.06075000000000 0.35453079108440
v -0.12312725159724 -2.06075000000000 0.33828934348293
v -0.23140353948715 -2.06075000000000 0.27577599952283
v 0.00000000000000 -2.06075000000000 0.36000000000000
v -0.35453079108440 -2.06075000000000 -0.06251334396009
v -0.23140353948715 -1.93925000000000 -0.27577599952283
v -0.06251334396009 -1.93925000000000 -0.35453079108440
v 0.00000000000000 -1.93925000000000 -0.36000000000000
v -0.34251796027646 -0.52436634224221 -3.00000000001164
v -0.31566625967943 -0.58195000000000 -3.00000000001164
v -0.36450000000000 -0.39970000000000 -3.00000000001164
v -0.35896242597295 -0.46299476075960 -3.00000000001164
v -0.18225000000000 -0.71536625967942 -3.00000000001164
v -0.12466634224221 -0.74221796027646 -3.00000000001164
v -0.27922319951687 -0.63399608373074 -3.00000000001164
v -0.23429608373074 -0.67892319951687 -3.00000000001164
v 0.12466634224221 -0.74221796027646 -3.00000000001164
v 0.06329476075960 -0.75866242597295 -3.00000000001164
v -0.00000000000000 -0.76420000000000 -3.00000000001164
v -0.06329476075960 -0.75866242597295 -3.00000000001164
v 0.31566625967943 -0.58195000000000 -3.00000000001164
v 0.27922319951687 -0.63399608373074 -3.00000000001164
v 0.23429608373074 -0.67892319951687 -3.00000000001164
v 0.18225000000000 -0.71536625967942 -3.00000000001164
v 0.35896242597295 -0.33640523924040 -3.00000000001164
v 0.36450000000000 -0.39970000000000 -3.00000000001164
v 0.35896242597295 -0.46299476075960 -3.00000000001164
v 0.34251796027646 -0.52436634224221 -3.00000000001164
v 0.23429608373074 -0.12047680048313 -3.00000000001164
v 0.27922319951687 -0.16540391626926 -3.00000000001164
v 0.31566625967943 -0.21745000000000 -3.00000000001164
v 0.34251796027646 -0.27503365775779 -3.00000000001164
v -0.06329476075960 -0.04073757402704 -3.00000000001164
v -0.12466634224221 -0.05718203972354 -3.00000000001164
v -0.18225000000000 -0.08403374032057 -3.00000000001164
v -0.23429608373074 -0.12047680048313 -3.00000000001164
v 0.18225000000000 -0.08403374032057 -3.00000000001164
v 0.12466634224221 -0.05718203972354 -3.00000000001164
v 0.06329476075960 -0.04073757402705 -3.00000000001164
v -0.00000000000000 -0.03520000000000 -3.00000000001164
v -0.18000000000000 -1.93925000000000 0.31176914536240
v -0.23140353948715 -1.93925000000000 0.27577599952283
v -0.27577599952283 -1.93925000000000 0.23140353948715
v -0.31176914536240 -1.93925000000000 0.18000000000000
v -0.27922319951687 -0.16540391626926 -3.00000000001164
v -0.31566625967943 -0.21745000000000 -3.00000000001164
v -0.34251796027646 -0.27503365775779 -3.00000000001164
v -0.35896242597295 -0.33640523924040 -3.00000000001164
v -0.35453079108440 -1.93925000000000 -0.06251334396009
v -0.36000000000000 -1.93925000000000 0.00000000000000
v -0.31176914536240 -1.93925000000000 -0.18000000000000
v -0.33828934348293 -1.93925000000000 -0.12312725159724
v -0.27577599952283 -1.93925000000000 -0.23140353948716
v -0.18000000000000 -1.93925000000000 -0.31176914536240
v 0.06251334396009 -1.93925000000000 -0.35453079108440
v 0.12312725159724 -1.93925000000000 -0.33828934348293
v 0.18000000000000 -1.93925000000000 -0.31176914536240
v 0.31176914536240 -1.93925000000000 -0.18000000000000
v 0.33828934348293 -1.93925000000000 -0.12312725159724
v 0.35453079108440 -1.93925000000000 -0.06251334396009
v 0.36000000000000 -1.93925000000000 -0.00000000000000
v 0.31176914536240 -1.93925000000000 0.18000000000000
v 0.27577599952283 -1.93925000000000 0.23140353948715
v 0.23140353948715 -1.93925000000000 -0.27577599952283
v 0.27577599952283 -1.93925000000000 -0.23140353948715
v 0.35453079108440 -1.93925000000000 0.06251334396009
v 0.33828934348293 -1.93925000000000 0.12312725159724
v 0.31176914536240 -2.06075000000000 -0.18000000000000
v 0.33828934348293 -2.06075000000000 -0.12312725159724
v 0.35453079108440 -2.06075000000000 -0.06251334396009
v 0.36000000000000 -2.06075000000000 -0.00000000000000
v 0.35453079108440 -2.06075000000000 0.06251334396009
v 0.33828934348293 -2.06075000000000 0.12312725159724
v 0.31176914536240 -2.06075000000000 0.18000000000000
v 0.27577599952283 -2.06075000000000 0.23140353948715
v 0.23140353948715 -2.06075000000000 0.27577599952283
v 0.18000000000000 -2.06075000000000 0.31176914536240
v 0.12312725159724 -2.06075000000000 0.33828934348293
v 0.06251334396009 -2.06075000000000 0.35453079108440
v 0.00000000000000 -1.93925000000000 0.36000000000000
v -0.06251334396009 -1.93925000000000 0.35453079108440
v -0.27577599952283 -2.06075000000000 0.23140353948715
v -0.31176914536240 -2.06075000000000 0.18000000000000
v -0.33828934348293 -2.06075000000000 0.12312725159724
v -0.35453079108440 -2.06075000000000 0.06251334396009
v -0.36000000000000 -2.06075000000000 0.00000000000000
v 0.23140353948715 -1.93925000000000 0.27577599952283
v -0.12312725159724 -1.93925000000000 -0.33828934348293
v 0.18000000000000 -1.93925000000000 0.31176914536240
v 0.12312725159724 -1.93925000000000 0.33828934348293
v 0.06251334396009 -1.93925000000000 0.35453079108440
# 123 vertices

vn -1.00000000000000 0.00000000000000 0.00000000000000
vn -0.98480774016389 0.00000000000000 0.17364825053333
vn -0.98480774016389 0.00000000000000 -0.17364825053333
vn -0.93969268389770 0.00000000000000 -0.34201996992739
vn -0.86602537408896 0.00000000000000 -0.50000005143407
vn -0.50000005143407 0.00000000000000 0.86602537408896
vn -0.34201996992739 0.00000000000000 0.93969268389770
vn -0.64278775033583 0.00000000000000 0.76604432510019
vn -0.76604432510019 0.00000000000000 0.64278775033583
vn -0.76604432510019 0.00000000000000 -0.64278775033583
vn -0.64278775033583 0.00000000000000 -0.76604432510019
vn -0.50000005143407 0.00000000000000 -0.86602537408896
vn -0.34201996992739 0.00000000000000 -0.93969268389770
vn -0.17364825053333 0.00000000000000 -0.98480774016389
vn -0.86602537408896 0.00000000000000 0.50000005143407
vn -0.93969268389770 0.00000000000000 0.34201996992739
vn 0.00000000000000 0.00000000000000 -1.00000000000000
vn -0.17364825053333 0.00000000000000 0.98480774016389
vn 0.00000000000000 0.00000000000000 1.00000000000000
vn 0.17364825053333 0.00000000000000 -0.98480774016389
vn 0.34201996992739 0.00000000000000 -0.93969268389770
vn 0.50000005143407 0.00000000000000 -0.86602537408896
vn 0.64278775033583 0.00000000000000 -0.76604432510019
vn 0.64278775033583 0.00000000000000 0.76604432510019
vn 0.76604432510019 0.00000000000000 0.64278775033583
vn 0.76604432510019 0.00000000000000 -0.64278775033583
vn 0.50000005143407 0.00000000000000 0.86602537408896
vn 0.86602537408896 0.00000000000000 -0.50000005143407
vn 0.34201996992739 0.00000000000000 0.93969268389770
vn 0.17364825053333 0.00000000000000 0.98480774016389
vn 0.93969268389770 0.00000000000000 -0.34201996992739
vn 0.98480774016389 0.00000000000000 -0.17364825053333
vn 1.00000000000000 0.00000000000000 0.00000000000000
vn 0.98480774016389 0.00000000000000 0.17364825053333
vn 0.93969268389770 0.00000000000000 0.34201996992739
vn 0.86602537408896 0.00000000000000 0.50000005143407
vn 0.00000000000000 1.00000000000000 0.00000000000000
vn 0.00000000000000 0.00000000000000 0.00000000000000
vn 0.00000000000000 1.00000000000000 -0.00000000000000
vn -0.00000000000000 1.00000000000000 0.00000000000000
vn -0.00000000000000 0.00000000000000 1.00000000000000
vn 0.00000000000000 -0.00000000000000 1.00000000000000
# 42 normals

vt 0.00000000000000 -0.00000000000000 0.00000000000000
vt 1.00000000000000 -0.00000000000000 0.00000000000000
vt 0.75000000000000 -0.02272727340460 0.00000000000000
vt 0.75000000000000 -0.04545454680920 0.00000000000000
vt 0.72222220897675 -0.04545454680920 0.00000000000000
vt 0.72222220897675 -0.02272727340460 0.00000000000000
vt 0.77777779102325 -0.02272727340460 0.00000000000000
vt 0.77777779102325 -0.04545454680920 0.00000000000000
vt 0.80555558204651 -0.02272727340460 0.00000000000000
vt 0.80555558204651 -0.04545454680920 0.00000000000000
vt 0.83333331346512 -0.02272727340460 0.00000000000000
vt 0.83333331346512 -0.04545454680920 0.00000000000000
vt 0.58333331346512 -0.02272727340460 0.00000000000000
vt 0.58333331346512 -0.04545454680920 0.00000000000000
vt 0.55555558204651 -0.04545454680920 0.00000000000000
vt 0.55555558204651 -0.02272727340460 0.00000000000000
vt 0.61111110448837 -0.02272727340460 0.00000000000000
vt 0.61111110448837 -0.04545454680920 0.00000000000000
vt 0.63888889551163 -0.02272727340460 0.00000000000000
vt 0.63888889551163 -0.04545454680920 0.00000000000000
vt 0.86111110448837 -0.02272727340460 0.00000000000000
vt 0.86111110448837 -0.04545454680920 0.00000000000000
vt 0.88888889551163 -0.02272727340460 0.00000000000000
vt 0.88888889551163 -0.04545454680920 0.00000000000000
vt 0.91666668653488 -0.02272727340460 0.00000000000000
vt 0.91666668653488 -0.04545454680920 0.00000000000000
vt 0.94444441795349 -0.02272727340460 0.00000000000000
vt 0.94444441795349 -0.04545454680920 0.00000000000000
vt 0.97222220897675 -0.02272727340460 0.00000000000000
vt 0.97222220897675 -0.04545454680920 0.00000000000000
vt 0.66666668653488 -0.02272727340460 0.00000000000000
vt 0.66666668653488 -0.04545454680920 0.00000000000000
vt 0.69444441795349 -0.02272727340460 0.00000000000000
vt 0.69444441795349 -0.04545454680920 0.00000000000000
vt 1.00000000000000 -0.02272727340460 0.00000000000000
vt 1.00000000000000 -0.04545454680920 0.00000000000000
vt 0.52777779102325 -0.02272727340460 0.00000000000000
vt 0.52777779102325 -0.04545454680920 0.00000000000000
vt 0.50000000000000 -0.04545454680920 0.00000000000000
vt 0.50000000000000 -0.02272727340460 0.00000000000000
vt 0.02777777798474 -0.02272727340460 0.00000000000000
vt 0.02777777798474 -0.04545454680920 0.00000000000000
vt 0.00000000000000 -0.04545454680920 0.00000000000000
vt 0.00000000000000 -0.02272727340460 0.00000000000000
vt 0.05555555596948 -0.02272727340460 0.00000000000000
vt 0.05555555596948 -0.04545454680920 0.00000000000000
vt 0.08333333581686 -0.02272727340460 0.00000000000000
vt 0.08333333581686 -0.04545454680920 0.00000000000000
vt 0.11111111193895 -0.02272727340460 0.00000000000000
vt 0.11111111193895 -0.04545454680920 0.00000000000000
vt 0.38888889551163 -0.02272727340460 0.00000000000000
vt 0.38888889551163 -0.04545454680920 0.00000000000000
vt 0.36111110448837 -0.04545454680920 0.00000000000000
vt 0.36111110448837 -0.02272727340460 0.00000000000000
vt 0.13888889551163 -0.02272727340460 0.00000000000000
vt 0.13888889551163 -0.04545454680920 0.00000000000000
vt 0.41666665673256 -0.02272727340460 0.00000000000000
vt 0.41666665673256 -0.04545454680920 0.00000000000000
vt 0.16666667163372 -0.02272727340460 0.00000000000000
vt 0.16666667163372 -0.04545454680920 0.00000000000000
vt 0.44444444775581 -0.02272727340460 0.00000000000000
vt 0.44444444775581 -0.04545454680920 0.00000000000000
vt 0.47222220897675 -0.02272727340460 0.00000000000000
vt 0.47222220897675 -0.04545454680920 0.00000000000000
vt 0.19444444775581 -0.02272727340460 0.00000000000000
vt 0.19444444775581 -0.04545454680920 0.00000000000000
vt 0.22222222387791 -0.02272727340460 0.00000000000000
vt 0.22222222387791 -0.04545454680920 0.00000000000000
vt 0.25000000000000 -0.02272727340460 0.00000000000000
vt 0.25000000000000 -0.04545454680920 0.00000000000000
vt 0.27777779102325 -0.02272727340460 0.00000000000000
vt 0.27777779102325 -0.04545454680920 0.00000000000000
vt 0.30555555224419 -0.02272727340460 0.00000000000000
vt 0.30555555224419 -0.04545454680920 0.00000000000000
vt 0.33333334326744 -0.02272727340460 0.00000000000000
vt 0.33333334326744 -0.04545454680920 0.00000000000000
vt 0.50051087141037 -0.42613941431046 0.00000000000000
vt 0.51283073425293 -0.42952305078506 0.00000000000000
vt 0.44077163934708 -0.44254666566849 0.00000000000000
vt 0.45121949911118 -0.43504810333252 0.00000000000000
vt 0.52439022064209 -0.43504810333252 0.00000000000000
vt 0.43175283074379 -0.45179092884064 0.00000000000000
vt 0.53483814001083 -0.44254666566849 0.00000000000000
vt 0.54385691881180 -0.45179092884064 0.00000000000000
vt 0.42443716526031 -0.46249997615814 0.00000000000000
vt 0.55117261409760 -0.46249997615814 0.00000000000000
vt 0.41904687881470 -0.47434848546982 0.00000000000000
vt 0.55656290054321 -0.47434848546982 0.00000000000000
vt 0.41574576497078 -0.48697638511658 0.00000000000000
vt 0.55986398458481 -0.48697638511658 0.00000000000000
vt 0.41463413834572 -0.50000000000000 0.00000000000000
vt 0.56097561120987 -0.50000000000000 0.00000000000000
vt 0.41574576497078 -0.51302361488342 0.00000000000000
vt 0.00000000000000 -1.00000000000000 0.00000000000000
vt 0.41904687881470 -0.52565145492554 0.00000000000000
vt 1.00000000000000 -1.00000000000000 0.00000000000000
vt 0.55986398458481 -0.51302361488342 0.00000000000000
vt 0.42443716526031 -0.53750002384186 0.00000000000000
vt 0.55656290054321 -0.52565145492554 0.00000000000000
vt 0.43175283074379 -0.54820907115936 0.00000000000000
vt 0.55117261409760 -0.53750002384186 0.00000000000000
vt 0.44077163934708 -0.55745327472687 0.00000000000000
vt 0.54385691881180 -0.54820907115936 0.00000000000000
vt 0.53483814001083 -0.55745327472687 0.00000000000000
vt 0.45121949911118 -0.56495189666748 0.00000000000000
vt 0.52439022064209 -0.56495189666748 0.00000000000000
vt 0.46277901530266 -0.57047688961029 0.00000000000000
vt 0.51283073425293 -0.57047688961029 0.00000000000000
vt 0.47509890794754 -0.57386052608490 0.00000000000000
vt 0.50051087141037 -0.57386052608490 0.00000000000000
vt 0.48780488967896 -0.57499992847443 0.00000000000000
vt 0.97619044780731 -0.02380952239037 0.00000000000000
vt 0.02380952425301 -0.02380952239037 0.00000000000000
vt 0.02380952425301 -1.00000000000000 0.00000000000000
vt 0.41463413834572 -0.20226055383682 0.00000000000000
vt 0.41574576497078 -0.19752034544945 0.00000000000000
vt 0.41904687881470 -0.19392609596252 0.00000000000000
vt 0.41574576497078 -0.20808526873589 0.00000000000000
vt 0.42443716526031 -0.19151431322098 0.00000000000000
vt 0.41904687881470 -0.21490010619164 0.00000000000000
vt 0.43175283074379 -0.19030439853668 0.00000000000000
vt 0.42443716526031 -0.22257068753242 0.00000000000000
vt 0.44077163934708 -0.19030439853668 0.00000000000000
vt 0.43175283074379 -0.23091787099838 0.00000000000000
vt 0.44077163934708 -0.23971670866013 0.00000000000000
vt 0.45121949911118 -0.19151431322098 0.00000000000000
vt 0.45121949911118 -0.24869981408119 0.00000000000000
vt 0.46277901530266 -0.19392609596252 0.00000000000000
vt 0.46277901530266 -0.25756561756134 0.00000000000000
vt 0.47509890794754 -0.19752034544945 0.00000000000000
vt 0.47509890794754 -0.26599073410034 0.00000000000000
vt 0.48780488967896 -0.20226055383682 0.00000000000000
vt 0.50051087141037 -0.20808526873589 0.00000000000000
vt 0.48780488967896 -0.27364665269852 0.00000000000000
vt 0.51283073425293 -0.21490010619164 0.00000000000000
vt 0.50051087141037 -0.28021800518036 0.00000000000000
vt 0.52439022064209 -0.22257068753242 0.00000000000000
vt 0.51283073425293 -0.28542256355286 0.00000000000000
vt 0.53483814001083 -0.23091787099838 0.00000000000000
vt 0.52439022064209 -0.28902953863144 0.00000000000000
vt 0.54385691881180 -0.23971670866013 0.00000000000000
vt 0.53483814001083 -0.29087537527084 0.00000000000000
vt 0.54385691881180 -0.29087537527084 0.00000000000000
vt 0.55117261409760 -0.24869981408119 0.00000000000000
vt 0.55117261409760 -0.28902953863144 0.00000000000000
vt 0.55656290054321 -0.25756561756134 0.00000000000000
vt 0.55656290054321 -0.28542256355286 0.00000000000000
vt 0.55986398458481 -0.26599073410034 0.00000000000000
vt 0.55986398458481 -0.28021800518036 0.00000000000000
vt 0.56097561120987 -0.27364665269852 0.00000000000000
vt 0.47509890794754 -0.42613941431046 0.00000000000000
vt 0.48780488967896 -0.42500001192093 0.00000000000000
vt 0.46277901530266 -0.42952305078506 0.00000000000000
# 153 texture coordinates

o HV:Corner:Room
usemtl default
f 8/1/1 15/1/1 10/2/1 2/2/1
f 103/3/1 93/4/1 92/5/2 102/6/2
f 104/7/3 98/8/3 93/4/1 103/3/1
f 105/9/4 99/10/4 98/8/3 104/7/3
f 106/11/5 94/12/5 99/10/4 105/9/4
f 29/13/6 89/14/6 88/15/7 30/16/7
f 32/17/8 96/18/8 89/14/6 29/13/6
f 20/19/9 97/20/9 96/18/8 32/17/8
f 107/21/10 95/22/10 94/12/5 106/11/5
f 108/23/11 119/24/11 95/22/10 107/21/10
f 109/25/12 121/26/12 119/24/11 108/23/11
f 110/27/13 122/28/13 121/26/12 109/25/12
f 111/29/14 123/30/14 122/28/13 110/27/13
f 100/31/15 90/32/15 97/20/9 20/19/9
f 101/33/16 91/34/16 90/32/15 100/31/15
f 36/35/17 112/36/17 123/30/14 111/29/14
f 102/6/2 92/5/2 91/34/16 101/33/16
f 27/37/18 87/38/18 40/39/19 28/40/19
f 33/41/20 113/42/20 112/43/17 36/44/17
f 34/45/21 16/46/21 113/42/20 33/41/20
f 31/47/22 73/48/22 16/46/21 34/45/21
f 30/16/7 88/15/7 87/38/18 27/37/18
f 35/49/23 74/50/23 73/48/22 31/47/22
f 24/51/24 38/52/24 85/53/25 21/54/25
f 114/55/26 75/56/26 74/50/23 35/49/23
f 23/57/27 86/58/27 38/52/24 24/51/24
f 75/56/26 114/55/26 115/59/28 76/60/28
f 26/61/29 120/62/29 86/58/27 23/57/27
f 25/63/30 39/64/30 120/62/29 26/61/29
f 76/60/28 115/59/28 116/65/31 18/66/31
f 28/40/19 40/39/19 39/64/30 25/63/30
f 18/66/31 116/65/31 117/67/32 17/68/32
f 17/68/32 117/67/32 118/69/33 82/70/33
f 82/70/33 118/69/33 37/71/34 81/72/34
f 81/72/34 37/71/34 19/73/35 84/74/35
f 84/74/35 19/73/35 22/75/36 83/76/36
f 83/76/36 22/75/36 21/54/25 85/53/25
f 8/2/37 113/77/37 16/78/37
f 119/79/37 121/80/37 14/1/37
f 8/2/37 16/78/37 73/81/37
f 95/82/39 119/79/37 14/1/37
f 8/2/37 73/81/37 74/83/37
f 8/2/37 74/83/37 75/84/37
f 94/85/39 95/82/39 14/1/37
f 8/2/37 75/84/37 76/86/37
f 99/87/39 94/85/39 14/1/37
f 8/2/37 76/86/37 18/88/37
f 98/89/37 99/87/39 14/1/37
f 8/2/37 18/88/37 17/90/37
f 93/91/37 98/89/37 14/1/37
f 8/2/37 17/90/37 82/92/37
f 92/93/37 93/91/37 14/1/37 12/94/37
f 91/95/37 92/93/37 12/94/37
f 6/96/37 8/2/37 82/92/37 81/97/37
f 90/98/37 91/95/37 12/94/37
f 6/96/37 81/97/37 84/99/37
f 97/100/40 90/98/37 12/94/37
f 6/96/37 84/99/37 83/101/37
f 96/102/40 97/100/40 12/94/37
f 6/96/37 83/101/37 85/103/37
f 6/96/37 85/103/37 38/104/37
f 89/105/40 96/102/40 12/94/37
f 6/96/37 38/104/37 86/106/37
f 88/107/40 89/105/40 12/94/37
f 6/96/37 86/106/37 120/108/37
f 87/109/37 88/107/40 12/94/37
f 6/96/37 120/108/37 39/110/37
f 6/96/37 39/110/37 40/111/37
f 40/111/37 87/109/37 12/94/37 6/96/37
f 14/94/17 8/96/17 2/96/17 11/94/17
f 14/94/1 11/94/1 9/1/1 12/1/1
f 6/1/1 13/1/1 15/2/1 8/2/1
f 1/1/37 3/2/37 9/112/37 11/113/37
f 1/96/19 10/2/19 15/1/19 7/94/19
f 5/96/33 3/2/33 1/1/33 7/94/33
f 2/114/37 10/94/37 1/1/37 11/113/37
f 12/1/19 58/115/19 59/116/19
f 12/1/19 59/116/19 60/117/19
f 57/118/19 58/115/19 12/1/19 9/1/19
f 12/1/19 60/117/19 53/119/19
f 64/120/41 57/118/19 9/1/19
f 12/1/19 53/119/19 54/121/19
f 63/122/41 64/120/41 9/1/19
f 12/1/19 54/121/19 55/123/19
f 62/124/41 63/122/41 9/1/19
f 61/125/41 62/124/41 9/1/19
f 12/1/19 55/123/19 56/126/19
f 69/127/41 61/125/41 9/1/19
f 12/1/19 56/126/19 49/128/19
f 70/129/41 69/127/41 9/1/19
f 12/1/19 49/128/19 50/130/19
f 71/131/19 70/129/41 9/1/19
f 6/2/19 12/1/19 50/130/19 51/132/19
f 6/2/19 51/132/19 52/133/19
f 72/134/19 71/131/19 9/1/19 4/96/19
f 6/2/19 52/133/19 46/135/19
f 65/136/42 72/134/19 4/96/19
f 6/2/19 46/135/19 45/137/19
f 66/138/42 65/136/42 4/96/19
f 6/2/19 45/137/19 48/139/19
f 67/140/42 66/138/42 4/96/19
f 6/2/19 48/139/19 47/141/19
f 68/142/42 67/140/42 4/96/19
f 77/143/42 68/142/42 4/96/19
f 6/2/19 47/141/19 42/144/19
f 78/145/42 77/143/42 4/96/19
f 6/2/19 42/144/19 41/146/19
f 79/147/19 78/145/42 4/96/19
f 6/2/19 41/146/19 44/148/19
f 80/149/19 79/147/19 4/96/19
f 4/96/19 6/2/19 44/148/19 43/150/19
f 43/150/19 80/149/19 4/96/19
f 123/151/37 112/152/37 14/1/37
f 113/77/37 8/2/37 14/1/37 112/152/37
f 122/153/37 123/151/37 14/1/37
f 121/80/37 122/153/37 14/1/37
