    <svg xmlns="http://www.w3.org/2000/svg" viewBox="249.3 209.7 294.5 192.6"><path fill="#FF0" d="M321.7 340.2c.3 1.8.5 3.8.5 6 0 7.6-2.1 17.2-8.9 23.9-6.6 6.9-15 10.5-26.1 10.5-20.6 0-37.9-16.8-37.9-37.4s17.3-37.4 37.9-37.4c11.4 0 19.5 4.5 25.7 10.3l-7.2 7.2c-4.4-4.1-10.3-7.3-18.5-7.3-15.1 0-26.8 12.1-26.8 27.2s11.7 27.2 26.8 27.2c9.7 0 15.3-3.9 18.9-7.5 2.9-2.9 4.8-7 5.5-12.5h-24.4v-10.2h34.5zm52.8 16.3c0 13.8-10.8 24.1-24.1 24.1s-24-10.2-24-24.1c0-14 10.8-24.1 24-24.1 13.4.1 24.1 10.2 24.1 24.1zm-10.5 0c0-8.7-6.3-14.6-13.5-14.6-7.3 0-13.5 6-13.5 14.6s6.3 14.6 13.5 14.6c7.3 0 13.5-6 13.5-14.6zm62.8 0c0 13.8-10.8 24.1-24.1 24.1s-24.1-10.2-24.1-24.1c0-14 10.8-24.1 24.1-24.1 13.3.1 24.1 10.2 24.1 24.1zm-10.5 0c0-8.7-6.3-14.6-13.5-14.6s-13.5 6-13.5 14.6 6.3 14.6 13.5 14.6 13.5-6 13.5-14.6zm60.6-22.6v43.3c0 17.8-10.5 25.1-22.9 25.1-11.7 0-18.7-7.9-21.3-14.2l9.2-3.9c1.6 3.9 5.6 8.6 12.1 8.6 8 0 12.8-4.9 12.8-14.1v-3.5h-.4c-2.4 2.9-7 5.5-12.7 5.5-12.1 0-23-10.5-23-24 0-13.6 11-24.2 23-24.2 5.7 0 10.3 2.5 12.7 5.4h.4V334h10.1zm-9.3 22.7c0-8.5-5.9-14.7-13.1-14.7s-13.1 6.2-13.1 14.7c0 8.4 5.8 14.5 13.1 14.5 7.2 0 13.1-6.1 13.1-14.5zm26.8-47.7v70.3H484v-70.3h10.4zm40.7 55.6l8.2 5.5c-2.6 3.9-9 10.7-20.1 10.7-13.7 0-23.9-10.6-23.9-24.1 0-14.3 10.3-24.1 22.7-24.1 12.5 0 18.6 10 20.6 15.3l1.1 2.7-32.2 13.3c2.5 4.9 6.3 7.3 11.7 7.3 5.4 0 9.2-2.6 11.9-6.6zm-25.3-8.7l21.6-9c-1.2-3-4.7-5.1-9-5.1-5.4.1-12.9 4.8-12.6 14.1zM253.7 211.1l9.5 22.6 9.5-22.6h2.9v25.7h-2.2v-11.1l.2-11.4-9.6 22.6h-1.6l-9.5-22.6.2 11.4v11.2h-2.2v-25.7l2.8-.1zm39.8 25.7c-.2-.3-.2-.7-.3-1.2-.1-.5-.1-.9-.2-1.5-.3.4-.7.8-1.2 1.2-.5.4-.9.7-1.5.9-.5.3-1.2.5-1.8.6-.6.2-1.3.2-2.1.2-.9 0-1.8-.2-2.6-.4s-1.4-.6-1.9-1.2c-.5-.5-.9-1.1-1.2-1.7-.3-.7-.5-1.4-.5-2.2 0-.9.2-1.8.6-2.5.4-.8 1-1.4 1.7-1.9.8-.5 1.7-.9 2.7-1.2 1.1-.3 2.3-.4 3.6-.4h3.9v-2.2c0-1.4-.4-2.5-1.2-3.2-.9-.8-2.1-1.2-3.7-1.2-.8 0-1.4.1-2 .3-.6.2-1.2.5-1.6.9-.5.4-.8.8-1.1 1.2-.2.5-.4.9-.4 1.5h-2.1c0-.7.2-1.4.5-2.1.4-.7.9-1.2 1.5-1.8.6-.5 1.4-.9 2.3-1.2.9-.3 1.9-.5 3-.5 1 0 1.9.2 2.8.4.9.2 1.6.6 2.2 1.2.6.5 1.1 1.2 1.4 1.9.3.8.5 1.7.5 2.7v10.3c0 .4.1.7.1 1 .1.3.1.6.2.9.1.3.2.5.2.8v.2h-2l.2.2zm-6.7-1.5c.8 0 1.5-.1 2.2-.3.6-.2 1.2-.5 1.8-.8.5-.3 1-.8 1.4-1.2.4-.5.7-.9.9-1.5v-4.2h-3.6c-1.1 0-2.1.1-2.9.3s-1.5.5-2.2.9c-.6.4-1 .8-1.3 1.3-.3.5-.5 1.1-.5 1.8 0 .5.1 1 .3 1.5.2.5.5.9.9 1.2.4.3.9.6 1.3.8.5.1 1 .2 1.7.2zm12.9-8.2c0-1.5.2-2.8.5-4 .3-1.2.9-2.2 1.5-3.1.6-.9 1.4-1.5 2.3-1.9s1.9-.7 3.1-.7c1.3 0 2.6.3 3.5.9 1 .5 1.8 1.3 2.4 2.2v-10.7h2.1v27.1h-2l-.1-2.5c-.6.9-1.5 1.6-2.4 2.2-1 .5-2.2.8-3.6.8-1.2 0-2.2-.2-3-.7-.9-.5-1.7-1.2-2.3-2-.6-.9-1.2-1.9-1.5-3.1-.3-1.2-.5-2.5-.5-3.9v-.6zm2.2.4c0 1.1.1 2.2.3 3.1.2.9.5 1.8 1 2.5s1 1.2 1.7 1.6c.7.4 1.5.6 2.5.6.7 0 1.4-.1 1.9-.2.6-.2 1.1-.4 1.5-.7.5-.3.9-.7 1.2-1.1s.6-.9.9-1.4v-9c-.2-.5-.5-.9-.8-1.4-.3-.5-.7-.9-1.2-1.2-.5-.3-.9-.6-1.5-.9-.6-.2-1.2-.3-2-.3-1 0-1.9.2-2.5.6s-1.3.9-1.8 1.7c-.5.7-.8 1.5-1 2.5s-.3 2-.3 3.1v.4l.1.1zm25.9 9.6c-1.2 0-2.4-.2-3.5-.7-1.1-.5-1.9-1.1-2.7-1.9s-1.3-1.8-1.8-2.9c-.4-1.2-.6-2.4-.6-3.8v-.8c0-1.5.2-2.8.7-4 .5-1.2 1-2.2 1.8-3 .8-.9 1.6-1.5 2.6-1.9 1-.5 2-.7 3.1-.7 1.2 0 2.3.2 3.2.6.9.5 1.7 1 2.4 1.9.6.8 1.2 1.7 1.5 2.8s.5 2.2.5 3.5v1.3h-13.6v.4c0 1.1.2 2 .5 2.9.3.9.8 1.7 1.3 2.4s1.2 1.2 2.1 1.6c.8.4 1.7.6 2.6.6 1.2 0 2.2-.2 3-.6.9-.4 1.6-1.1 2.3-2l1.3 1c-.3.5-.7.9-1.1 1.3-.4.4-.9.8-1.5 1.1-.5.3-1.2.5-1.9.7-.5.2-1.3.2-2.2.2zm-.3-17.9c-.8 0-1.5.2-2.2.5-.7.3-1.3.8-1.8 1.3s-.9 1.2-1.3 2c-.3.8-.5 1.7-.7 2.6h11.4v-.2c0-.8-.2-1.5-.4-2.3-.2-.8-.5-1.4-1-2-.5-.5-1-1-1.7-1.4-.6-.3-1.4-.5-2.3-.5zm24.6 13.2l.3 1.6.4-1.7 4.6-14.6h1.8l4.6 14.5.5 2 .4-1.9 3.9-14.6h2.2l-5.6 19.1h-1.8l-4.9-15.1-.2-1-.2 1.1-4.8 15.1h-1.8l-5.6-19.1h2.2l4 14.6zm22.3-20.2c0-.4.2-.8.4-1 .2-.3.6-.4 1.1-.4.5 0 .8.2 1.1.4.2.3.4.6.4 1s-.2.8-.4 1c-.2.3-.6.4-1.1.4-.5 0-.8-.2-1.1-.4-.2-.2-.4-.5-.4-1zm2.6 24.6h-2.1v-19.1h2.1v19.1zm8.8-23.9v4.9h3.9v1.7h-3.9v12.8c0 .7.1 1.2.2 1.6s.3.7.5.9c.2.2.5.4.8.5.3.1.6.1.9.1.3 0 .6 0 .9-.1.3-.1.5-.1.8-.1l.1 1.7c-.2.1-.6.2-1 .2-.4.1-.9.1-1.2.1-.6 0-1.2-.1-1.7-.2-.5-.2-.9-.5-1.3-.9s-.6-.9-.8-1.5c-.2-.6-.3-1.5-.3-2.4v-12.7h-3.5v-1.7h3.5v-4.9h2.1zm10.3 8.1c.3-.5.7-1 1.2-1.5s.9-.9 1.5-1.2 1.1-.5 1.7-.7c.6-.2 1.2-.2 1.9-.2.9 0 1.8.2 2.5.4.8.2 1.4.7 1.9 1.2s.9 1.3 1.2 2.2c.3.9.4 1.9.4 3.2v12.4h-2.1v-12.4c0-1-.1-1.8-.3-2.5-.2-.7-.5-1.2-.9-1.6-.4-.4-.9-.7-1.4-.9-.5-.2-1.2-.2-1.9-.2-.8 0-1.5.2-2 .4-.6.2-1.2.6-1.6 1-.5.4-.9.9-1.2 1.5-.3.5-.6 1.1-.9 1.7v13.1H394v-27.1h2.1V221zm-134.3 54.3c0-.4-.1-.8-.2-1.2-.2-.4-.4-.8-.8-1.1-.4-.3-.9-.7-1.5-1-.7-.3-1.5-.5-2.5-.8-1.1-.2-2-.5-2.9-.8-.9-.3-1.5-.6-2.1-1.1-.5-.4-1-.9-1.3-1.5-.3-.5-.5-1.2-.5-2 0-.7.2-1.4.5-2 .3-.6.8-1.2 1.3-1.6.6-.5 1.3-.9 2.1-1.1.8-.3 1.8-.4 2.8-.4 1.1 0 2.1.2 2.9.5s1.6.7 2.2 1.2c.6.5 1.1 1.1 1.4 1.8.3.7.5 1.5.5 2.2h-2.1c0-.5-.1-1-.3-1.5-.2-.5-.5-.9-.9-1.2-.4-.4-.9-.6-1.5-.9-.6-.2-1.3-.3-2.1-.3s-1.5.1-2.1.3c-.6.2-1.1.5-1.5.8s-.6.7-.8 1.1c-.2.4-.2.8-.2 1.2 0 .4.1.8.2 1.2.2.3.4.7.8 1 .4.3.8.5 1.5.8.7.2 1.5.5 2.6.8 1.2.3 2.2.5 3 .9.9.3 1.5.7 2.1 1.2.5.5.9 1 1.2 1.5.2.6.4 1.2.4 2s-.2 1.5-.5 2.2c-.3.6-.8 1.2-1.4 1.7-.6.5-1.4.9-2.2 1.1-.8.2-1.9.4-2.9.4-1.2 0-2.3-.2-3.2-.5-.9-.3-1.7-.7-2.3-1.2s-1.1-1.2-1.5-1.9c-.3-.7-.5-1.4-.5-2.2h2.1c.1.8.2 1.4.6 1.9.3.5.8.9 1.2 1.2.5.3 1.1.5 1.7.6.6.2 1.2.2 1.9.2.8 0 1.5-.1 2.1-.3.6-.2 1.2-.5 1.5-.8s.7-.7.9-1.1c.1-.4.3-.8.3-1.3zm5.5-4.9c0-1.4.2-2.7.6-3.9.4-1.2 1-2.2 1.7-3 .8-.9 1.6-1.5 2.7-2s2.2-.7 3.5-.7c1.3 0 2.5.2 3.6.7 1.1.5 1.9 1.2 2.7 2s1.3 1.9 1.7 3c.4 1.2.6 2.5.6 3.9v.6c0 1.4-.2 2.7-.6 3.9-.4 1.2-1 2.2-1.7 3-.8.9-1.6 1.5-2.7 2s-2.2.7-3.5.7c-1.3 0-2.5-.2-3.5-.7-1.1-.5-1.9-1.2-2.7-2s-1.3-1.9-1.7-3c-.4-1.2-.6-2.5-.6-3.9l-.1-.6zm2.1.5c0 1.1.2 2 .4 3 .3.9.7 1.8 1.2 2.5s1.2 1.3 2 1.7 1.7.6 2.8.6c1 0 1.9-.2 2.7-.6s1.5-1 2-1.7.9-1.5 1.2-2.5c.3-.9.4-1.9.4-3v-.6c0-1-.2-2-.4-2.9-.3-.9-.7-1.8-1.2-2.5s-1.2-1.3-2-1.7c-.8-.5-1.7-.6-2.8-.6-1 0-1.9.2-2.7.6-.8.5-1.5 1-2 1.7s-.9 1.5-1.2 2.5c-.3.9-.4 1.9-.4 2.9v.6zm21-9.8l.1 3.1c.3-.5.7-1 1.1-1.4.4-.5.9-.8 1.4-1.1.5-.3 1.1-.5 1.7-.7.6-.2 1.2-.2 2-.2 1.4 0 2.6.3 3.6.9 1 .6 1.7 1.5 2.2 2.9.3-.5.7-1 1.1-1.5.5-.5.9-.9 1.5-1.2.5-.3 1.2-.6 1.8-.8.7-.2 1.4-.3 2.2-.3 1 0 1.9.2 2.6.4.8.2 1.5.7 1.9 1.2.5.5.9 1.3 1.2 2.2.3.9.4 1.9.4 3.2v12.4h-2.1v-12.4c0-1-.1-1.9-.3-2.5-.2-.7-.5-1.2-.9-1.6-.4-.4-.9-.7-1.5-.8-.5-.2-1.2-.2-1.9-.2-.9 0-1.7.2-2.3.5-.7.3-1.2.7-1.7 1.2s-.9 1-1.1 1.6c-.2.6-.4 1.2-.5 1.7V280h-2.1v-12.6c0-.9-.1-1.8-.3-2.4-.2-.6-.5-1.2-.9-1.5-.4-.4-.9-.7-1.5-.9-.5-.2-1.2-.2-1.9-.2-.8 0-1.5.2-2.1.4-.6.2-1.2.6-1.6 1-.5.4-.9.9-1.1 1.5-.3.5-.5 1.1-.7 1.7v13h-2.1v-19h1.8v.1zm37.3 19.4c-1.2 0-2.4-.2-3.5-.7-1.1-.5-1.9-1.1-2.7-1.9s-1.3-1.8-1.8-2.9c-.4-1.2-.6-2.4-.6-3.8v-.8c0-1.5.2-2.8.7-4 .5-1.2 1-2.2 1.8-3 .8-.9 1.6-1.5 2.6-1.9 1-.5 2-.7 3.1-.7 1.2 0 2.3.2 3.2.6.9.5 1.7 1 2.4 1.9.6.8 1.2 1.7 1.5 2.8s.5 2.2.5 3.5v1.3h-13.6v.4c0 1.1.2 2 .5 2.9.3.9.8 1.7 1.3 2.4s1.2 1.2 2.1 1.6c.8.4 1.7.6 2.6.6 1.2 0 2.2-.2 3-.6.9-.4 1.6-1.1 2.3-2l1.3 1c-.3.5-.7.9-1.1 1.3-.4.4-.9.8-1.5 1.1-.5.3-1.2.5-1.9.7-.6.1-1.4.2-2.2.2zm-.4-17.9c-.8 0-1.5.2-2.2.5-.7.3-1.3.8-1.8 1.3s-.9 1.2-1.3 2c-.3.8-.5 1.7-.7 2.6h11.4v-.2c0-.8-.2-1.5-.4-2.3-.2-.8-.5-1.4-1-2-.5-.5-1-1-1.7-1.4-.6-.4-1.4-.5-2.3-.5zm21.6 17.6v-17.4h-3.2v-1.7h3.2v-2.4c0-.9.2-1.9.4-2.5.2-.8.6-1.4 1.1-1.9.5-.5 1.1-.9 1.8-1.2.7-.2 1.5-.4 2.4-.4.4 0 .8 0 1.1.1.4.1.8.2 1.2.2l-.2 1.8c-.3-.1-.6-.2-.9-.2-.3 0-.6-.1-1-.1-1.2 0-2.1.4-2.7 1.1-.6.7-1 1.8-1 3.1v2.4h4.6v1.7H351v17.4h-2.1zm19.1-17.3c-.5-.1-.9-.2-1.4-.2-.7 0-1.4.1-1.9.3-.5.2-1.1.5-1.5.9-.5.4-.9.9-1.1 1.4-.3.5-.5 1.1-.7 1.7v13.1h-2.1V261h2.1v3c.5-1.1 1.2-1.9 2.1-2.5.9-.6 2-.9 3.2-.9.2 0 .5 0 .8.1.2.1.5.1.6.2l-.1 2zm3-7.4c0-.4.2-.8.4-1 .2-.3.6-.4 1.1-.4s.8.2 1.1.4c.2.3.4.6.4 1s-.2.8-.4 1c-.2.3-.6.4-1.1.4s-.8-.2-1.1-.4c-.2-.2-.4-.5-.4-1zm2.5 24.7h-2.1v-19.1h2.1v19.1zm13 .3c-1.2 0-2.4-.2-3.5-.7-1.1-.5-1.9-1.1-2.7-1.9-.8-.9-1.3-1.8-1.8-2.9-.4-1.2-.6-2.4-.6-3.8v-.8c0-1.5.2-2.8.7-4 .5-1.2 1-2.2 1.8-3 .8-.9 1.6-1.5 2.6-1.9 1-.5 2-.7 3.1-.7 1.2 0 2.3.2 3.2.6.9.5 1.7 1 2.4 1.9.6.8 1.2 1.7 1.5 2.8s.5 2.2.5 3.5v1.3h-13.6v.4c0 1.1.2 2 .5 2.9.3.9.8 1.7 1.3 2.4s1.2 1.2 2.1 1.6c.8.4 1.7.6 2.6.6 1.2 0 2.2-.2 3-.6s1.6-1.1 2.3-2l1.3 1c-.3.5-.7.9-1.1 1.3-.4.4-.9.8-1.5 1.1-.5.3-1.2.5-1.9.7-.6.1-1.4.2-2.2.2zm-.4-17.9c-.8 0-1.5.2-2.2.5-.7.3-1.3.8-1.8 1.3s-.9 1.2-1.3 2c-.3.8-.5 1.7-.7 2.6h11.4v-.2c0-.8-.2-1.5-.4-2.3s-.5-1.4-1-2c-.5-.5-1-1-1.7-1.4-.7-.4-1.4-.5-2.3-.5zm13.5-1.5l.1 3.2c.3-.5.7-1 1.2-1.5s.9-.9 1.5-1.2c.5-.3 1.1-.5 1.7-.7.6-.2 1.2-.2 1.9-.2.9 0 1.8.2 2.5.4s1.4.7 1.9 1.2.9 1.3 1.2 2.2c.3.9.4 1.9.4 3.2v12.4h-2.1v-12.4c0-1-.1-1.8-.3-2.5-.2-.7-.5-1.2-.9-1.6-.4-.4-.9-.7-1.4-.9-.5-.2-1.2-.2-1.9-.2-.8 0-1.5.2-2 .4-.6.2-1.2.6-1.6 1-.5.4-.8.9-1.2 1.5-.3.5-.6 1.1-.9 1.7v13.1h-2.2v-19.1h2.1zm16.8 9.4c0-1.5.2-2.8.5-4 .3-1.2.9-2.2 1.5-3.1s1.4-1.5 2.3-1.9c.9-.5 1.9-.7 3.1-.7 1.3 0 2.5.3 3.5.9 1 .5 1.8 1.3 2.4 2.2v-10.7h2.1v27.1h-2l-.1-2.6c-.6.9-1.5 1.6-2.4 2.2-1 .5-2.2.8-3.6.8-1.2 0-2.2-.2-3-.7-.9-.5-1.7-1.2-2.3-2s-1.2-1.9-1.5-3.1c-.3-1.2-.5-2.5-.5-3.9v-.5zm2.1.3c0 1.1.1 2.2.3 3.1.2.9.5 1.8 1 2.5s1 1.2 1.7 1.6c.7.4 1.5.6 2.5.6.7 0 1.4-.1 1.9-.2.6-.2 1.1-.4 1.5-.7.5-.3.9-.7 1.2-1.1.3-.4.6-.9.9-1.4v-9c-.2-.5-.5-.9-.8-1.4s-.7-.9-1.2-1.2c-.5-.3-.9-.6-1.5-.9-.6-.2-1.2-.3-2-.3-1 0-1.9.2-2.5.6-.7.4-1.3.9-1.8 1.7-.5.7-.8 1.5-1 2.5-.2.9-.3 2-.3 3.1v.4l.1.1zm30 4.5c0-.4-.1-.8-.2-1.2-.2-.4-.4-.8-.8-1.1-.4-.3-.9-.7-1.5-1-.7-.3-1.5-.5-2.5-.8-1.1-.2-2-.5-2.9-.8-.9-.3-1.5-.6-2.1-1.1-.5-.4-1-.9-1.3-1.5-.3-.5-.5-1.2-.5-2 0-.7.2-1.4.5-2 .3-.6.8-1.2 1.3-1.6.6-.5 1.3-.9 2.1-1.1.9-.3 1.8-.4 2.8-.4 1.1 0 2.1.2 2.9.5.9.3 1.6.7 2.2 1.2.6.5 1.1 1.1 1.4 1.8.3.7.5 1.5.5 2.2h-2.1c0-.5-.1-1-.3-1.5-.2-.5-.5-.9-.9-1.2-.4-.4-.9-.6-1.5-.9-.6-.2-1.3-.3-2.1-.3-.9 0-1.5.1-2.1.3-.6.2-1.1.5-1.5.8-.4.3-.6.7-.9 1.1-.2.4-.2.8-.2 1.2 0 .4.1.8.2 1.2.2.3.4.7.8 1 .4.3.9.5 1.5.8.7.2 1.5.5 2.6.8 1.2.3 2.2.5 3 .9.9.3 1.5.7 2.1 1.2.5.5.9 1 1.2 1.5.2.6.4 1.2.4 2s-.2 1.5-.5 2.2c-.3.6-.8 1.2-1.4 1.7-.6.5-1.4.9-2.2 1.1-.9.2-1.9.4-2.9.4-1.2 0-2.3-.2-3.2-.5s-1.7-.7-2.3-1.2-1.1-1.2-1.5-1.9c-.3-.7-.5-1.4-.5-2.2h2.1c.1.8.2 1.4.6 1.9.3.5.8.9 1.2 1.2.5.3 1.1.5 1.7.6.6.2 1.2.2 1.9.2.8 0 1.5-.1 2.1-.3.6-.2 1.2-.5 1.5-.8s.7-.7.9-1.1c.4-.4.4-.8.4-1.3zm16.8 4.9v-17.4h-3.2v-1.7h3.2v-2.4c0-.9.2-1.9.4-2.5.2-.8.6-1.4 1.1-1.9.5-.5 1.1-.9 1.8-1.2.7-.2 1.5-.4 2.4-.4.4 0 .8 0 1.1.1.4.1.8.2 1.2.2l-.2 1.8c-.3-.1-.6-.2-.9-.2-.3 0-.6-.1-1-.1-1.2 0-2.1.4-2.7 1.1-.6.7-1 1.8-1 3.1v2.4h4.6v1.7h-4.6v17.4h-2.2zm19.1-17.3c-.5-.1-.9-.2-1.4-.2-.7 0-1.4.1-1.9.3s-1.1.5-1.5.9c-.5.4-.9.9-1.1 1.4-.3.5-.5 1.1-.7 1.7v13.1h-2.2V261h2.1v3c.5-1.1 1.2-1.9 2.1-2.5.9-.6 2-.9 3.2-.9.2 0 .5 0 .8.1.2.1.5.1.6.2v2zm1.7 7.5c0-1.4.2-2.7.6-3.9.4-1.2 1-2.2 1.7-3 .8-.9 1.6-1.5 2.7-2s2.2-.7 3.5-.7c1.3 0 2.5.2 3.6.7 1.1.5 1.9 1.2 2.7 2s1.3 1.9 1.7 3c.4 1.2.6 2.5.6 3.9v.6c0 1.4-.2 2.7-.6 3.9-.4 1.2-1 2.2-1.7 3-.8.9-1.6 1.5-2.7 2s-2.2.7-3.5.7c-1.3 0-2.5-.2-3.5-.7-1.1-.5-1.9-1.2-2.7-2-.8-.9-1.3-1.9-1.7-3-.4-1.2-.6-2.5-.6-3.9l-.1-.6zm2.1.5c0 1.1.2 2 .4 3 .3.9.7 1.8 1.2 2.5s1.2 1.3 2 1.7 1.7.6 2.8.6c1 0 1.9-.2 2.7-.6.8-.4 1.5-1 2-1.7s.9-1.5 1.2-2.5c.3-.9.4-1.9.4-3v-.6c0-1-.2-2-.4-2.9-.3-.9-.7-1.8-1.2-2.5s-1.2-1.3-2-1.7c-.8-.5-1.7-.6-2.8-.6-1 0-1.9.2-2.7.6-.8.5-1.5 1-2 1.7s-.9 1.5-1.2 2.5-.4 1.9-.4 2.9v.6zm21-9.8l.1 3.1c.3-.5.7-1 1.1-1.4.4-.5.8-.8 1.4-1.1s1.1-.5 1.7-.7c.6-.2 1.2-.2 2-.2 1.4 0 2.6.3 3.6.9 1 .6 1.7 1.5 2.2 2.9.3-.5.7-1 1.1-1.5.5-.5.9-.9 1.5-1.2.5-.3 1.2-.6 1.8-.8.7-.2 1.4-.3 2.2-.3 1 0 1.9.2 2.6.4.8.2 1.5.7 1.9 1.2.5.5.9 1.3 1.2 2.2.3.9.4 1.9.4 3.2v12.4h-2.1v-12.4c0-1-.1-1.9-.3-2.5-.2-.7-.5-1.2-.9-1.6-.4-.4-.9-.7-1.5-.8-.5-.2-1.2-.2-1.9-.2-.9 0-1.7.2-2.3.5-.7.3-1.2.7-1.7 1.2s-.8 1-1.1 1.6c-.2.6-.4 1.2-.5 1.7V280h-2.1v-12.6c0-.9-.1-1.8-.3-2.4-.2-.6-.5-1.2-.9-1.5-.4-.4-.9-.7-1.5-.9-.5-.2-1.2-.2-1.9-.2-.8 0-1.5.2-2.1.4-.6.2-1.2.6-1.6 1-.5.4-.9.9-1.1 1.5-.3.5-.5 1.1-.7 1.7v13h-2.1v-19h1.8v.1z"/></svg>