<?xml version="1.0" encoding="utf-8"?>
<!-- Generator: Adobe Illustrator 17.0.0, SVG Export Plug-In . SVG Version: 6.00 Build 0)  -->
<!DOCTYPE svg PUBLIC "-//W3C//DTD SVG 1.1//EN" "http://www.w3.org/Graphics/SVG/1.1/DTD/svg11.dtd">
<svg version="1.1" id="Layer_1" xmlns="http://www.w3.org/2000/svg" xmlns:xlink="http://www.w3.org/1999/xlink" x="0px" y="0px"
	 width="80px" height="80px" viewBox="0 0 80 80" enable-background="new 0 0 80 80" xml:space="preserve">
<g id="VR" display="none">
	<g display="inline">
		<g>
			<g>
				<g>
					<defs>
						<rect id="SVGID_1_" x="0.07" y="20.365" width="79.86" height="39.271"/>
					</defs>
					<clipPath id="SVGID_2_">
						<use xlink:href="#SVGID_1_"  overflow="visible"/>
					</clipPath>
					<path clip-path="url(#SVGID_2_)" fill="none" stroke="#000000" stroke-width="3" d="M40,21.865H8.865c0,0-7.295,0-7.295,7.295
						v21.681c0,0,0,7.294,7.295,7.294H27.41c0,0,5.474,0.01,6.503-7.307l3.204-18.299c0.261-1.703,1.984-1.703,1.984-1.703H40
						 M18.408,47.313c4.009,0,7.258-3.249,7.258-7.258s-3.249-7.259-7.258-7.259s-7.258,3.25-7.258,7.259
						S14.399,47.313,18.408,47.313z"/>
				</g>
			</g>
		</g>
		<g>
			<g>
				<g>
					<defs>
						<rect id="SVGID_3_" x="0.07" y="20.365" width="79.86" height="39.271"/>
					</defs>
					<clipPath id="SVGID_4_">
						<use xlink:href="#SVGID_3_"  overflow="visible"/>
					</clipPath>
					<path clip-path="url(#SVGID_4_)" fill="none" stroke="#000000" stroke-width="3" d="M40,21.865h31.135c0,0,7.295,0,7.295,7.295
						v21.681c0,0,0,7.294-7.295,7.294H52.589c0,0-5.474,0.01-6.503-7.307l-3.204-18.299c-0.261-1.703-1.984-1.703-1.984-1.703H40
						 M61.591,47.313c-4.009,0-7.258-3.249-7.258-7.258s3.249-7.259,7.258-7.259s7.258,3.25,7.258,7.259S65.6,47.313,61.591,47.313z
						"/>
				</g>
			</g>
		</g>
	</g>
</g>
<g>
	<path d="M51.013,28.508c0-5.335-3.741-10.719-12.1-10.719c-7.166,0-12.337,4.841-12.739,11.839h3.508
		c0.331-4.313,2.924-9.12,9.292-9.12c5.028,0,8.54,3.241,8.54,7.88c0,3.685-1.382,6.167-4.771,8.568
		c-5.364,3.754-6.269,6.239-6.269,10.391l0,0.941h3.259v-0.16c0-4.438,0.653-6.015,5.552-9.469
		C49.086,35.977,51.013,32.561,51.013,28.508z"/>
	<rect x="35.814" y="54.686" width="4.7" height="5.66"/>
</g>
</svg>
