<?xml version="1.0" encoding="utf-8"?>
<!-- Generator: Adobe Illustrator 19.2.0, SVG Export Plug-In . SVG Version: 6.00 Build 0)  -->
<svg version="1.1" id="Layer_1" xmlns="http://www.w3.org/2000/svg" xmlns:xlink="http://www.w3.org/1999/xlink" x="0px" y="0px"
	 viewBox="0 0 80 80" style="enable-background:new 0 0 80 80;" xml:space="preserve">
<style type="text/css">
	.st0{display:none;}
	.st1{display:inline;}
	.st2{clip-path:url(#SVGID_2_);stroke:#000000;stroke-width:3;}
	.st3{display:inline;stroke:#000000;}
</style>
<g id="ADD" class="st0">
	<g class="st1">
		<g>
			<g>
				<g>
					<defs>
						<rect id="SVGID_1_" x="5.8" y="77.9" width="68.3" height="71.8"/>
					</defs>
					<clipPath id="SVGID_2_">
						<use xlink:href="#SVGID_1_"  style="overflow:visible;"/>
					</clipPath>
					<path class="st2" d="M41.8,147.9L7.3,132.2v-27.7l30.8-24.9l34.5,15.7l0,27.7L41.8,147.9z M41.8,147.9l0-27.7L7.3,104.5
						 M29.3,114.5l8.9-7.2L72.7,123 M38.2,79.6v27.7"/>
				</g>
			</g>
		</g>
	</g>
	<polygon class="st1" points="17.7,121.8 31.3,128.1 31.3,130.7 17.7,124.4 	"/>
	<polygon class="st3" points="17.7,121.8 31.3,128.1 31.3,130.7 17.7,124.4 	"/>
	<polygon class="st1" points="23.6,117 25.5,118 25.5,135.4 23.6,134.5 	"/>
	<polygon class="st3" points="23.6,117 25.5,118 25.5,135.4 23.6,134.5 	"/>
</g>
<g>
	<path class="st4" d="M40,11.5c-15.7,0-28.5,12.8-28.5,28.5S24.3,68.5,40,68.5S68.5,55.7,68.5,40S55.7,11.5,40,11.5z M40,65.5
		c-14.1,0-25.5-11.4-25.5-25.5S25.9,14.5,40,14.5S65.5,25.9,65.5,40S54.1,65.5,40,65.5z"/>
	<path class="st4" d="M40,52.1c-1.6,0-2.8,1.2-2.8,2.8c0,1.6,1.2,2.8,2.8,2.8c1.6,0,2.8-1.2,2.8-2.8C42.8,53.4,41.6,52.1,40,52.1z"
		/>
	<path class="st4" d="M40.7,22.3c-6,0-10.4,4.1-10.7,9.8h3.8c0.2-3.3,2-7,6.9-7c4.1,0,6.8,2.6,6.8,6.5c0,3.1-1.8,4.7-4.9,7
		c-3.8,2.9-4.7,4.5-4.7,8.6v0.5h0l3.6,0c0-3.8,0.1-4.6,4.6-7.9c2.6-2,5.2-4.3,5.2-8.4C51.4,26.2,46.8,22.3,40.7,22.3z"/>
</g>
</svg>
