<?xml version="1.0" encoding="utf-8"?>
<!-- Generator: Adobe Illustrator 17.0.0, SVG Export Plug-In . SVG Version: 6.00 Build 0)  -->
<!DOCTYPE svg PUBLIC "-//W3C//DTD SVG 1.1//EN" "http://www.w3.org/Graphics/SVG/1.1/DTD/svg11.dtd">
<svg version="1.1" id="Layer_1" xmlns="http://www.w3.org/2000/svg" xmlns:xlink="http://www.w3.org/1999/xlink" x="0px" y="0px"
	 width="80px" height="80px" viewBox="0 0 80 80" enable-background="new 0 0 80 80" xml:space="preserve">
<g id="VR" display="none">
	<g display="inline">
		<g>
			<g>
				<defs>
					<rect id="SVGID_1_" x="0.07" y="20.365" width="79.86" height="39.271"/>
				</defs>
				<clipPath id="SVGID_2_">
					<use xlink:href="#SVGID_1_"  overflow="visible"/>
				</clipPath>
				<path clip-path="url(#SVGID_2_)" fill="none" stroke="#000000" stroke-width="3" d="M40,21.865H8.865c0,0-7.295,0-7.295,7.295
					v21.681c0,0,0,7.294,7.295,7.294H27.41c0,0,5.474,0.01,6.503-7.307l3.204-18.299c0.261-1.703,1.984-1.703,1.984-1.703H40
					 M18.408,47.313c4.009,0,7.258-3.249,7.258-7.258s-3.249-7.259-7.258-7.259s-7.258,3.25-7.258,7.259
					S14.399,47.313,18.408,47.313z"/>
			</g>
		</g>
		<g>
			<g>
				<defs>
					<rect id="SVGID_3_" x="0.07" y="20.365" width="79.86" height="39.271"/>
				</defs>
				<clipPath id="SVGID_4_">
					<use xlink:href="#SVGID_3_"  overflow="visible"/>
				</clipPath>
				<path clip-path="url(#SVGID_4_)" fill="none" stroke="#000000" stroke-width="3" d="M40,21.865h31.135c0,0,7.295,0,7.295,7.295
					v21.681c0,0,0,7.294-7.295,7.294H52.589c0,0-5.474,0.01-6.503-7.307l-3.204-18.299c-0.261-1.703-1.984-1.703-1.984-1.703H40
					 M61.591,47.313c-4.009,0-7.258-3.249-7.258-7.258s3.249-7.259,7.258-7.259s7.258,3.25,7.258,7.259S65.6,47.313,61.591,47.313z"
					/>
			</g>
		</g>
	</g>
</g>
<g>
	<path d="M35.974,47.347c0-4.44,1.08-7.02,6.48-10.799c2.88-2.04,4.56-4.26,4.56-8.16c0-4.14-3-7.38-8.04-7.38
		c-5.94,0-8.64,4.44-8.82,9.12h-4.5c0.18-7.56,5.7-12.839,13.259-12.839c8.1,0,12.6,5.16,12.6,11.219c0,5.1-2.88,8.4-5.94,10.56
		c-4.68,3.3-5.34,4.74-5.34,9.06v0.66h-4.26V47.347z M35.314,54.186h5.7v6.66h-5.7V54.186z"/>
</g>
</svg>
