<?xml version="1.0" encoding="utf-8"?>
<!-- Generator: Adobe Illustrator 19.2.0, SVG Export Plug-In . SVG Version: 6.00 Build 0)  -->
<svg version="1.1" id="Layer_1" xmlns="http://www.w3.org/2000/svg" xmlns:xlink="http://www.w3.org/1999/xlink" x="0px" y="0px"
	 viewBox="0 0 80 80" style="enable-background:new 0 0 80 80;" xml:space="preserve">
<style type="text/css">
	.st0{display:none;}
	.st1{display:inline;}
	.st2{clip-path:url(#SVGID_2_);fill:none;stroke:#000000;stroke-width:3;}
	.st3{clip-path:url(#SVGID_4_);fill:none;stroke:#000000;stroke-width:3;}
</style>
<g id="VR" class="st0">
	<g class="st1">
		<g>
			<g>
				<g>
					<g>
						<g>
							<g>
								<defs>
									<rect id="SVGID_1_" x="0.1" y="20.4" width="79.9" height="39.3"/>
								</defs>
								<clipPath id="SVGID_2_">
									<use xlink:href="#SVGID_1_"  style="overflow:visible;"/>
								</clipPath>
								<path class="st2" d="M40,21.9H8.9c0,0-7.3,0-7.3,7.3v21.7c0,0,0,7.3,7.3,7.3h18.5c0,0,5.5,0,6.5-7.3l3.2-18.3
									c0.3-1.7,2-1.7,2-1.7H40 M18.4,47.3c4,0,7.3-3.2,7.3-7.3s-3.2-7.3-7.3-7.3s-7.3,3.2-7.3,7.3S14.4,47.3,18.4,47.3z"/>
							</g>
						</g>
					</g>
				</g>
			</g>
		</g>
		<g>
			<g>
				<g>
					<g>
						<g>
							<g>
								<defs>
									<rect id="SVGID_3_" x="0.1" y="20.4" width="79.9" height="39.3"/>
								</defs>
								<clipPath id="SVGID_4_">
									<use xlink:href="#SVGID_3_"  style="overflow:visible;"/>
								</clipPath>
								<path class="st3" d="M40,21.9h31.1c0,0,7.3,0,7.3,7.3v21.7c0,0,0,7.3-7.3,7.3H52.6c0,0-5.5,0-6.5-7.3l-3.2-18.3
									c-0.3-1.7-2-1.7-2-1.7H40 M61.6,47.3c-4,0-7.3-3.2-7.3-7.3s3.2-7.3,7.3-7.3s7.3,3.2,7.3,7.3S65.6,47.3,61.6,47.3z"/>
							</g>
						</g>
					</g>
				</g>
			</g>
		</g>
	</g>
</g>
<g>
	<path d="M38.6,69.5c-16.5,0-30-13.5-30-30s13.5-30,30-30s30,13.5,30,30S55.1,69.5,38.6,69.5z M38.6,12.5c-14.9,0-27,12.1-27,27
		s12.1,27,27,27s27-12.1,27-27S53.5,12.5,38.6,12.5z"/>
</g>
<g>
	<path d="M38.8,23.2c-5.6,0-9.6,3.7-9.9,9.2v0.5h3.5v-0.4c0.2-3.1,2-6.4,6.5-6.4c3.5,0,5.9,2.2,5.9,5.5c0,2.6-1,4.4-3.4,6.1
		c-4.2,2.9-4.9,4.9-4.9,8.1v1.1h3.3v-0.6c0-3.1,0.4-4.2,4-6.7c3-2,4.4-4.7,4.4-7.9C48.3,27.4,45.4,23.2,38.8,23.2z"/>
	<rect x="36.1" y="50.7" width="4.4" height="5.1"/>
</g>
</svg>
