<?xml version="1.0" encoding="utf-8"?>
<!-- Generator: Adobe Illustrator 17.0.0, SVG Export Plug-In . SVG Version: 6.00 Build 0)  -->
<!DOCTYPE svg PUBLIC "-//W3C//DTD SVG 1.1//EN" "http://www.w3.org/Graphics/SVG/1.1/DTD/svg11.dtd">
<svg version="1.1" id="Layer_1" xmlns="http://www.w3.org/2000/svg" xmlns:xlink="http://www.w3.org/1999/xlink" x="0px" y="0px"
	 width="80px" height="80px" viewBox="0 0 80 80" enable-background="new 0 0 80 80" xml:space="preserve">
<g id="ADD" display="none">
	<g display="inline">
		<g>
			<defs>
				<rect id="SVGID_1_" x="5.848" y="77.86" width="68.319" height="71.773"/>
			</defs>
			<clipPath id="SVGID_2_">
				<use xlink:href="#SVGID_1_"  overflow="visible"/>
			</clipPath>
			<path clip-path="url(#SVGID_2_)" fill="none" stroke="#000000" stroke-width="3" d="M41.834,147.886l-34.486-15.65v-27.732
				l30.827-24.895l34.492,15.665l-0.015,27.732L41.834,147.886z M41.834,147.886l0.032-27.69L7.348,104.504 M29.255,114.532
				l8.9-7.235l34.497,15.709 M38.175,79.609v27.721"/>
		</g>
	</g>
	<polygon display="inline" points="17.714,121.753 31.349,128.111 31.349,130.712 17.714,124.354 	"/>
	<polygon display="inline" fill="none" stroke="#000000" points="17.714,121.753 31.349,128.111 31.349,130.712 17.714,124.354 	"/>
	<polygon display="inline" points="23.558,117.047 25.506,117.955 25.506,135.419 23.558,134.511 	"/>
	<polygon display="inline" fill="none" stroke="#000000" points="23.558,117.047 25.506,117.955 25.506,135.419 23.558,134.511 	"/>
</g>
<g>
	<path fill="none" stroke="#000000" stroke-width="3" d="M40.898,30.461c0,0,1.723,0,1.984,1.703l3.204,18.299
		c1.029,7.317,6.503,7.307,6.503,7.307h18.546c7.295,0,7.295-7.294,7.295-7.294V28.795c0-7.295-7.295-7.295-7.295-7.295H8.865
		c0,0-7.295,0-7.295,7.295v21.681c0,0,0,7.294,7.295,7.294H27.41c0,0,5.474,0.01,6.503-7.307l3.204-18.299
		c0.261-1.703,1.984-1.703,1.984-1.703H40.898z M61.591,46.948c-4.009,0-7.258-3.249-7.258-7.258s3.249-7.259,7.258-7.259
		s7.258,3.25,7.258,7.259S65.6,46.948,61.591,46.948z M18.408,46.948c4.009,0,7.258-3.249,7.258-7.258s-3.249-7.259-7.258-7.259
		s-7.258,3.25-7.258,7.259S14.399,46.948,18.408,46.948z"/>
</g>
</svg>
