<svg version="1.1" id="Layer_1" xmlns="http://www.w3.org/2000/svg" xmlns:xlink="http://www.w3.org/1999/xlink" x="0px" y="0px"
	 width="80px" height="80px" viewBox="0 0 80 80" enable-background="new 0 0 80 80" xml:space="preserve">
<g>
	<path fill="none" stroke="#000" stroke-width="3" d="M40.898,30.461c0,0,1.723,0,1.984,1.703l3.204,18.299
		c1.029,7.317,6.503,7.307,6.503,7.307h18.546c7.295,0,7.295-7.294,7.295-7.294V28.795c0-7.295-7.295-7.295-7.295-7.295H8.865
		c0,0-7.295,0-7.295,7.295v21.681c0,0,0,7.294,7.295,7.294H27.41c0,0,5.474,0.01,6.503-7.307l3.204-18.299
		c0.261-1.703,1.984-1.703,1.984-1.703H40.898z M61.591,46.948c-4.009,0-7.258-3.249-7.258-7.258s3.249-7.259,7.258-7.259
		s7.258,3.25,7.258,7.259S65.6,46.948,61.591,46.948z M18.408,46.948c4.009,0,7.258-3.249,7.258-7.258s-3.249-7.259-7.258-7.259
		s-7.258,3.25-7.258,7.259S14.399,46.948,18.408,46.948z"/>
</g>
</svg>
