<?xml version="1.0" encoding="utf-8"?>
<!-- Generator: Adobe Illustrator 17.0.0, SVG Export Plug-In . SVG Version: 6.00 Build 0)  -->
<!DOCTYPE svg PUBLIC "-//W3C//DTD SVG 1.1//EN" "http://www.w3.org/Graphics/SVG/1.1/DTD/svg11.dtd">
<svg version="1.1" id="Layer_1" xmlns="http://www.w3.org/2000/svg" xmlns:xlink="http://www.w3.org/1999/xlink" x="0px" y="0px"
	 width="40px" height="80px" viewBox="20 0 40 80" enable-background="new 20 0 40 80" xml:space="preserve">
<g id="ADD" display="none">
	<g display="inline">
		<g>
			<g>
				<defs>
					<rect id="SVGID_1_" x="5.848" y="77.86" width="68.319" height="71.773"/>
				</defs>
				<clipPath id="SVGID_2_">
					<use xlink:href="#SVGID_1_"  overflow="visible"/>
				</clipPath>
				<path clip-path="url(#SVGID_2_)" d="M41.834,147.886l-34.486-15.65v-27.732
					l30.827-24.895l34.492,15.665l-0.015,27.732L41.834,147.886z M41.834,147.886l0.032-27.69L7.348,104.504 M29.255,114.532
					l8.9-7.235l34.497,15.709 M38.175,79.609v27.721"/>
			</g>
		</g>
	</g>
	<polygon display="inline" points="17.714,121.753 31.349,128.111 31.349,130.712 17.714,124.354 	"/>
	<polygon display="inline" points="17.714,121.753 31.349,128.111 31.349,130.712 17.714,124.354 	"/>
	<polygon display="inline" points="23.558,117.047 25.506,117.955 25.506,135.419 23.558,134.511 	"/>
	<polygon display="inline" points="23.558,117.047 25.506,117.955 25.506,135.419 23.558,134.511 	"/>
</g>
<polygon points="51.811,56.813 23.308,39.731 52.601,23.166 54.226,26.038 29.866,39.814 53.508,53.983 "/>
</svg>
