<?xml version="1.0" encoding="utf-8"?>
<!-- Generator: Adobe Illustrator 19.2.0, SVG Export Plug-In . SVG Version: 6.00 Build 0)  -->
<svg version="1.1" id="Layer_1" xmlns="http://www.w3.org/2000/svg" xmlns:xlink="http://www.w3.org/1999/xlink" x="0px" y="0px"
	 viewBox="0 0 80 80" style="enable-background:new 0 0 80 80;" xml:space="preserve">
<style type="text/css">
	.st0{display:none;}
	.st1{display:inline;}
	.st2{clip-path:url(#SVGID_2_);fill:none;stroke:#000000;stroke-width:3;}
	.st3{clip-path:url(#SVGID_4_);fill:none;stroke:#000000;stroke-width:3;}
	.st4{fill:none;}
</style>
<g id="VR" class="st0">
	<g class="st1">
		<g>
			<g>
				<g>
					<g>
						<g>
							<g>
								<g>
									<g>
										<defs>
											<rect id="SVGID_1_" x="0.1" y="20.4" width="79.9" height="39.3"/>
										</defs>
										<clipPath id="SVGID_2_">
											<use xlink:href="#SVGID_1_"  style="overflow:visible;"/>
										</clipPath>
										<path class="st2" d="M40,21.9H8.9c0,0-7.3,0-7.3,7.3v21.7c0,0,0,7.3,7.3,7.3h18.5c0,0,5.5,0,6.5-7.3l3.2-18.3
											c0.3-1.7,2-1.7,2-1.7H40 M18.4,47.3c4,0,7.3-3.2,7.3-7.3s-3.2-7.3-7.3-7.3s-7.3,3.2-7.3,7.3S14.4,47.3,18.4,47.3z"/>
									</g>
								</g>
							</g>
						</g>
					</g>
				</g>
			</g>
		</g>
		<g>
			<g>
				<g>
					<g>
						<g>
							<g>
								<g>
									<g>
										<defs>
											<rect id="SVGID_3_" x="0.1" y="20.4" width="79.9" height="39.3"/>
										</defs>
										<clipPath id="SVGID_4_">
											<use xlink:href="#SVGID_3_"  style="overflow:visible;"/>
										</clipPath>
										<path class="st3" d="M40,21.9h31.1c0,0,7.3,0,7.3,7.3v21.7c0,0,0,7.3-7.3,7.3H52.6c0,0-5.5,0-6.5-7.3l-3.2-18.3
											c-0.3-1.7-2-1.7-2-1.7H40 M61.6,47.3c-4,0-7.3-3.2-7.3-7.3s3.2-7.3,7.3-7.3s7.3,3.2,7.3,7.3S65.6,47.3,61.6,47.3z"/>
									</g>
								</g>
							</g>
						</g>
					</g>
				</g>
			</g>
		</g>
	</g>
</g>
<line class="st4" x1="65.7" y1="6.7" x2="17.3" y2="35.9"/>
<polygon points="66.8,69.6 63.9,64.3 21.1,37.7 63.9,11.1 66.8,5.8 15.4,37.7 "/>
</svg>
