<?xml version="1.0" encoding="utf-8"?>
<!-- Generator: Adobe Illustrator 19.2.0, SVG Export Plug-In . SVG Version: 6.00 Build 0)  -->
<svg version="1.1" id="Layer_1" xmlns="http://www.w3.org/2000/svg" xmlns:xlink="http://www.w3.org/1999/xlink" x="0px" y="0px"
	 viewBox="0 0 80 80" style="enable-background:new 0 0 80 80;" xml:space="preserve">
<style type="text/css">
	.st0{display:none;}
	.st1{display:inline;}
	.st2{clip-path:url(#SVGID_2_);fill:none;stroke:#000000;stroke-width:3;}
	.st3{clip-path:url(#SVGID_4_);fill:none;stroke:#000000;stroke-width:3;}
</style>
<g id="VR" class="st0">
	<g class="st1">
		<g>
			<g>
				<g>
					<g>
						<g>
							<g>
								<defs>
									<rect id="SVGID_1_" x="0.1" y="20.4" width="79.9" height="39.3"/>
								</defs>
								<clipPath id="SVGID_2_">
									<use xlink:href="#SVGID_1_"  style="overflow:visible;"/>
								</clipPath>
								<path class="st2" d="M40,21.9H8.9c0,0-7.3,0-7.3,7.3v21.7c0,0,0,7.3,7.3,7.3h18.5c0,0,5.5,0,6.5-7.3l3.2-18.3
									c0.3-1.7,2-1.7,2-1.7H40 M18.4,47.3c4,0,7.3-3.2,7.3-7.3s-3.2-7.3-7.3-7.3s-7.3,3.2-7.3,7.3S14.4,47.3,18.4,47.3z"/>
							</g>
						</g>
					</g>
				</g>
			</g>
		</g>
		<g>
			<g>
				<g>
					<g>
						<g>
							<g>
								<defs>
									<rect id="SVGID_3_" x="0.1" y="20.4" width="79.9" height="39.3"/>
								</defs>
								<clipPath id="SVGID_4_">
									<use xlink:href="#SVGID_3_"  style="overflow:visible;"/>
								</clipPath>
								<path class="st3" d="M40,21.9h31.1c0,0,7.3,0,7.3,7.3v21.7c0,0,0,7.3-7.3,7.3H52.6c0,0-5.5,0-6.5-7.3l-3.2-18.3
									c-0.3-1.7-2-1.7-2-1.7H40 M61.6,47.3c-4,0-7.3-3.2-7.3-7.3s3.2-7.3,7.3-7.3s7.3,3.2,7.3,7.3S65.6,47.3,61.6,47.3z"/>
							</g>
						</g>
					</g>
				</g>
			</g>
		</g>
	</g>
</g>
<g>
	<path d="M45.8,67.5L27.9,50.4H15.3V31.5h12.5l18-19.2V67.5z M18.3,47.4h10.8l13.7,13.1V19.9L29.2,34.5H18.3V47.4z"/>
</g>
<g>
	<rect x="53.9" y="39.5" width="12.8" height="3"/>
</g>
<g>
	<rect x="51.8" y="25.3" transform="matrix(0.7612 -0.6485 0.6485 0.7612 -3.5925 43.7441)" width="11.6" height="3"/>
</g>
<g>
	<rect x="56.1" y="48.2" transform="matrix(0.6436 -0.7654 0.7654 0.6436 -20.724 63.2971)" width="3" height="11.5"/>
</g>
</svg>
