<?xml version="1.0" encoding="utf-8"?>
<!-- Generator: Adobe Illustrator 17.0.0, SVG Export Plug-In . SVG Version: 6.00 Build 0)  -->
<!DOCTYPE svg PUBLIC "-//W3C//DTD SVG 1.1//EN" "http://www.w3.org/Graphics/SVG/1.1/DTD/svg11.dtd">
<svg version="1.1" id="Layer_1" xmlns="http://www.w3.org/2000/svg" xmlns:xlink="http://www.w3.org/1999/xlink" x="0px" y="0px"
	 width="80px" height="80px" viewBox="0 0 80 80" enable-background="new 0 0 80 80" xml:space="preserve">
<g id="ADD" display="none">
	<g display="inline">
		<g>
			<g>
				<defs>
					<rect id="SVGID_1_" x="5.848" y="77.86" width="68.319" height="71.773"/>
				</defs>
				<clipPath id="SVGID_2_">
					<use xlink:href="#SVGID_1_"  overflow="visible"/>
				</clipPath>
				<path clip-path="url(#SVGID_2_)" stroke-width="3" d="M41.834,147.886l-34.486-15.65v-27.732
					l30.827-24.895l34.492,15.665l-0.015,27.732L41.834,147.886z M41.834,147.886l0.032-27.69L7.348,104.504 M29.255,114.532
					l8.9-7.235l34.497,15.709 M38.175,79.609v27.721"/>
			</g>
		</g>
	</g>
	<polygon display="inline" points="17.714,121.753 31.349,128.111 31.349,130.712 17.714,124.354 	"/>
	<polygon display="inline" points="17.714,121.753 31.349,128.111 31.349,130.712 17.714,124.354 	"/>
	<polygon display="inline" points="23.558,117.047 25.506,117.955 25.506,135.419 23.558,134.511 	"/>
	<polygon display="inline" points="23.558,117.047 25.506,117.955 25.506,135.419 23.558,134.511 	"/>
</g>
<path d="M40.417,64.685L24.975,49.579h-12.71v-19.11h12.75l15.373-15.172L40.417,64.685z M15.364,46.479h10.875
	l11.074,10.832l-0.021-34.604L26.287,33.568H15.364V46.479z"/>
<rect x="49.174" y="38.474" width="17.012" height="3.1"/>
<rect x="52.312" y="18.63" transform="matrix(0.7025 0.7117 -0.7117 0.7025 34.9895 -30.4031)" width="3.1" height="16.044"/>
<rect x="45.84" y="51.95" transform="matrix(0.7117 0.7025 -0.7025 0.7117 53.1097 -22.4128)" width="16.044" height="3.101"/>
</svg>
