<?xml version="1.0" encoding="utf-8"?>
<!-- Generator: Adobe Illustrator 17.0.0, SVG Export Plug-In . SVG Version: 6.00 Build 0)  -->
<!DOCTYPE svg PUBLIC "-//W3C//DTD SVG 1.1//EN" "http://www.w3.org/Graphics/SVG/1.1/DTD/svg11.dtd">
<svg version="1.1" id="Layer_1" xmlns="http://www.w3.org/2000/svg" xmlns:xlink="http://www.w3.org/1999/xlink" x="0px" y="0px"
	 width="80px" height="80px" viewBox="0 0 80 80" enable-background="new 0 0 80 80" xml:space="preserve">
<g id="ADD" display="none">
	<g display="inline">
		<g>
			<g>
				<g>
					<defs>
						<rect id="SVGID_1_" x="5.848" y="77.86" width="68.319" height="71.773"/>
					</defs>
					<clipPath id="SVGID_2_">
						<use xlink:href="#SVGID_1_"  overflow="visible"/>
					</clipPath>
					<path clip-path="url(#SVGID_2_)" fill="none" stroke="#000000" stroke-width="3" d="M41.834,147.886l-34.486-15.65v-27.732
						l30.827-24.895l34.492,15.665l-0.015,27.732L41.834,147.886z M41.834,147.886l0.032-27.69L7.348,104.504 M29.255,114.532
						l8.9-7.235l34.497,15.709 M38.175,79.609v27.721"/>
				</g>
			</g>
		</g>
	</g>
	<polygon display="inline" points="17.714,121.753 31.349,128.111 31.349,130.712 17.714,124.354 	"/>
	<polygon display="inline" fill="none" stroke="#000000" points="17.714,121.753 31.349,128.111 31.349,130.712 17.714,124.354 	"/>
	<polygon display="inline" points="23.558,117.047 25.506,117.955 25.506,135.419 23.558,134.511 	"/>
	<polygon display="inline" fill="none" stroke="#000000" points="23.558,117.047 25.506,117.955 25.506,135.419 23.558,134.511 	"/>
</g>
<rect x="38.5" y="-8.412" transform="matrix(-0.7071 -0.7071 0.7071 -0.7071 41.415 93.1543)" width="3" height="92.825"/>
<g>
	<path d="M71.135,20H62.95l-3,3h11.178c0.594,0.005,5.802,0.214,5.802,5.795v21.681c0,0.593-0.163,5.794-5.795,5.794H52.598
		c-0.45-0.011-4.219-0.274-5.034-6.065l-2.208-12.61l-2.591,2.591l1.837,10.487c0.957,6.801,5.644,8.598,7.988,8.598h18.546
		c6.957,0,8.795-5.752,8.795-8.794V28.795C79.93,21.838,74.177,20,71.135,20z"/>
	<path d="M39.101,28.961c-1.042,0-3.106,0.622-3.461,2.944l-1.168,6.673l3.692-3.692l0.437-2.496c0.02-0.132,0.062-0.407,0.501-0.43
		l1.764,0c0.078,0.004,0.129,0.023,0.185,0.039l2.169-2.169c-0.763-0.645-1.713-0.87-2.321-0.87H39.101z"/>
	<path d="M61.591,48.448c4.829,0,8.758-3.929,8.758-8.758s-3.929-8.759-8.758-8.759s-8.758,3.929-8.758,8.759
		S56.762,48.448,61.591,48.448z M61.591,33.931c3.175,0,5.758,2.583,5.758,5.759s-2.583,5.758-5.758,5.758s-5.758-2.583-5.758-5.758
		S58.416,33.931,61.591,33.931z"/>
	<path d="M18.408,30.931c-4.83,0-8.758,3.929-8.758,8.759s3.929,8.758,8.758,8.758c4.829,0,8.758-3.929,8.758-8.758
		S23.237,30.931,18.408,30.931z M18.408,45.448c-3.175,0-5.758-2.583-5.758-5.758s2.583-5.759,5.758-5.759
		c3.175,0,5.758,2.583,5.758,5.759S21.583,45.448,18.408,45.448z"/>
	<path d="M13.78,59.27l3-3H8.865c-5.581,0-5.79-5.207-5.795-5.794V28.795c0-5.581,5.208-5.79,5.795-5.795H50.05l3-3H8.865
		c-3.042,0-8.795,1.838-8.795,8.795v21.681c0,3.042,1.838,8.794,8.795,8.794H13.78z"/>
	<path d="M32.368,50.581c-0.909,5.43-4.55,5.68-4.958,5.689h-0.731l-3,3h3.731c2.345,0,7.032-1.797,7.98-8.548l0.671-3.835
		L32.368,50.581z"/>
</g>
</svg>
