<?xml version="1.0" encoding="utf-8"?>
<!-- Generator: Adobe Illustrator 21.0.0, SVG Export Plug-In . SVG Version: 6.00 Build 0)  -->
<svg version="1.1" id="Layer_1" xmlns="http://www.w3.org/2000/svg" xmlns:xlink="http://www.w3.org/1999/xlink" x="0px" y="0px"
	 viewBox="0 0 80 80" style="enable-background:new 0 0 80 80;" xml:space="preserve">
<path d="M42,75.9L5.8,59.5V30L37.9,4.1l36.2,16.4l0,29.4L42,75.9z M8.8,57.5l31.5,14.3l0-24.4L8.8,33.1V57.5z M32.1,40.4l11.2,5.1
	l0,25.5l26.5-21.4L38.4,35.3L32.1,40.4z M39.7,32.6l31.5,14.3l0-24.4L39.7,8.2V32.6z M10.2,30.4L29.1,39l7.6-6.2V9L10.2,30.4z"/>
<polygon points="26,51.3 26,43.9 23,42.5 23,49.9 17.2,47.2 17.2,50.9 23,53.7 23,61.1 26,62.5 26,55 31.8,57.8 31.8,54 "/>
</svg>
