<?xml version="1.0" encoding="utf-8"?>
<!-- Generator: Adobe Illustrator 17.0.0, SVG Export Plug-In . SVG Version: 6.00 Build 0)  -->
<!DOCTYPE svg PUBLIC "-//W3C//DTD SVG 1.1//EN" "http://www.w3.org/Graphics/SVG/1.1/DTD/svg11.dtd">
<svg version="1.1" id="Layer_1" xmlns="http://www.w3.org/2000/svg" xmlns:xlink="http://www.w3.org/1999/xlink" x="0px" y="0px"
	 width="80px" height="80px" viewBox="0 0 80 80" enable-background="new 0 0 80 80" xml:space="preserve">
<g id="ADD" display="none">
	<g display="inline">
		<g>
			<g>
				<defs>
					<rect id="SVGID_1_" x="5.848" y="77.86" width="68.319" height="71.773"/>
				</defs>
				<clipPath id="SVGID_2_">
					<use xlink:href="#SVGID_1_"  overflow="visible"/>
				</clipPath>
				<path clip-path="url(#SVGID_2_)" fill="none" stroke-width="3" d="M41.834,147.886l-34.486-15.65v-27.732
					l30.827-24.895l34.492,15.665l-0.015,27.732L41.834,147.886z M41.834,147.886l0.032-27.69L7.348,104.504 M29.255,114.532
					l8.9-7.235l34.497,15.709 M38.175,79.609v27.721"/>
			</g>
		</g>
	</g>
	<polygon display="inline" points="17.714,121.753 31.349,128.111 31.349,130.712 17.714,124.354 	"/>
	<polygon display="inline" fill="none" points="17.714,121.753 31.349,128.111 31.349,130.712 17.714,124.354 	"/>
	<polygon display="inline" points="23.558,117.047 25.506,117.955 25.506,135.419 23.558,134.511 	"/>
	<polygon display="inline" fill="none" points="23.558,117.047 25.506,117.955 25.506,135.419 23.558,134.511 	"/>
</g>
<path d="M59.391,63.974H48.282c-0.69,0-1.25-0.56-1.25-1.25V45.843c0-0.69,0.56-1.25,1.25-1.25h4.566l0.526-4.079
	h-5.093c-0.69,0-1.25-0.56-1.25-1.25v-4.201c0-1.101,0-4.453,4.51-4.453l2.233-0.001v-3.5c-0.941-0.072-2.317-0.144-3.826-0.144
	c-4.583,0-7.211,2.714-7.211,7.446v4.852c0,0.69-0.56,1.25-1.25,1.25h-4.432v4.079h4.432c0.69,0,1.25,0.56,1.25,1.25v16.881
	c0,0.69-0.56,1.25-1.25,1.25H20.61c-2.016,0-3.657-1.64-3.657-3.655V21.538c0-2.016,1.641-3.656,3.657-3.656h38.781
	c2.016,0,3.656,1.64,3.656,3.656v38.781C63.047,62.334,61.406,63.974,59.391,63.974z M49.532,61.474h9.858
	c0.638,0,1.156-0.519,1.156-1.155V21.538c0-0.638-0.519-1.156-1.156-1.156H20.61c-0.638,0-1.157,0.519-1.157,1.156v38.781
	c0,0.637,0.519,1.155,1.157,1.155h19.628V47.093h-4.432c-0.69,0-1.25-0.56-1.25-1.25v-6.579c0-0.69,0.56-1.25,1.25-1.25h4.432
	v-3.602c0-6.042,3.812-9.946,9.711-9.946c2.629,0,4.718,0.2,5.242,0.271c0.62,0.083,1.084,0.612,1.084,1.239v5.884
	c0,0.69-0.56,1.25-1.249,1.25l-3.483,0.001c-1.846,0-2.011,0.506-2.011,1.953v2.951h5.265c0.359,0,0.701,0.155,0.938,0.425
	c0.237,0.27,0.348,0.629,0.301,0.985l-0.849,6.579c-0.08,0.623-0.61,1.09-1.239,1.09h-4.416V61.474z"/>
</svg>
