# Alias OBJ Model File
# Exported from SketchUp, (c) 2000-2012 Trimble Navigation Limited
# File units = millimeters

mtllib pointer.mtl

g Mesh1 Group1 Model

usemtl FrontColor
v -73.5597 46.776 -220.642
vt -317.61 2229.13
vn -0.825283 0.530806 -0.192751
v -1.13523 5.8354 -331.098
vt -354.109 3001.5
vn -0.868239 0.456774 -0.193698
v -81.8641 26.7637 -220.871
vt -388.112 2229.13
vn -0.934355 0.298062 -0.195297
f 1/1/1 2/2/2 3/3/3

vt -381.195 3034.3
vt -414.796 2261.79
v -0.855718 6.19712 -331.091
vt -379.707 3034.3
vn -0.690717 0.697698 -0.190071
f 2/4/2 1/5/1 4/6/4

v -60.3593 63.9563 -220.337
vt -343.416 2261.27
vn -0.691679 0.696739 -0.190091
vt -379.559 3033.81
vt -413.918 2261.27
f 5/7/5 4/8/4 1/9/1

vt -413.918 2294.82
v -43.1626 77.1339 -219.975
vt -343.416 2294.82
vn -0.524 0.831037 -0.186552
vt -380.579 3067.49
f 5/10/5 6/11/6 4/12/4

v 57.0052 63.8673 -218.215
vt -79.1012 79.1012
vn -0.0180756 -0.0038952 0.999829
vt -36.1823 405.103
vt -79.1012 461.036
f 7/13/7 6/14/7 5/15/7

v 39.8266 77.0709 -218.475
vt -36.1823 135.034
f 8/16/7 6/14/7 7/13/7

v -23.1415 85.4106 -219.58
vt -9.20236 339.967
f 8/16/7 9/17/7 6/14/7

v 19.8169 85.378 -218.804
vt -9.20236 200.17
f 10/18/7 9/17/7 8/16/7

v -1.66033 88.2226 -219.181
vt 0 270.068
f 9/17/7 10/18/7 11/19/7

vt -267.758 2381.09
vn -0.0389328 0.983381 -0.177329
vt -197.256 2381.09
vn 0.21633 0.960922 -0.172715
v 0.387231 6.70801 -331.067
vt -232.674 3153.84
vn 0.0470525 0.983311 -0.175745
f 11/20/8 10/21/9 12/22/10

v 0.842012 6.64812 -331.059
vt -231.402 3153.81
vn 0.298986 0.938768 -0.171235
vt -232.895 3153.81
vt -197.282 2381.06
f 13/23/11 12/24/10 10/25/9

v -1.3117 4.50948 -331.106
vt 273.8 275.309
vn 0.0180756 0.0038952 -0.999829
v -1.37127 4.96182 -331.106
vt 272.328 275.504
v -1.31108 5.41407 -331.103
vt 270.856 275.309
vt 269.485 274.738
vt 268.308 273.829
v -0.491579 6.47455 -331.084
vt 267.404 272.645
v -0.067632 6.64881 -331.075
vt 266.836 271.266
vt 266.642 269.785
vt 266.836 268.305
v 1.26572 6.47322 -331.052
vt 267.404 266.926
v 1.62948 6.19523 -331.046
vt 268.308 265.742
v 1.90849 5.83309 -331.043
vt 269.485 264.833
v 2.08376 5.41149 -331.041
vt 270.856 264.262
v 2.14333 4.95915 -331.042
vt 272.328 264.067
v 2.08314 4.5069 -331.045
vt 273.8 264.262
v 1.90729 4.08557 -331.05
vt 275.171 264.833
v 1.62778 3.72385 -331.056
vt 276.349 265.742
v 1.26364 3.44641 -331.064
vt 277.252 266.926
v 0.83969 3.27216 -331.072
vt 277.82 268.305
v 0.384827 3.21296 -331.081
vt 278.014 269.785
v -0.0699544 3.27285 -331.089
vt 277.82 271.266
v -0.493661 3.44775 -331.096
vt 277.252 272.645
v -0.857418 3.72574 -331.101
vt 276.349 273.829
v -1.13644 4.08788 -331.105
vt 275.171 274.738
f 14/26/12 15/27/12 16/28/12 2/29/12 4/30/12 17/31/12 18/32/12 12/33/12 13/34/12 19/35/12 20/36/12 21/37/12 22/38/12 23/39/12 24/40/12 25/41/12 26/42/12 27/43/12 28/44/12 29/45/12 30/46/12 31/47/12 32/48/12 33/49/12 

vt -235.293 2949.51
vn -0.934847 -0.295548 -0.196753
v -81.8937 -16.2013 -221.038
vt -267.333 2177.51
vn -0.957316 -0.211566 -0.196939
vt -233.808 2949.51
vn -0.979526 -0.0417071 -0.196948
f 14/50/13 34/51/14 15/52/15

vt -110.909 2161.72
vt -147.602 2933.51
v -73.6168 -36.2262 -220.967
vt -181.411 2161.72
vn -0.869512 -0.453392 -0.19592
f 34/53/14 14/54/13 35/55/16

vt -148.358 2933.29
vn -0.82591 -0.528884 -0.195331
vt -180.151 2161.48
vt -146.872 2933.29
f 33/56/17 35/57/16 14/58/13

vt -14.6014 2153.94
vt -51.0581 2925.55
v -60.4401 -53.4265 -220.796
vt -85.1034 2153.94
vn -0.691963 -0.695539 -0.193423
f 35/59/16 33/60/17 36/61/18

vt -51.4777 2925.34
vn -0.690997 -0.696503 -0.193407
vt -83.3127 2153.7
vt -49.9902 2925.34
f 32/62/19 36/63/18 33/64/17

vt 50.08 2926.44
vt 48.5903 2926.44
vn -0.524869 -0.829592 -0.190499
vt 86.8909 2155.02
f 32/65/19 31/66/20 36/67/18

v -43.2615 -66.6301 -220.536
vt 14.6014 2154.76
vn -0.450921 -0.872264 -0.189277
vt 85.1034 2154.76
vt 47.5231 2926.21
f 37/68/21 36/69/18 31/70/20

v 56.9244 -53.5155 -218.674
vt -461.036 79.1012
vt -461.036 461.036
vt -503.955 405.103
f 38/71/7 36/72/7 37/73/7

vt -405.103 503.955
f 38/71/7 35/74/7 36/72/7

v 70.1248 -36.3352 -218.369
vt -405.103 36.1823
f 39/75/7 35/74/7 38/71/7

vt -339.967 530.934
f 39/75/7 34/76/7 35/74/7

v 78.4292 -16.323 -218.14
vt -339.967 9.20236
f 40/77/7 34/76/7 39/75/7

v -1.72899 -11.5743 -219.571
vt -324.714 270.068
f 41/78/7 34/76/7 40/77/7

v -6.0747 -10.9987 -219.647
vt -322.852 284.212
f 42/79/7 34/76/7 41/78/7

v -10.1235 -9.31784 -219.714
vt -317.393 297.391
f 43/80/7 34/76/7 42/79/7

v -13.5994 -6.64622 -219.767
vt -308.709 308.709
f 44/81/7 34/76/7 43/80/7

v -16.2656 -3.1659 -219.801
vt -297.391 317.393
f 45/82/7 34/76/7 44/81/7

v -17.9403 0.885922 -219.816
vt -284.212 322.852
f 46/83/7 34/76/7 45/82/7

v -18.5095 5.23314 -219.809
vt -270.068 324.714
f 47/84/7 34/76/7 46/83/7

v -84.7067 5.28335 -221.006
vt -270.068 540.137
f 47/84/7 48/85/7 34/76/7

v -17.9343 9.57948 -219.782
vt -255.925 322.852
f 49/86/7 48/85/7 47/84/7

v -16.254 13.6288 -219.736
vt -242.746 317.393
f 50/87/7 48/85/7 49/86/7

v -13.583 17.105 -219.674
vt -231.428 308.709
f 51/88/7 48/85/7 50/87/7

v -10.1035 19.7714 -219.6
vt -222.744 297.391
f 52/89/7 48/85/7 51/88/7

v -6.05238 21.4461 -219.521
vt -217.285 284.212
f 53/90/7 48/85/7 52/89/7

vt -200.17 530.934
f 53/90/7 3/91/7 48/85/7

v -1.70588 22.0151 -219.44
vt -215.423 270.068
f 3/91/7 53/90/7 54/92/7

vt -295.876 2521.1
vn 0.000687941 0.999992 0.00390827
vt -310.142 2521.1
vn -0.258112 0.966115 -0.000902487
v -13.0552 19.937 167.831
vt -310.142 0
v -8.7087 20.506 167.912
vt -295.876 0
f 54/93/22 53/94/23 55/95/23 56/96/22 

vt -345.729 2521.1
vt -359.994 2521.1
vn -0.499322 0.866398 -0.00565174
v -17.1063 18.2623 167.751
vt -359.994 0
vt -345.729 0
f 53/97/23 52/98/24 57/99/24 55/100/23 

vt -371.534 2521.1
vt -385.8 2521.1
vn -0.706505 0.707638 -0.0100158
v -20.5859 15.596 167.678
vt -385.8 0
vt -371.534 0
f 52/101/24 51/102/25 58/103/25 57/104/24 

vn -0.86554 0.500653 -0.0136974
v -23.2568 12.1197 167.616
f 51/101/25 50/102/26 59/103/26 58/104/25 

vn -0.96559 0.25955 -0.0164454
v -24.9371 8.07041 167.57
f 50/97/26 49/98/27 60/99/27 59/100/26 

vn -0.999836 0.000758468 -0.0180728
v -25.5123 3.72407 167.543
f 49/93/27 47/94/28 61/95/28 60/96/27 

vt -225.374 2521.1
vt -239.64 2521.1
vn -0.965946 -0.258084 -0.0184685
v -24.9431 -0.623146 167.536
vt -239.64 0
vt -225.374 0
f 47/105/28 46/106/29 62/107/29 61/108/28 

vt -139.027 2521.1
vt -153.293 2521.1
vn -0.866228 -0.499339 -0.0176056
v -23.2684 -4.67497 167.55
vt -153.293 0
vt -139.027 0
f 46/109/29 45/110/30 63/111/30 62/112/29 

vt -42.7198 2521.1
vt -56.9851 2521.1
vn -0.707478 -0.706565 -0.015543
v -20.6022 -8.15529 167.585
vt -56.9851 0
vt -42.7198 0
f 45/113/30 44/114/31 64/115/31 63/116/30 

vt 56.9851 2521.1
vt 42.7198 2521.1
vn -0.500514 -0.865639 -0.0124211
v -17.1263 -10.8269 167.637
vt 42.7198 0
vt 56.9851 0
f 44/117/31 43/118/32 65/119/32 64/120/31 

vt 153.293 2521.1
vt 139.027 2521.1
vn -0.259441 -0.965722 -0.00845268
v -13.0775 -12.5078 167.704
vt 139.027 0
vt 153.293 0
f 43/121/32 42/122/33 66/123/33 65/124/32 

vt 239.64 2521.1
vt 225.374 2521.1
vn -0.000687941 -0.999992 -0.00390827
v -8.7318 -13.0833 167.78
vt 225.374 0
vt 239.64 0
f 42/125/33 41/126/34 67/127/34 66/128/33 

vt 310.142 2521.1
v 2.61751 -11.0053 -219.49
vt 295.876 2521.1
vn 0.258112 -0.966115 0.000902487
v -4.38531 -12.5144 167.861
vt 295.876 0
vt 310.142 0
f 41/129/34 68/130/35 69/131/35 67/132/34 

vt -322.852 255.925
f 40/77/7 68/133/7 41/78/7

v 6.66859 -9.33058 -219.411
vt -317.393 242.746
f 40/77/7 70/134/7 68/133/7

v 10.1482 -6.66423 -219.337
vt -308.709 231.428
f 40/77/7 71/135/7 70/134/7

v 12.8191 -3.18797 -219.275
vt -297.391 222.744
f 40/77/7 72/136/7 71/135/7

v 14.4995 0.861313 -219.229
vt -284.212 217.285
f 40/77/7 73/137/7 72/136/7

v 15.0746 5.20766 -219.202
vt -270.068 215.423
f 40/77/7 74/138/7 73/137/7

v 81.2718 5.15744 -218.005
vt -270.068 0
f 75/139/7 74/138/7 40/77/7

v 14.5054 9.55487 -219.195
vt -255.925 217.285
f 75/139/7 76/140/7 74/138/7

v 12.8307 13.6067 -219.21
vt -242.746 222.744
f 75/139/7 77/141/7 76/140/7

v 10.1645 17.087 -219.244
vt -231.428 231.428
f 75/139/7 78/142/7 77/141/7

v 6.6886 19.7586 -219.297
vt -222.744 242.746
f 75/139/7 79/143/7 78/142/7

v 2.63983 21.4395 -219.364
vt -217.285 255.925
f 75/139/7 80/144/7 79/143/7

v 78.4588 26.6421 -217.973
vt -200.17 9.20236
f 81/145/7 80/144/7 75/139/7

f 81/145/7 54/92/7 80/144/7

f 81/145/7 3/91/7 54/92/7

vt -135.034 503.955
f 81/145/7 1/146/7 3/91/7

v 70.1819 46.667 -218.044
vt -135.034 36.1823
f 82/147/7 1/146/7 81/145/7

f 82/147/7 5/15/7 1/146/7

f 7/13/7 5/15/7 82/147/7

vt 85.1034 2407.96
vn 0.875825 0.454674 -0.161869
vt 52.5769 3180.34
vn 0.832197 0.530129 -0.162513
vt 14.6014 2407.96
vn 0.69822 0.696679 -0.164703
f 82/148/36 21/149/37 7/150/38

vt 146.918 3171.91
vt 110.736 2399.69
vt 148.404 3171.91
vn 0.941231 0.296884 -0.161069
f 21/151/37 82/152/36 22/153/39

vt 181.411 2399.69
vn 0.963741 0.21292 -0.160835
vt 149.11 3171.88
vt 110.909 2399.69
f 81/154/40 22/155/39 82/156/36

vt 233.825 3155.35
vt 197.23 2383.34
vt 235.31 3155.35
vn 0.98604 0.0430729 -0.160842
f 22/157/39 81/158/40 23/159/41

vt 267.758 2383.32
vn 0.985992 -0.0434457 -0.161036
vt 235.531 3155.32
vt 197.256 2383.32
f 75/160/42 23/161/41 81/162/40

vt 304.634 3131.77
vt 267.732 2359.99
vt 306.119 3131.77
vn 0.963401 -0.213684 -0.161854
f 23/163/41 75/164/42 24/165/43

vt 338.26 2360.02
vn 0.94103 -0.296763 -0.162461
vt 305.95 3131.82
vt 267.758 2360.02
f 40/166/44 24/167/43 75/168/42

vt 354.369 3102.87
vt 317.363 2331.28
vt 355.854 3102.87
vn 0.874969 -0.455545 -0.164036
f 24/169/43 40/170/44 25/171/45

vt 388.112 2331.41
vn 0.83203 -0.52962 -0.165011
vt 355.572 3103.02
vt 317.61 2331.41
f 39/172/46 25/173/45 40/174/44

vt 379.645 3070.67
vt 342.811 2299.25
vt 381.132 3070.67
vn 0.69748 -0.696622 -0.168046
f 25/175/45 39/176/46 26/177/47

vt 413.918 2299.44
vn 0.698442 -0.695662 -0.168026
vt 381.016 3070.89
vt 343.416 2299.44
f 38/178/48 26/179/47 39/180/46

vt 343.416 2266.28
v 39.7277 -66.6931 -219.036
vt 413.918 2266.28
vn 0.530723 -0.830063 -0.171255
vt 379.058 3037.61
f 38/181/48 83/182/49 26/183/47

vt -503.955 135.034
f 38/71/7 37/73/7 83/184/7

v 19.7066 -74.9698 -219.431
vt -530.934 200.17
f 83/184/7 37/73/7 84/185/7

v -23.2518 -74.9372 -220.207
vt -530.934 339.967
f 84/185/7 37/73/7 85/186/7

vt 110.909 2164.09
vn -0.209962 -0.96003 -0.185092
vt 181.411 2164.09
vt 144.299 2935.42
vn -0.292656 -0.937849 -0.186526
f 85/187/50 37/188/21 30/189/51

vt 146.52 2935.65
vt 145.028 2935.65
vt 182.665 2164.34
f 31/190/20 30/191/51 37/192/21

vt 232.912 2952.64
vt 231.419 2952.64
vn -0.0406043 -0.982452 -0.182043
vt 268.18 2181.39
f 30/193/51 29/194/52 85/195/50

v -1.77454 -77.7818 -219.83
vt 197.256 2181.28
vn 0.0454285 -0.982528 -0.180485
vt 267.758 2181.28
vt 231.189 2952.53
f 86/196/53 85/197/50 29/198/52

vt -540.137 270.068
f 84/185/7 85/186/7 86/199/7

vt 267.758 2205.16
vn 0.298018 -0.938239 -0.175767
vt 338.26 2205.16
vt 302.273 2976.39
vn 0.214419 -0.960506 -0.177347
f 84/200/54 86/201/53 28/202/55

vt 303.588 2976.27
vt 302.095 2976.27
vt 337.89 2205.03
f 29/203/52 28/204/55 86/205/53

vt 353.887 3005.04
vt 352.395 3005.04
vn 0.455356 -0.873389 -0.172749
vt 387.275 2233.76
f 28/206/55 27/207/56 84/208/54

vt 317.61 2234.13
vt 388.112 2234.13
vt 352.707 3005.39
f 83/209/49 84/210/54 27/211/56

vt 380.387 3037.12
vt 378.897 3037.12
vt 413.038 2265.76
f 27/212/56 26/213/47 83/214/49

vt 50.0528 3180.3
vn 0.697254 0.697642 -0.164718
vt 14.2942 2407.87
vt 51.5403 3180.3
f 20/215/57 7/216/38 21/217/37

vt -48.5277 3180.11
vt -50.0175 3180.11
vn 0.531127 0.830623 -0.167243
vt -14.9081 2407.59
f 20/218/57 19/219/58 7/220/38

vt -85.1034 2407.51
vn 0.457199 0.873253 -0.168519
vt -14.6014 2407.51
vt -48.9815 3180.06
f 8/221/59 7/222/38 19/223/58

vt -144.982 3171
vt -146.474 3171
vt -111.081 2398.35
f 19/224/58 13/225/11 8/226/59

vt -181.411 2398.36
vt -110.909 2398.36
vt -145.768 3171.03
f 10/227/9 8/228/59 13/229/11

vn 0.259441 0.965722 0.00845268
v -4.36299 19.9304 167.988
f 80/105/60 54/106/22 56/107/22 87/108/60 

v 3.16169 15.5779 168.107
v -0.314219 18.2496 168.055
v -0.334231 -10.8396 167.941
v 3.14535 -8.1733 168.014
v 5.81632 -4.69704 168.076
v 7.49664 -0.647755 168.122
v 8.0718 3.69859 168.15
v 7.50262 8.0458 168.156
v 5.82787 12.0976 168.142
f 88/142/7 89/143/7 87/144/7 56/92/7 55/90/7 57/89/7 58/88/7 59/87/7 60/86/7 61/84/7 62/83/7 63/82/7 64/81/7 65/80/7 66/79/7 67/78/7 69/133/7 90/134/7 91/135/7 92/136/7 93/137/7 94/138/7 95/140/7 96/141/7 

vn 0.707478 0.706565 0.015543
vn 0.500514 0.865639 0.0124211
f 78/113/61 79/114/62 89/115/62 88/116/61 

f 79/109/62 80/110/60 87/111/60 89/112/62 

vn 0.866228 0.499339 0.0176056
f 77/117/63 78/118/61 88/119/61 96/120/63 

vn 0.965946 0.258084 0.0184685
f 76/121/64 77/122/63 96/123/63 95/124/64 

vn 0.999836 -0.000758468 0.0180728
f 74/125/65 76/126/64 95/127/64 94/128/65 

vn 0.96559 -0.25955 0.0164454
f 73/129/66 74/130/65 94/131/65 93/132/66 

vt 359.994 2521.1
vn 0.86554 -0.500653 0.0136974
vt 345.729 2521.1
vt 345.729 0
vt 359.994 0
f 72/230/67 73/231/66 93/232/66 92/233/67 

vt 385.8 2521.1
vn 0.706505 -0.707638 0.0100158
vt 371.534 2521.1
vt 371.534 0
vt 385.8 0
f 71/234/68 72/235/67 92/236/67 91/237/68 

vn 0.499322 -0.866398 0.00565174
f 70/234/69 71/235/68 91/236/68 90/237/69 

f 68/230/35 70/231/69 90/232/69 69/233/35 

vt -267.758 2200.6
vt -304.474 2972.79
vn -0.956761 0.215011 -0.195904
vt -338.26 2200.6
vn -0.979434 0.0448055 -0.196726
f 3/238/3 16/239/70 48/240/71

vt -355.9 3001.85
vt -388.952 2229.5
vt -354.415 3001.85
f 16/241/70 3/242/3 2/243/2

vt -306.135 2972.9
vt -338.632 2200.72
vt -304.651 2972.9
f 15/244/15 48/245/71 16/246/70

vt -197.256 2177.62
vt -234.038 2949.61
vt -267.758 2177.62
f 48/247/71 15/248/15 34/249/14

vt -378.96 3067.72
vn -0.448663 0.874325 -0.185086
vt -380.449 3067.72
vt -344.017 2295.01
f 17/250/72 4/251/4 6/252/6

vt -388.112 2327.45
vt -317.61 2327.45
vn -0.291393 0.939121 -0.182047
vt -354.222 3100.2
f 6/253/6 9/254/73 17/255/72

vt -352.441 3100.36
vn -0.207837 0.961371 -0.180468
vt -353.933 3100.36
vt -317.856 2327.59
f 18/256/74 17/257/72 9/258/73

vt -338.26 2356.89
vt -267.758 2356.89
vt -303.774 3129.67
f 9/259/73 11/260/8 18/261/74

vt -302.112 3129.72
vt -303.604 3129.72
vt -267.784 2356.93
f 12/262/10 18/263/74 11/264/8

