# WaveFront *.obj file (generated by CINEMA 4D)


v -3 -2 -3
v -3 2 -3
v 3 -2 -3
v 3 2 -3
v -3 -2 2.94000005722046
v 3 -2 2.94000005722046
v -0 0.20001497864723 -3
v 0.10418890416622 0.19089964032173 -3
v 0.20521208643913 0.16383056342602 -3
v 0.30000001192093 0.11963022500277 -3
v 0.3856725692749 0.05964165180922 -3
v 0.4596266746521 -0.01431244891137 -3
v 0.51961523294449 -0.09998501837254 -3
v 0.56381559371948 -0.19477292895317 -3
v 0.59088462591171 -0.29579609632492 -3
v 0.60000002384186 -0.3999850153923 -3
v 0.59088462591171 -0.50417393445969 -3
v 0.56381559371948 -0.60519707202911 -3
v 0.51961523294449 -0.69998502731323 -3
v 0.4596266746521 -0.78565758466721 -3
v 0.3856725692749 -0.8596116900444 -3
v 0.30000001192093 -0.91960024833679 -3
v 0.20521208643913 -0.96380060911179 -3
v 0.10418890416622 -0.99086964130402 -3
v -0 -0.99998503923416 -3
v -0.10418890416622 -0.99086964130402 -3
v -0.20521208643913 -0.96380060911179 -3
v -0.30000001192093 -0.91960024833679 -3
v -0.3856725692749 -0.8596116900444 -3
v -0.4596266746521 -0.78565758466721 -3
v -0.51961523294449 -0.69998502731323 -3
v -0.56381559371948 -0.60519707202911 -3
v -0.59088462591171 -0.50417393445969 -3
v -0.60000002384186 -0.3999850153923 -3
v -0.59088462591171 -0.29579609632492 -3
v -0.56381559371948 -0.19477292895317 -3
v -0.51961523294449 -0.09998501837254 -3
v -0.4596266746521 -0.01431244891137 -3
v -0.3856725692749 0.05964165180922 -3
v -0.30000001192093 0.11963022500277 -3
v -0.20521208643913 0.16383056342602 -3
v -0.10418890416622 0.19089964032173 -3
v -3 2 2.94000005722046
v -3 -2 3
v -3 2 3
v 3 -2 3
v 3 2 3
v 3 2 2.94000005722046
v 0.51961523294449 -0.09998501837254 3
v 0.56381559371948 -0.19477292895317 3
v 0.3856725692749 -0.8596116900444 3
v 0.30000001192093 -0.91960024833679 3
v 0.20521208643913 -0.96380060911179 3
v 0.10418890416622 -0.99086964130402 3
v 0 -0.99998503923416 3
v -0.10418890416622 -0.99086964130402 3
v -0.20521208643913 -0.96380060911179 3
v -0.30000001192093 -0.91960024833679 3
v -0.3856725692749 -0.8596116900444 3
v -0.4596266746521 -0.78565758466721 3
v -0.51961523294449 -0.69998502731323 3
v -0.56381559371948 -0.60519707202911 3
v -0.59088462591171 -0.50417393445969 3
v -0.60000002384186 -0.3999850153923 3
v -0.59088462591171 -0.29579609632492 3
v -0.56381559371948 -0.19477292895317 3
v -0.51961523294449 -0.09998501837254 3
v -0.4596266746521 -0.01431244891137 3
v -0.3856725692749 0.05964165180922 3
v 0.20521208643913 0.16383056342602 2.94000005722046
v 0.30000001192093 0.11963022500277 2.94000005722046
v 0.3856725692749 0.05964165180922 2.94000005722046
v 0.4596266746521 -0.01431244891137 2.94000005722046
v 0.51961523294449 -0.09998501837254 2.94000005722046
v 0.56381559371948 -0.19477292895317 2.94000005722046
v 0.59088462591171 -0.29579609632492 2.94000005722046
v 0.60000002384186 -0.3999850153923 2.94000005722046
v 0.10418890416622 -0.99086964130402 2.94000005722046
v 0 -0.99998503923416 2.94000005722046
v -0.10418890416622 -0.99086964130402 2.94000005722046
v -0.51961523294449 -0.69998502731323 2.94000005722046
v -0.56381559371948 -0.60519707202911 2.94000005722046
v -0.59088462591171 -0.50417393445969 2.94000005722046
v -0.4596266746521 -0.01431244891137 2.94000005722046
v -0.10418890416622 0.19089964032173 2.94000005722046
v 0 0.20001497864723 3
v 0.10418890416622 0.19089964032173 3
v 0.20521208643913 0.16383056342602 3
v 0.30000001192093 0.11963022500277 3
v 0.3856725692749 0.05964165180922 3
v 0.4596266746521 -0.01431244891137 3
v 0.59088462591171 -0.29579609632492 3
v 0.60000002384186 -0.3999850153923 3
v 0.59088462591171 -0.50417393445969 3
v 0.56381559371948 -0.60519707202911 3
v 0.51961523294449 -0.69998502731323 3
v 0.4596266746521 -0.78565758466721 3
v -0.30000001192093 0.11963022500277 3
v -0.20521208643913 0.16383056342602 3
v -0.10418890416622 0.19089964032173 3
v 0 0.20001497864723 2.94000005722046
v 0.10418890416622 0.19089964032173 2.94000005722046
v 0.59088462591171 -0.50417393445969 2.94000005722046
v 0.56381559371948 -0.60519707202911 2.94000005722046
v 0.51961523294449 -0.69998502731323 2.94000005722046
v 0.4596266746521 -0.78565758466721 2.94000005722046
v 0.3856725692749 -0.8596116900444 2.94000005722046
v 0.30000001192093 -0.91960024833679 2.94000005722046
v 0.20521208643913 -0.96380060911179 2.94000005722046
v -0.20521208643913 -0.96380060911179 2.94000005722046
v -0.30000001192093 -0.91960024833679 2.94000005722046
v -0.3856725692749 -0.8596116900444 2.94000005722046
v -0.4596266746521 -0.78565758466721 2.94000005722046
v -0.60000002384186 -0.3999850153923 2.94000005722046
v -0.59088462591171 -0.29579609632492 2.94000005722046
v -0.56381559371948 -0.19477292895317 2.94000005722046
v -0.51961523294449 -0.09998501837254 2.94000005722046
v -0.3856725692749 0.05964165180922 2.94000005722046
v -0.30000001192093 0.11963022500277 2.94000005722046
v -0.20521208643913 0.16383056342602 2.94000005722046
# 120 vertices

vn 1 0 0
vn 0 0 0
vn 0 1 0
vn -1 0 0
vn 0 0 1
vn 0 0 1
vn 0 0 1
vn 0 -1 0
vn 0 0 -1
vn 0 0 -1
vn 1 0 0
vn -0.02915046177804 -0.99957501888275 0
vn 0.02915046177804 -0.99957501888275 0
vn -0.14486669003963 -0.98945116996765 0
vn -0.2022819519043 -0.97932732105255 0
vn -0.3144822716713 -0.94926333427429 0
vn -0.36926731467247 -0.92932325601578 0
vn -0.47454246878624 -0.88023263216019 0
vn -0.52503263950348 -0.85108208656311 0
vn -0.6201838850975 -0.78445643186569 0
vn -0.66484504938126 -0.74698132276535 0
vn -0.74698138237 -0.66484493017197 0
vn -0.85108214616776 -0.52503252029419 0
vn -0.88023257255554 -0.47454252839088 0
vn -0.78445655107498 -0.62018382549286 0
vn -0.92932319641113 -0.36926731467247 0
vn -0.94926339387894 -0.31448212265968 0
vn -0.97932732105255 -0.20228192210197 0
vn -0.98945116996765 -0.14486691355705 0
vn -0.99957501888275 -0.02915065176785 0
vn -0.99957501888275 0.02915065176785 0
vn -0.98945116996765 0.14486694335938 0
vn -0.97932732105255 0.2022819519043 0
vn -0.94926339387894 0.31448212265968 0
vn -0.92932325601578 0.36926725506783 0
vn -0.88023263216019 0.47454246878624 0
vn -0.85108214616776 0.52503252029419 0
vn -0.78445649147034 0.62018382549286 0
vn -0.74698132276535 0.66484498977661 0
vn -0.66484498977661 0.74698132276535 0
vn -0.62018382549286 0.78445649147034 0
vn -0.52503257989883 0.85108214616776 0
vn -0.47454252839088 0.88023257255554 0
vn -0.36926725506783 0.92932325601578 0
vn -0.31448206305504 0.94926339387894 0
vn -0.20228187739849 0.97932732105255 0
vn -0.14486691355705 0.98945116996765 0
vn -0.0291506536305 0.99957501888275 -0
vn 0.0291506536305 0.99957501888275 -0
vn 0.14486691355705 0.98945116996765 -0
vn 0.20228187739849 0.97932732105255 0
vn 0.31448206305504 0.94926339387894 0
vn 0.36926725506783 0.92932325601578 0
vn 0.47454252839088 0.88023257255554 0
vn 0.52503257989883 0.85108214616776 0
vn 0.62018382549286 0.78445649147034 0
vn 0.66484498977661 0.74698132276535 0
vn 0.74698132276535 0.66484498977661 0
vn 0.78445649147034 0.62018382549286 0
vn 0.85108214616776 0.52503252029419 0
vn 0.88023263216019 0.47454246878624 0
vn 0.92932325601578 0.36926725506783 0
vn 0.94926339387894 0.31448212265968 0
vn 0.97932732105255 0.2022819519043 0
vn 0.98945116996765 0.14486694335938 0
vn 0.99957501888275 0.02915065176785 0
vn 0.99957501888275 -0.02915065176785 0
vn 0.98945116996765 -0.14486691355705 0
vn 0.97932732105255 -0.20228192210197 0
vn 0.94926339387894 -0.31448212265968 0
vn 0.92932319641113 -0.36926731467247 0
vn 0.88023257255554 -0.47454252839088 0
vn 0.85108214616776 -0.52503252029419 0
vn 0.78445655107498 -0.62018382549286 0
vn 0.74698132276535 -0.66484498977661 0
vn 0.66484504938126 -0.74698132276535 0
vn 0.6201838850975 -0.78445643186569 0
vn 0.52503263950348 -0.85108208656311 0
vn 0.47454246878624 -0.88023263216019 0
vn 0.36926731467247 -0.92932325601578 0
vn 0.3144822716713 -0.94926333427429 0
vn 0.2022819519043 -0.97932732105255 0
vn 0.14486669003963 -0.98945116996765 0
vn 0 1 0
# 84 normals

vt 0.34557139873505 0.01069247722626 0
vt 0.34557139873505 0.27769267559052 0
vt 0.66086226701736 0.27769267559052 0
vt 0.45066836476326 0.18869256973267 0
vt 0.65923380851746 0.99065274000168 0
vt 0.65923380851746 0.58611708879471 0
vt 0.34076622128487 0.58611708879471 0
vt 0.55307793617249 0.72096234560013 0
vt 0.67568790912628 0.72230744361877 0
vt 0.67568790912628 0.98930770158768 0
vt 0.9909787774086 0.98930770158768 0
vt 0.78078484535217 0.90030759572983 0
vt 0.32831308245659 0.29840648174286 0
vt 0.16827508807182 0.36549293994904 0
vt 0.17383316159248 0.36610448360443 0
vt 0.22347377240658 0.34333455562592 0
vt 0.17922233045101 0.36792039871216 0
vt 0.16271702945232 0.36610448360443 0
vt 0.18427889049053 0.37088561058044 0
vt 0.15732784569263 0.36792039871216 0
vt 0.00823708903044 0.29840648174286 0
vt 0.18884918093681 0.37490999698639 0
vt 0.15227128565311 0.37088561058044 0
vt 0.19279432296753 0.37987124919891 0
vt 0.14770099520683 0.37490999698639 0
vt 0.19599448144436 0.38561868667603 0
vt 0.14375585317612 0.37987124919891 0
vt 0.19835239648819 0.39197754859924 0
vt 0.14055569469929 0.38561868667603 0
vt 0.13819777965546 0.39197754859924 0
vt 0.199796423316 0.39875471591949 0
vt 0.13675375282764 0.39875471591949 0
vt 0.20028269290924 0.40574419498444 0
vt 0.13626748323441 0.40574419498444 0
vt 0.32831308245659 0.56674844026566 0
vt 0.199796423316 0.41273391246796 0
vt 0.19835239648819 0.41951096057892 0
vt 0.13675375282764 0.41273391246796 0
vt 0.00823708903044 0.56674844026566 0
vt 0.19599448144436 0.42586994171143 0
vt 0.13819777965546 0.41951096057892 0
vt 0.19279432296753 0.43161737918854 0
vt 0.14055569469929 0.42586994171143 0
vt 0.14375585317612 0.43161737918854 0
vt 0.18884918093681 0.43657863140106 0
vt 0.14770099520683 0.43657863140106 0
vt 0.18427889049053 0.44060289859772 0
vt 0.15227128565311 0.44060289859772 0
vt 0.17922233045101 0.443568110466 0
vt 0.15732784569263 0.443568110466 0
vt 0.17383316159248 0.44538402557373 0
vt 0.16271702945232 0.44538402557373 0
vt 0.16827508807182 0.44599556922913 0
vt 0.32510429620743 0.98964142799377 0
vt 0.32510429620743 0.58712846040726 0
vt 0.00822904612869 0.58712846040726 0
vt 0.21947920322418 0.72129946947098 0
vt 0.66566747426987 0.29773223400116 0
vt 0.50482529401779 0.36515581607819 0
vt 0.51041126251221 0.36577045917511 0
vt 0.56030136346817 0.34288609027863 0
vt 0.51582753658295 0.36759543418884 0
vt 0.49923926591873 0.36577045917511 0
vt 0.52090948820114 0.37057554721832 0
vt 0.49382302165031 0.36759543418884 0
vt 0.34398305416107 0.29773223400116 0
vt 0.52550274133682 0.37462019920349 0
vt 0.4887410402298 0.37057554721832 0
vt 0.52946770191193 0.37960636615753 0
vt 0.48414778709412 0.37462019920349 0
vt 0.53268396854401 0.38538265228271 0
vt 0.48018279671669 0.37960636615753 0
vt 0.53505373001099 0.39177346229553 0
vt 0.47696658968925 0.38538265228271 0
vt 0.47459682822227 0.39177346229553 0
vt 0.53650498390198 0.3985847234726 0
vt 0.47314554452896 0.3985847234726 0
vt 0.53699368238449 0.40560936927795 0
vt 0.47265681624413 0.40560936927795 0
vt 0.66566747426987 0.56742262840271 0
vt 0.53650498390198 0.4126341342926 0
vt 0.53505373001099 0.41944527626038 0
vt 0.47314554452896 0.4126341342926 0
vt 0.34398305416107 0.56742262840271 0
vt 0.53268396854401 0.42583620548248 0
vt 0.47459682822227 0.41944527626038 0
vt 0.52946770191193 0.43161249160767 0
vt 0.47696658968925 0.42583620548248 0
vt 0.48018279671669 0.43161249160767 0
vt 0.52550274133682 0.43659865856171 0
vt 0.48414778709412 0.43659865856171 0
vt 0.52090948820114 0.44064319133759 0
vt 0.4887410402298 0.44064319133759 0
vt 0.51582753658295 0.44362330436707 0
vt 0.49382302165031 0.44362330436707 0
vt 0.51041126251221 0.44544839859009 0
vt 0.49923926591873 0.44544839859009 0
vt 0.50482529401779 0.44606292247772 0
vt 0.32831308245659 0.01002156734467 0
vt 0.16827508807182 0.07710802555084 0
vt 0.17383316159248 0.07771944999695 0
vt 0.22347377240658 0.05494964122772 0
vt 0.00823708903044 0.01002156734467 0
vt 0.17922233045101 0.07953548431396 0
vt 0.18427889049053 0.08250069618225 0
vt 0.15732784569263 0.07953548431396 0
vt 0.16271702945232 0.07771944999695 0
vt 0.18884918093681 0.0865250825882 0
vt 0.15227128565311 0.08250069618225 0
vt 0.19279432296753 0.09148633480072 0
vt 0.14770099520683 0.0865250825882 0
vt 0.19599448144436 0.09723377227783 0
vt 0.14375585317612 0.09148633480072 0
vt 0.19835239648819 0.10359263420105 0
vt 0.14055569469929 0.09723377227783 0
vt 0.13819777965546 0.10359263420105 0
vt 0.199796423316 0.1103698015213 0
vt 0.13675375282764 0.1103698015213 0
vt 0.20028269290924 0.11735928058624 0
vt 0.13626748323441 0.11735928058624 0
vt 0.32831308245659 0.27836346626282 0
vt 0.199796423316 0.12434887886047 0
vt 0.19835239648819 0.13112604618073 0
vt 0.13675375282764 0.12434887886047 0
vt 0.00823708903044 0.27836346626282 0
vt 0.19599448144436 0.13748502731323 0
vt 0.13819777965546 0.13112604618073 0
vt 0.19279432296753 0.14323234558105 0
vt 0.14055569469929 0.13748502731323 0
vt 0.14375585317612 0.14323234558105 0
vt 0.18884918093681 0.14819371700287 0
vt 0.14770099520683 0.14819371700287 0
vt 0.18427889049053 0.15221798419952 0
vt 0.15227128565311 0.15221798419952 0
vt 0.17922233045101 0.15518319606781 0
vt 0.15732784569263 0.15518319606781 0
vt 0.17383316159248 0.15699911117554 0
vt 0.16271702945232 0.15699911117554 0
vt 0.16827508807182 0.15761065483093 0
vt 0.68375009298325 0.29773223400116 0
vt 0.68053323030472 0.29773223400116 0
vt 0.68053323030472 0.70226782560349 0
vt 0.68160551786423 0.43257737159729 0
vt 0.71669840812683 0.70226782560349 0
vt 0.71991527080536 0.70226782560349 0
vt 0.71991527080536 0.43257737159729 0
vt 0.71884298324585 0.61237102746964 0
vt 0.70183265209198 0.29773223400116 0
vt 0.6986158490181 0.29773223400116 0
vt 0.6986158490181 0.70226782560349 0
vt 0.69968813657761 0.43257737159729 0
vt 0.71991527080536 0.1441924571991 0
vt 0.71669840812683 0.1441924571991 0
vt 0.71669840812683 0.41388297080994 0
vt 0.71777069568634 0.23408925533295 0
vt 0.68053323030472 0.17734789848328 0
vt 0.68375009298325 0.17734789848328 0
vt 0.68375009298325 0.17032325267792 0
vt 0.68267780542374 0.17500627040863 0
vt 0.6986158490181 0.22935402393341 0
vt 0.70183265209198 0.22935402393341 0
vt 0.70183265209198 0.22254276275635 0
vt 0.69968813657761 0.21230101585388 0
vt 0.6986158490181 0.22254276275635 0
vt 0.70183265209198 0.21615183353424 0
vt 0.6986158490181 0.21615183353424 0
vt 0.70183265209198 0.21037566661835 0
vt 0.6986158490181 0.21037566661835 0
vt 0.70183265209198 0.20538949966431 0
vt 0.68375009298325 0.14585244655609 0
vt 0.68053323030472 0.14585244655609 0
vt 0.68053323030472 0.15162873268127 0
vt 0.68160551786423 0.12094247341156 0
vt 0.68375009298325 0.13946163654327 0
vt 0.68053323030472 0.13946163654327 0
vt 0.68375009298325 0.13265037536621 0
vt 0.68053323030472 0.13265037536621 0
vt 0.68375009298325 0.12562561035156 0
vt 0.68053323030472 0.12562561035156 0
vt 0.68375009298325 0.1186009645462 0
vt 0.68053323030472 0.1186009645462 0
vt 0.70183265209198 0.10746085643768 0
vt 0.6986158490181 0.10746085643768 0
vt 0.6986158490181 0.11427211761475 0
vt 0.69968813657761 0.10320031642914 0
vt 0.70183265209198 0.10107004642487 0
vt 0.6986158490181 0.10107004642487 0
vt 0.70183265209198 0.1826503276825 0
vt 0.6986158490181 0.1826503276825 0
vt 0.6986158490181 0.18669497966766 0
vt 0.70076042413712 0.169757604599 0
vt 0.70183265209198 0.17766416072845 0
vt 0.6986158490181 0.17766416072845 0
vt 0.70183265209198 0.17188787460327 0
vt 0.6986158490181 0.17188787460327 0
vt 0.70183265209198 0.16549706459045 0
vt 0.6986158490181 0.14680254459381 0
vt 0.70183265209198 0.14680254459381 0
vt 0.70183265209198 0.13999128341675 0
vt 0.70076042413712 0.13764977455139 0
vt 0.6986158490181 0.13999128341675 0
vt 0.70183265209198 0.13296663761139 0
vt 0.6986158490181 0.27903771400452 0
vt 0.70183265209198 0.27903771400452 0
vt 0.70183265209198 0.27201306819916 0
vt 0.70076042413712 0.27669620513916 0
vt 0.6986158490181 0.27201306819916 0
vt 0.70183265209198 0.26520180702209 0
vt 0.6986158490181 0.26520180702209 0
vt 0.70183265209198 0.25881087779999 0
vt 0.6986158490181 0.25881087779999 0
vt 0.70183265209198 0.25303471088409 0
vt 0.6986158490181 0.25303471088409 0
vt 0.70183265209198 0.24804842472076 0
vt 0.68375009298325 0.22703158855438 0
vt 0.68053323030472 0.22703158855438 0
vt 0.68053323030472 0.23280787467957 0
vt 0.68160551786423 0.22895705699921 0
vt 0.68375009298325 0.23280787467957 0
vt 0.68053323030472 0.23919868469238 0
vt 0.68375009298325 0.23919868469238 0
vt 0.68053323030472 0.24600994586945 0
vt 0.68375009298325 0.24600994586945 0
vt 0.68053323030472 0.25303471088409 0
vt 0.68375009298325 0.25303471088409 0
vt 0.68053323030472 0.26005935668945 0
vt 0.68375009298325 0.26005935668945 0
vt 0.68053323030472 0.26687061786652 0
vt 0.68375009298325 0.26687061786652 0
vt 0.68053323030472 0.27326142787933 0
vt 0.68375009298325 0.27326142787933 0
vt 0.68053323030472 0.27903771400452 0
vt 0.68053323030472 0.20833706855774 0
vt 0.68375009298325 0.20833706855774 0
vt 0.68375009298325 0.2033509016037 0
vt 0.68053323030472 0.2033509016037 0
vt 0.68375009298325 0.19757461547852 0
vt 0.68053323030472 0.19757461547852 0
vt 0.68375009298325 0.1911838054657 0
vt 0.68053323030472 0.1911838054657 0
vt 0.68375009298325 0.18437254428864 0
vt 0.68053323030472 0.18437254428864 0
vt 0.66086226701736 0.01069247722626 0
vt 0.34076622128487 0.99065274000168 0
vt 0.9909787774086 0.72230744361877 0
vt 0.00822904612869 0.98964142799377 0
vt 0.68375009298325 0.70226782560349 0
vt 0.71669840812683 0.43257737159729 0
vt 0.70183265209198 0.70226782560349 0
vt 0.71991527080536 0.41388297080994 0
vt 0.68053323030472 0.17032325267792 0
vt 0.6986158490181 0.20538949966431 0
vt 0.68375009298325 0.15162873268127 0
vt 0.70183265209198 0.11427211761475 0
vt 0.70183265209198 0.18669497966766 0
vt 0.6986158490181 0.16549706459045 0
vt 0.6986158490181 0.13296663761139 0
vt 0.6986158490181 0.24804842472076 0
vt 0.68375009298325 0.27903771400452 0
# 259 texture coordinates

o VR_Editable.1
usemtl VR Editable.15
f 2/3/1 43/2/1 5/1/1
f 1/7/3 5/6/3 6/5/3
f 48/11/4 4/10/4 3/9/4
f 24/15/5 25/14/5 3/13/5
f 23/17/5 24/15/5 3/13/5
f 3/13/5 25/14/5 26/18/5
f 22/19/5 23/17/5 3/13/5
f 1/21/5 26/18/5 27/20/6
f 21/22/5 22/19/5 3/13/5
f 1/21/5 27/20/6 28/23/6
f 20/24/5 21/22/5 3/13/5
f 1/21/5 28/23/6 29/25/6
f 19/26/5 20/24/5 3/13/5
f 1/21/5 29/25/6 30/27/6
f 18/28/5 19/26/5 3/13/5
f 1/21/5 30/27/6 31/29/6
f 1/21/5 31/29/6 32/30/6
f 17/31/5 18/28/5 3/13/5
f 1/21/5 32/30/6 33/32/6
f 16/33/5 17/31/5 3/13/5
f 1/21/5 33/32/6 34/34/5
f 15/36/5 16/33/5 4/35/5
f 14/37/5 15/36/5 4/35/5
f 2/39/5 34/34/5 35/38/7
f 13/40/5 14/37/5 4/35/5
f 2/39/5 35/38/7 36/41/7
f 12/42/5 13/40/5 4/35/5
f 2/39/5 36/41/7 37/43/7
f 2/39/5 37/43/7 38/44/7
f 11/45/5 12/42/5 4/35/5
f 2/39/5 38/44/7 39/46/7
f 10/47/5 11/45/5 4/35/5
f 2/39/5 39/46/7 40/48/7
f 9/49/5 10/47/5 4/35/5
f 2/39/5 40/48/7 41/50/7
f 8/51/5 9/49/5 4/35/5
f 2/39/5 41/50/7 42/52/7
f 2/39/5 42/52/7 7/53/5
f 8/51/5 4/35/5 2/39/5
f 4/56/8 48/55/8 43/54/8
f 54/60/5 55/59/5 46/58/5
f 53/62/5 54/60/5 46/58/5
f 46/58/5 55/59/5 56/63/5
f 52/64/5 53/62/5 46/58/5
f 44/66/5 56/63/5 57/65/6
f 51/67/5 52/64/5 46/58/5
f 44/66/5 57/65/6 58/68/6
f 97/69/5 51/67/5 46/58/5
f 44/66/5 58/68/6 59/70/6
f 96/71/5 97/69/5 46/58/5
f 44/66/5 59/70/6 60/72/6
f 95/73/5 96/71/5 46/58/5
f 44/66/5 60/72/6 61/74/6
f 44/66/5 61/74/6 62/75/6
f 94/76/5 95/73/5 46/58/5
f 44/66/5 62/75/6 63/77/6
f 93/78/5 94/76/5 46/58/5
f 44/66/5 63/77/6 64/79/5
f 92/81/5 93/78/5 47/80/5
f 50/82/5 92/81/5 47/80/5
f 45/84/5 64/79/5 65/83/7
f 49/85/5 50/82/5 47/80/5
f 45/84/5 65/83/7 66/86/7
f 91/87/5 49/85/5 47/80/5
f 45/84/5 66/86/7 67/88/7
f 45/84/5 67/88/7 68/89/7
f 90/90/5 91/87/5 47/80/5
f 45/84/5 68/89/7 69/91/7
f 89/92/5 90/90/5 47/80/5
f 45/84/5 69/91/7 98/93/7
f 88/94/5 89/92/5 47/80/5
f 45/84/5 98/93/7 99/95/7
f 87/96/5 88/94/5 47/80/5
f 45/84/5 99/95/7 100/97/7
f 86/98/5 87/96/5 47/80/5
f 45/84/5 100/97/7 86/98/5
f 80/101/9 79/100/9 5/99/9
f 6/103/9 5/99/9 79/100/9
f 110/104/9 80/101/9 5/99/9
f 111/105/9 110/104/9 5/99/9
f 6/103/9 78/107/9 109/106/9
f 112/108/9 111/105/9 5/99/9
f 6/103/9 109/106/9 108/109/9
f 113/110/9 112/108/9 5/99/9
f 6/103/9 108/109/9 107/111/9
f 81/112/9 113/110/9 5/99/9
f 6/103/9 107/111/9 106/113/9
f 82/114/9 81/112/9 5/99/9
f 6/103/9 106/113/9 105/115/9
f 6/103/9 105/115/9 104/116/9
f 83/117/9 82/114/9 5/99/9
f 6/103/9 104/116/9 103/118/9
f 114/119/9 83/117/9 5/99/9
f 6/103/9 103/118/9 77/120/9
f 115/122/9 114/119/9 43/121/9
f 116/123/9 115/122/9 43/121/9
f 48/125/9 77/120/9 76/124/10
f 117/126/9 116/123/9 43/121/9
f 48/125/9 76/124/10 75/127/10
f 84/128/9 117/126/9 43/121/9
f 48/125/9 75/127/10 74/129/10
f 48/125/9 74/129/10 73/130/10
f 118/131/9 84/128/9 43/121/9
f 48/125/9 73/130/10 72/132/10
f 119/133/9 118/131/9 43/121/9
f 48/125/9 72/132/10 71/134/10
f 120/135/9 119/133/9 43/121/9
f 48/125/9 71/134/10 70/136/10
f 85/137/9 120/135/9 43/121/9
f 48/125/9 70/136/10 102/138/10
f 48/125/9 102/138/10 101/139/9
f 85/137/9 43/121/9 48/125/9
f 5/142/8 6/141/8 46/140/8
f 6/146/1 48/145/11 47/144/1
f 48/150/3 43/149/3 45/148/3
f 43/154/4 5/153/4 44/152/4
f 87/158/14 86/157/13 101/156/12
f 88/162/16 87/161/14 102/160/15
f 89/165/18 88/162/16 70/164/17
f 90/167/20 89/165/18 71/166/19
f 91/169/22 90/167/20 72/168/21
f 73/172/25 74/171/24 49/170/23
f 74/171/24 75/175/27 50/174/26
f 75/175/27 76/177/29 92/176/28
f 76/177/29 77/179/31 93/178/30
f 77/179/31 103/181/33 94/180/32
f 103/184/33 104/183/35 95/182/34
f 104/183/35 105/187/37 96/186/36
f 105/190/37 106/189/39 97/188/38
f 51/192/40 97/188/38 106/189/39
f 52/194/42 51/192/40 107/193/41
f 53/196/44 52/194/42 108/195/43
f 54/199/46 53/198/44 109/197/45
f 55/202/48 54/199/46 78/201/47
f 56/205/50 55/204/48 79/203/49
f 57/208/52 56/205/50 80/207/51
f 58/210/54 57/208/52 110/209/53
f 59/212/56 58/210/54 111/211/55
f 60/214/58 59/212/56 112/213/57
f 61/217/60 60/216/58 113/215/59
f 62/220/62 61/217/60 81/219/61
f 63/222/64 62/220/62 82/221/63
f 64/224/66 63/222/64 83/223/65
f 65/226/68 64/224/66 114/225/67
f 66/228/70 65/226/68 115/227/69
f 67/230/72 66/228/70 116/229/71
f 68/232/74 67/230/72 117/231/73
f 69/235/76 68/234/74 84/233/75
f 98/237/78 69/235/76 118/236/77
f 99/239/80 98/237/78 119/238/79
f 100/241/82 99/239/80 120/240/81
f 86/157/13 100/241/82 85/242/83
f 1/243/1 2/3/1 5/1/1
f 3/244/84 1/7/3 6/5/3
f 6/245/4 48/11/4 3/9/4
f 1/21/5 3/13/5 26/18/5
f 4/35/5 16/33/5 3/13/5
f 2/39/5 1/21/5 34/34/5
f 7/53/5 8/51/5 2/39/5
f 2/246/8 4/56/8 43/54/8
f 44/66/5 46/58/5 56/63/5
f 47/80/5 93/78/5 46/58/5
f 45/84/5 44/66/5 64/79/5
f 47/80/5 45/84/5 86/98/5
f 78/107/9 6/103/9 79/100/9
f 43/121/9 114/119/9 5/99/9
f 48/125/9 6/103/9 77/120/9
f 101/139/9 85/137/9 48/125/9
f 44/247/8 5/142/8 46/140/8
f 46/248/1 6/146/1 47/144/1
f 47/249/3 48/150/3 45/148/3
f 45/250/4 43/154/4 44/152/4
f 102/251/15 87/158/14 101/156/12
f 70/164/17 88/162/16 102/160/15
f 71/166/19 89/165/18 70/164/17
f 72/168/21 90/167/20 71/166/19
f 73/252/25 91/169/22 72/168/21
f 91/253/22 73/172/25 49/170/23
f 49/170/23 74/171/24 50/174/26
f 50/174/26 75/175/27 92/176/28
f 92/176/28 76/177/29 93/178/30
f 93/178/30 77/179/31 94/180/32
f 94/254/32 103/184/33 95/182/34
f 95/182/34 104/183/35 96/186/36
f 96/255/36 105/190/37 97/188/38
f 107/193/41 51/192/40 106/189/39
f 108/195/43 52/194/42 107/193/41
f 109/256/45 53/196/44 108/195/43
f 78/201/47 54/199/46 109/197/45
f 79/257/49 55/202/48 78/201/47
f 80/207/51 56/205/50 79/203/49
f 110/209/53 57/208/52 80/207/51
f 111/211/55 58/210/54 110/209/53
f 112/213/57 59/212/56 111/211/55
f 113/258/59 60/214/58 112/213/57
f 81/219/61 61/217/60 113/215/59
f 82/221/63 62/220/62 81/219/61
f 83/223/65 63/222/64 82/221/63
f 114/225/67 64/224/66 83/223/65
f 115/227/69 65/226/68 114/225/67
f 116/229/71 66/228/70 115/227/69
f 117/231/73 67/230/72 116/229/71
f 84/259/75 68/232/74 117/231/73
f 118/236/77 69/235/76 84/233/75
f 119/238/79 98/237/78 118/236/77
f 120/240/81 99/239/80 119/238/79
f 85/242/83 100/241/82 120/240/81
f 101/156/12 86/157/13 85/242/83
