# Alias OBJ Model File
# Exported from SketchUp, (c) 2000-2012 Trimble Navigation Limited
# File units = meters

mtllib SpaceSuperBigHolesWallalt.mtl

g Mesh1 Model

usemtl FrontColor
v 3 2 -2.94
vt -118.11 115.748
vn 0 -1 -0
v -3 2 3
vt 118.11 -118.11
v -3 2 -2.94
vt 118.11 115.748
f 1/1/1 2/2/1 3/3/1

v 3 2 3
vt -118.11 -118.11
f 2/2/1 1/1/1 4/4/1

usemtl BackColor
vn -0 1 0
f 3/3/2 2/2/2 1/1/2

usemtl FrontColor
vt -118.11 78.7402
vn 1 0 -0
v -3 -2 -2.94
vt 115.748 -78.7402
vt 115.748 78.7402
f 2/5/3 5/6/3 3/7/3

v -3 -2 3
vt -118.11 -78.7402
f 5/6/3 2/5/3 6/8/3

usemtl BackColor
vn -1 -0 0
f 6/8/4 2/5/4 5/6/4

usemtl FrontColor
vn 0 0 1
v -0.387841 -0.857798 3
vt -15.2693 -33.7716
f 6/8/5 7/9/5 2/5/5

v -0.256139 -0.94258 3
vt -10.0842 -37.1094
f 7/9/5 6/8/5 8/10/5

usemtl BackColor
vn -0 -0 -1
f 2/5/6 7/9/6 6/8/6

usemtl FrontColor
v -0.493113 -0.741818 3
vt -19.4139 -29.2054
f 2/5/5 7/9/5 9/11/5

usemtl BackColor
f 9/11/6 7/9/6 2/5/6

usemtl FrontColor
v -0.564779 -0.602544 3
vt -22.2354 -23.7222
f 2/5/5 9/11/5 10/12/5

usemtl BackColor
f 10/12/6 9/11/6 2/5/6

usemtl FrontColor
v -0.597957 -0.449467 3
vt -23.5416 -17.6956
f 2/5/5 10/12/5 11/13/5

usemtl BackColor
f 11/13/6 10/12/6 2/5/6

usemtl FrontColor
v -0.590385 -0.293019 3
vt -23.2435 -11.5362
f 2/5/5 11/13/5 12/14/5

usemtl BackColor
f 12/14/6 11/13/6 2/5/6

usemtl FrontColor
v -0.54258 -0.143861 3
vt -21.3614 -5.66382
f 2/5/5 12/14/5 13/15/5

usemtl BackColor
f 13/15/6 12/14/6 2/5/6

usemtl FrontColor
v -0.457798 -0.0121588 3
vt -18.0236 -0.478692
f 2/5/5 13/15/5 14/16/5

usemtl BackColor
f 14/16/6 13/15/6 2/5/6

usemtl FrontColor
v -0.341818 0.0931128 3
vt -13.4574 3.66586
f 2/5/5 14/16/5 15/17/5

usemtl BackColor
f 15/17/6 14/16/6 2/5/6

usemtl FrontColor
v -0.202544 0.164779 3
vt -7.97418 6.48738
f 2/5/5 15/17/5 16/18/5

usemtl BackColor
f 16/18/6 15/17/6 2/5/6

usemtl FrontColor
v -0.049467 0.197957 3
vt -1.94752 7.7936
f 2/5/5 16/18/5 17/19/5

usemtl BackColor
f 17/19/6 16/18/6 2/5/6

usemtl FrontColor
vt 118.11 78.7402
f 2/5/5 17/19/5 4/20/5

usemtl BackColor
f 4/20/6 17/19/6 2/5/6

usemtl FrontColor
v 0.106981 0.190385 3
vt 4.21186 7.49549
f 18/21/5 4/20/5 17/19/5

v 0.256139 0.14258 3
vt 10.0842 5.61338
f 19/22/5 4/20/5 18/21/5

v 0.387841 0.0577982 3
vt 15.2693 2.27552
f 20/23/5 4/20/5 19/22/5

v 0.493113 -0.0581816 3
vt 19.4139 -2.29061
f 21/24/5 4/20/5 20/23/5

v 0.564779 -0.197456 3
vt 22.2354 -7.77385
f 22/25/5 4/20/5 21/24/5

v 0.597957 -0.350533 3
vt 23.5416 -13.8005
f 23/26/5 4/20/5 22/25/5

v 0.590385 -0.506981 3
vt 23.2435 -19.9599
f 24/27/5 4/20/5 23/26/5

v 0.54258 -0.656139 3
vt 21.3614 -25.8322
f 25/28/5 4/20/5 24/27/5

v 0.457798 -0.787841 3
vt 18.0236 -31.0174
f 26/29/5 4/20/5 25/28/5

v 3 -2 3
vt 118.11 -78.7402
f 26/29/5 27/30/5 4/20/5

v 0.341818 -0.893113 3
vt 13.4574 -35.1619
f 28/31/5 27/30/5 26/29/5

v 0.202544 -0.964779 3
vt 7.97418 -37.9834
f 29/32/5 27/30/5 28/31/5

f 27/30/5 29/32/5 6/8/5

usemtl BackColor
f 6/8/6 29/32/6 27/30/6

usemtl FrontColor
v 0.049467 -0.997957 3
vt 1.94752 -39.2897
f 6/8/5 29/32/5 30/33/5

usemtl BackColor
f 30/33/6 29/32/6 6/8/6

usemtl FrontColor
v -2.88483e-15 -0.995563 3
vt -1.13576e-13 -39.1954
f 31/34/5 6/8/5 30/33/5

v -0.106981 -0.990385 3
vt -4.21186 -38.9916
f 32/35/5 6/8/5 31/34/5

f 8/10/5 6/8/5 32/35/5

usemtl BackColor
f 8/10/6 6/8/6 7/9/6

f 32/35/6 6/8/6 8/10/6

f 31/34/6 6/8/6 32/35/6

f 30/33/6 6/8/6 31/34/6

f 28/31/6 27/30/6 29/32/6

f 26/29/6 27/30/6 28/31/6

f 4/20/6 27/30/6 26/29/6

usemtl FrontColor
vt -115.748 78.7402
vn -1 0 -0
f 1/36/7 27/30/7 4/20/7

v 3 -2 -2.94
vt -115.748 -78.7402
f 27/30/7 1/36/7 33/37/7

usemtl BackColor
vn 1 -0 0
f 4/20/8 27/30/8 1/36/8

f 33/37/8 1/36/8 27/30/8

usemtl FrontColor
v 0.424264 -0.824264 -2.94
vt 16.7033 -32.4513
vn 9.75397e-33 -1.2584e-31 1
f 34/38/9 33/30/9 1/20/9

v 0.3 -0.919615 -2.94
vt 11.811 -36.2053
f 35/39/9 33/30/9 34/38/9

v 0.155291 -0.979555 -2.94
vt 6.11384 -38.5652
f 36/40/9 33/30/9 35/39/9

f 33/30/9 36/40/9 5/8/9

usemtl BackColor
vn -9.75397e-33 1.2584e-31 -1
f 5/8/10 36/40/10 33/30/10

usemtl FrontColor
v -3.67394e-17 -1 -2.94
vt -1.44643e-15 -39.3701
f 5/8/9 36/40/9 37/41/9

usemtl BackColor
f 37/41/10 36/40/10 5/8/10

usemtl FrontColor
vt -115.748 1.02777
vn -0.258819 0.965926 1.24076e-31
v -3.67394e-17 -1 -3
vt -118.11 -5.13883
vn -4.19926e-17 1 1.2584e-31
vt -115.748 -5.13883
f 36/42/11 38/43/12 37/44/12

v 0.155291 -0.979555 -3
vt -118.11 1.02777
f 38/43/12 36/42/11 39/45/11

usemtl BackColor
vn 4.19926e-17 -1 -1.2584e-31
vn 0.258819 -0.965926 -1.24076e-31
f 37/44/13 38/43/13 36/42/14

usemtl FrontColor
v -0.155291 -0.979555 -3
vt 118.11 1.02777
vn 0.258819 0.965926 1.19027e-31
vt 115.748 -5.13883
vt 118.11 -5.13883
f 40/46/15 37/47/12 38/48/12

v -0.155291 -0.979555 -2.94
vt 115.748 1.02777
f 37/47/12 40/46/15 41/49/15

usemtl BackColor
vn -0.258819 -0.965926 -1.19027e-31
f 41/49/16 40/46/16 37/47/13

usemtl FrontColor
v -0.3 -0.919615 -3
vt 118.11 -2.94321
vn 0.5 0.866025 1.04103e-31
vt 115.748 -9.10981
vt 118.11 -9.10981
f 42/50/17 41/51/15 40/52/15

v -0.3 -0.919615 -2.94
vt 115.748 -2.94321
f 41/51/15 42/50/17 43/53/17

usemtl BackColor
vn -0.5 -0.866025 -1.04103e-31
f 43/53/18 42/50/18 41/51/16

usemtl FrontColor
v -0.424264 -0.824264 -3
vt 118.11 -6.5035
vn 0.707107 0.707107 8.2085e-32
vt 115.748 -12.6701
vt 118.11 -12.6701
f 44/54/19 43/55/17 42/56/17

v -0.424264 -0.824264 -2.94
vt 115.748 -6.5035
f 43/55/17 44/54/19 45/57/19

usemtl BackColor
vn -0.707107 -0.707107 -8.2085e-32
f 45/57/20 44/54/20 43/55/18

usemtl FrontColor
vt 118.11 -15.577
v -0.519615 -0.7 -2.94
vt 115.748 -9.41046
vn 0.866025 0.5 5.44726e-32
vt 115.748 -15.577
f 44/58/19 46/59/21 45/60/19

v -0.519615 -0.7 -3
vt 118.11 -9.41046
f 46/59/21 44/58/19 47/61/21

usemtl BackColor
vn -0.866025 -0.5 -5.44726e-32
f 45/60/20 46/59/22 44/58/20

usemtl FrontColor
vt -16.7033 -32.4513
vt -20.4573 -27.5591
f 3/5/9 45/62/9 46/63/9

f 5/8/9 45/62/9 3/5/9

vt -11.811 -36.2053
f 45/62/9 5/8/9 43/64/9

usemtl BackColor
f 3/5/10 45/62/10 5/8/10

f 46/63/10 45/62/10 3/5/10

usemtl FrontColor
v -0.579555 -0.555291 -2.94
vt -22.8171 -21.8619
f 3/5/9 46/63/9 48/65/9

usemtl BackColor
f 48/65/10 46/63/10 3/5/10

usemtl FrontColor
vt 118.11 -17.6326
vt 115.748 -11.466
vn 0.965926 0.258819 2.31481e-32
vt 115.748 -17.6326
f 47/66/21 48/67/23 46/68/21

v -0.579555 -0.555291 -3
vt 118.11 -11.466
f 48/67/23 47/66/21 49/69/23

usemtl BackColor
vn -0.965926 -0.258819 -2.31481e-32
f 46/68/22 48/67/24 47/66/22

f 49/69/24 47/66/22 48/67/24

usemtl FrontColor
vt 20.4573 -27.5591
v -3 2 -3
vt 22.8171 -21.8619
f 47/70/10 50/20/10 49/71/10

f 44/38/10 50/20/10 47/70/10

v -3 -2 -3
f 44/38/10 51/30/10 50/20/10

f 42/39/10 51/30/10 44/38/10

f 40/40/10 51/30/10 42/39/10

v 3 -2 -3
f 51/30/10 40/40/10 52/8/10

usemtl BackColor
f 52/8/9 40/40/9 51/30/9

usemtl FrontColor
vt 1.44643e-15 -39.3701
f 52/8/10 40/40/10 38/72/10

usemtl BackColor
f 38/72/9 40/40/9 52/8/9

f 38/48/13 37/47/13 40/46/16

usemtl FrontColor
vt -6.11384 -38.5652
f 39/73/10 52/8/10 38/72/10

v 0.3 -0.919615 -3
f 53/64/10 52/8/10 39/73/10

v 0.424264 -0.824264 -3
f 54/62/10 52/8/10 53/64/10

v 3 2 -3
f 52/8/10 54/62/10 55/5/10

usemtl BackColor
f 55/5/9 54/62/9 52/8/9

usemtl FrontColor
v 0.519615 -0.7 -3
f 55/5/10 54/62/10 56/63/10

usemtl BackColor
f 56/63/9 54/62/9 55/5/9

usemtl FrontColor
vt -115.748 -15.577
vn -0.707107 0.707107 9.58792e-32
vt -118.11 -9.41046
vn -0.866025 0.5 7.1367e-32
vt -118.11 -15.577
f 34/74/25 56/75/26 54/76/25

v 0.519615 -0.7 -2.94
vt -115.748 -9.41046
f 56/75/26 34/74/25 57/77/26

usemtl BackColor
vn 0.866025 -0.5 -7.1367e-32
vn 0.707107 -0.707107 -9.58792e-32
f 57/77/27 34/74/28 56/75/27

usemtl FrontColor
f 34/38/9 1/20/9 57/70/9

usemtl BackColor
f 1/20/10 33/30/10 34/38/10

usemtl FrontColor
f 55/5/7 33/37/7 1/36/7

f 33/37/7 55/5/7 52/8/7

usemtl BackColor
f 1/36/8 33/37/8 55/5/8

f 52/8/8 55/5/8 33/37/8

usemtl FrontColor
vt -118.11 118.11
vn 0 1 -0
vt 118.11 118.11
f 51/78/29 33/3/29 52/79/29

f 33/3/29 51/78/29 5/1/29

usemtl BackColor
vn -0 -1 0
f 5/1/30 51/78/30 33/3/30

usemtl FrontColor
f 51/30/3 3/7/3 5/6/3

f 3/7/3 51/30/3 50/20/3

usemtl BackColor
f 5/6/4 3/7/4 51/30/4

f 3/7/4 5/6/4 2/5/4

f 50/20/4 51/30/4 3/7/4

f 50/20/9 51/30/9 44/38/9

f 44/38/9 51/30/9 42/39/9

f 42/39/9 51/30/9 40/40/9

f 40/52/16 41/51/16 42/50/18

f 42/56/18 43/55/18 44/54/20

f 47/70/9 50/20/9 44/38/9

f 49/71/9 50/20/9 47/70/9

usemtl FrontColor
v -0.6 -0.4 -3
vt 23.622 -15.748
f 49/71/10 50/20/10 58/80/10

usemtl BackColor
f 58/80/9 50/20/9 49/71/9

usemtl FrontColor
v -0.579555 -0.244709 -3
vt 22.8171 -9.6342
f 58/80/10 50/20/10 59/81/10

usemtl BackColor
f 59/81/9 50/20/9 58/80/9

usemtl FrontColor
v -0.519615 -0.1 -3
vt 20.4573 -3.93701
f 59/81/10 50/20/10 60/82/10

usemtl BackColor
f 60/82/9 50/20/9 59/81/9

usemtl FrontColor
v -0.424264 0.0242641 -3
vt 16.7033 0.955278
f 60/82/10 50/20/10 61/83/10

usemtl BackColor
f 61/83/9 50/20/9 60/82/9

usemtl FrontColor
v -0.3 0.119615 -3
vt 11.811 4.70926
f 61/83/10 50/20/10 62/84/10

usemtl BackColor
f 62/84/9 50/20/9 61/83/9

usemtl FrontColor
v -0.155291 0.179555 -3
vt 6.11384 7.06911
f 62/84/10 50/20/10 63/85/10

usemtl BackColor
f 63/85/9 50/20/9 62/84/9

usemtl FrontColor
v 1.10218e-16 0.2 -3
vt -4.3393e-15 7.87402
f 63/85/10 50/20/10 64/86/10

usemtl BackColor
f 64/86/9 50/20/9 63/85/9

usemtl FrontColor
f 55/5/10 64/86/10 50/20/10

v 0.155291 0.179555 -3
vt -6.11384 7.06911
f 55/5/10 65/87/10 64/86/10

v 0.3 0.119615 -3
vt -11.811 4.70926
f 55/5/10 66/88/10 65/87/10

v 0.424264 0.0242641 -3
vt -16.7033 0.955278
f 55/5/10 67/89/10 66/88/10

v 0.519615 -0.1 -3
vt -20.4573 -3.93701
f 55/5/10 68/90/10 67/89/10

v 0.579555 -0.244709 -3
vt -22.8171 -9.6342
f 55/5/10 69/91/10 68/90/10

v 0.6 -0.4 -3
vt -23.622 -15.748
f 55/5/10 70/92/10 69/91/10

v 0.579555 -0.555291 -3
f 55/5/10 71/65/10 70/92/10

f 55/5/10 56/63/10 71/65/10

usemtl BackColor
f 71/65/9 56/63/9 55/5/9

usemtl FrontColor
vt -115.748 -17.6326
vt -118.11 -11.466
vn -0.965926 0.258819 4.19913e-32
vt -118.11 -17.6326
f 57/93/26 71/94/31 56/95/26

v 0.579555 -0.555291 -2.94
vt -115.748 -11.466
f 71/94/31 57/93/26 72/96/31

usemtl BackColor
vn 0.965926 -0.258819 -4.19913e-32
f 72/96/32 57/93/27 71/94/32

usemtl FrontColor
f 57/70/9 1/20/9 72/71/9

usemtl BackColor
f 57/70/10 1/20/10 34/38/10

f 72/71/10 1/20/10 57/70/10

usemtl FrontColor
v 0.6 -0.4 -2.94
f 72/71/9 1/20/9 73/80/9

usemtl BackColor
f 73/80/10 1/20/10 72/71/10

usemtl FrontColor
v 0.579555 -0.244709 -2.94
f 73/80/9 1/20/9 74/81/9

usemtl BackColor
f 74/81/10 1/20/10 73/80/10

usemtl FrontColor
v 0.519615 -0.1 -2.94
f 74/81/9 1/20/9 75/82/9

usemtl BackColor
f 75/82/10 1/20/10 74/81/10

usemtl FrontColor
v 0.424264 0.0242641 -2.94
f 75/82/9 1/20/9 76/83/9

usemtl BackColor
f 76/83/10 1/20/10 75/82/10

usemtl FrontColor
v 0.3 0.119615 -2.94
f 76/83/9 1/20/9 77/84/9

usemtl BackColor
f 77/84/10 1/20/10 76/83/10

usemtl FrontColor
v 0.155291 0.179555 -2.94
f 77/84/9 1/20/9 78/85/9

usemtl BackColor
f 78/85/10 1/20/10 77/84/10

usemtl FrontColor
v 1.10218e-16 0.2 -2.94
vt 4.3393e-15 7.87402
f 78/85/9 1/20/9 79/97/9

usemtl BackColor
f 79/97/10 1/20/10 78/85/10

usemtl FrontColor
f 3/5/9 79/97/9 1/20/9

v -0.155291 0.179555 -2.94
f 3/5/9 80/87/9 79/97/9

v -0.3 0.119615 -2.94
f 3/5/9 81/88/9 80/87/9

v -0.424264 0.0242641 -2.94
f 3/5/9 82/89/9 81/88/9

v -0.519615 -0.1 -2.94
f 3/5/9 83/90/9 82/89/9

v -0.579555 -0.244709 -2.94
f 3/5/9 84/91/9 83/90/9

v -0.6 -0.4 -2.94
f 3/5/9 85/92/9 84/91/9

f 3/5/9 48/65/9 85/92/9

usemtl BackColor
f 85/92/10 48/65/10 3/5/10

usemtl FrontColor
vt 118.11 -18.6966
vt 115.748 -12.53
vn 1 -3.91931e-16 -9.75397e-33
vt 115.748 -18.6966
f 49/98/23 85/99/33 48/100/23

vt 118.11 -12.53
f 85/99/33 49/98/23 58/101/33

usemtl BackColor
vn -1 3.91931e-16 9.75397e-33
f 48/100/24 85/99/34 49/98/24

f 58/101/34 49/98/24 85/99/34

usemtl FrontColor
f 58/98/33 84/99/32 85/100/33

f 84/99/32 58/98/33 59/101/32

usemtl BackColor
f 85/100/34 84/99/31 58/98/34

f 84/91/10 85/92/10 3/5/10

f 83/90/10 84/91/10 3/5/10

usemtl FrontColor
f 59/66/32 83/67/27 84/68/32

f 83/67/27 59/66/32 60/69/27

usemtl BackColor
f 84/68/31 83/67/26 59/66/31

f 60/69/26 59/66/31 83/67/26

usemtl FrontColor
f 60/58/27 82/59/28 83/60/27

f 82/59/28 60/58/27 61/61/28

usemtl BackColor
f 83/60/26 82/59/25 60/58/26

f 82/89/10 83/90/10 3/5/10

f 81/88/10 82/89/10 3/5/10

usemtl FrontColor
vn 0.5 -0.866025 -1.13857e-31
f 82/55/28 62/54/35 81/57/35

f 62/54/35 82/55/28 61/56/28

usemtl BackColor
vn -0.5 0.866025 1.13857e-31
f 61/56/25 82/55/25 62/54/36

f 61/61/25 60/58/26 82/59/25

f 81/57/36 62/54/36 82/55/25

usemtl FrontColor
f 63/50/14 81/51/35 62/52/35

f 81/51/35 63/50/14 80/53/14

usemtl BackColor
f 62/52/36 81/51/36 63/50/11

f 80/53/11 63/50/11 81/51/36

usemtl FrontColor
vn -6.57884e-16 -1 -1.2584e-31
f 64/46/37 80/47/14 63/48/14

f 80/47/14 64/46/37 79/49/37

usemtl BackColor
vn 6.57884e-16 1 1.2584e-31
f 63/48/11 80/47/11 64/46/38

f 79/49/38 64/46/38 80/47/11

usemtl FrontColor
f 65/43/16 79/42/37 64/45/37

f 79/42/37 65/43/16 78/44/16

usemtl BackColor
f 64/45/38 79/42/38 65/43/15

f 78/44/15 65/43/15 79/42/38

usemtl FrontColor
vt -118.11 -9.10981
vt -115.748 -2.94321
vt -118.11 -2.94321
f 66/102/18 78/103/16 65/104/16

vt -115.748 -9.10981
f 78/103/16 66/102/18 77/105/18

usemtl BackColor
f 65/104/15 78/103/15 66/102/17

f 77/105/17 66/102/17 78/103/15

usemtl FrontColor
vt -118.11 -12.6701
vt -115.748 -6.5035
vt -118.11 -6.5035
f 67/106/20 77/107/18 66/108/18

vt -115.748 -12.6701
f 77/107/18 67/106/20 76/109/20

usemtl BackColor
f 66/108/17 77/107/17 67/106/19

f 76/109/19 67/106/19 77/107/17

usemtl FrontColor
f 67/75/20 75/74/22 76/77/20

f 75/74/22 67/75/20 68/76/22

usemtl BackColor
f 76/77/19 75/74/21 67/75/19

f 68/76/21 67/75/19 75/74/21

f 67/89/9 68/90/9 55/5/9

f 68/90/9 69/91/9 55/5/9

usemtl FrontColor
f 74/93/24 68/94/22 69/95/24

f 68/94/22 74/93/24 75/96/22

usemtl BackColor
f 75/96/21 74/93/23 68/94/21

f 69/95/23 68/94/21 74/93/23

usemtl FrontColor
vt -118.11 -12.53
vt -115.748 -18.6966
vn -1 4.89914e-16 9.75397e-33
vt -115.748 -12.53
f 69/110/24 73/111/39 74/112/24

vt -118.11 -18.6966
f 73/111/39 69/110/24 70/113/39

usemtl BackColor
vn 1 -4.89914e-16 -9.75397e-33
f 74/112/23 73/111/40 69/110/23

f 70/113/40 69/110/23 73/111/40

f 69/91/9 70/92/9 55/5/9

f 70/92/9 71/65/9 55/5/9

usemtl FrontColor
f 72/111/31 70/110/39 71/113/31

f 70/110/39 72/111/31 73/112/39

usemtl BackColor
f 73/112/40 72/111/32 70/110/40

f 71/113/32 70/110/40 72/111/32

f 66/88/9 67/89/9 55/5/9

f 65/87/9 66/88/9 55/5/9

f 64/86/9 65/87/9 55/5/9

f 50/20/9 64/86/9 55/5/9

usemtl FrontColor
f 55/78/1 3/3/1 50/79/1

f 3/3/1 55/78/1 1/1/1

usemtl BackColor
f 50/79/2 3/3/2 55/78/2

f 1/1/2 55/78/2 3/3/2

f 1/20/10 79/97/10 3/5/10

f 79/97/10 80/87/10 3/5/10

f 80/87/10 81/88/10 3/5/10

f 59/101/31 58/98/34 84/99/31

f 56/95/27 71/94/32 57/93/27

f 47/61/22 44/58/20 46/59/22

f 52/79/30 33/3/30 51/78/30

usemtl FrontColor
f 5/1/29 27/2/29 33/3/29

f 27/2/29 5/1/29 6/4/29

usemtl BackColor
f 6/4/30 5/1/30 27/2/30

f 33/3/30 27/2/30 5/1/30

f 34/38/10 33/30/10 35/39/10

f 35/39/10 33/30/10 36/40/10

usemtl FrontColor
f 35/103/36 39/102/11 36/105/11

f 39/102/11 35/103/36 53/104/36

usemtl BackColor
f 36/105/14 39/102/14 35/103/35

f 39/45/14 36/42/14 38/43/13

f 38/72/9 52/8/9 39/73/9

f 39/73/9 52/8/9 53/64/9

f 53/64/9 52/8/9 54/62/9

usemtl FrontColor
f 53/106/36 34/107/25 54/108/25

f 34/107/25 53/106/36 35/109/36

usemtl BackColor
f 35/109/35 53/106/35 34/107/28

f 53/104/35 35/103/35 39/102/14

f 54/108/28 34/107/28 53/106/35

f 54/76/28 56/75/27 34/74/28

f 43/64/10 5/8/10 45/62/10

usemtl FrontColor
f 43/64/9 5/8/9 41/73/9

usemtl BackColor
f 41/73/10 5/8/10 43/64/10

usemtl FrontColor
f 41/73/9 5/8/9 37/41/9

usemtl BackColor
f 37/41/10 5/8/10 41/73/10

f 4/4/2 1/1/2 2/2/2

f 25/28/6 4/20/6 26/29/6

f 24/27/6 4/20/6 25/28/6

f 23/26/6 4/20/6 24/27/6

f 22/25/6 4/20/6 23/26/6

f 21/24/6 4/20/6 22/25/6

f 20/23/6 4/20/6 21/24/6

f 19/22/6 4/20/6 20/23/6

f 18/21/6 4/20/6 19/22/6

f 17/19/6 4/20/6 18/21/6

