<?xml version="1.0" encoding="utf-8"?>
<!-- Generator: Adobe Illustrator 19.2.0, SVG Export Plug-In . SVG Version: 6.00 Build 0)  -->
<svg version="1.1" id="Layer_1" xmlns="http://www.w3.org/2000/svg" xmlns:xlink="http://www.w3.org/1999/xlink" x="0px" y="0px"
	 viewBox="0 0 40 80" style="enable-background:new 0 0 40 80;" xml:space="preserve">
<style type="text/css">
	.st0{display:none;}
	.st1{display:inline;}
	.st2{clip-path:url(#SVGID_2_);}
</style>
<g id="ADD" class="st0">
	<g class="st1">
		<g>
			<g>
				<g>
					<g>
						<defs>
							<rect id="SVGID_1_" x="5.8" y="77.9" width="68.3" height="71.8"/>
						</defs>
						<clipPath id="SVGID_2_">
							<use xlink:href="#SVGID_1_"  style="overflow:visible;"/>
						</clipPath>
						<path class="st2" d="M41.8,147.9L7.3,132.2v-27.7l30.8-24.9l34.5,15.7V123L41.8,147.9z M41.8,147.9v-27.7L7.3,104.5
							 M29.3,114.5l8.9-7.2L72.7,123 M38.2,79.6v27.7"/>
					</g>
				</g>
			</g>
		</g>
	</g>
	<polygon class="st1" points="17.7,121.8 31.3,128.1 31.3,130.7 17.7,124.4 	"/>
	<polygon class="st1" points="17.7,121.8 31.3,128.1 31.3,130.7 17.7,124.4 	"/>
	<polygon class="st1" points="23.6,117 25.5,118 25.5,135.4 23.6,134.5 	"/>
	<polygon class="st1" points="23.6,117 25.5,118 25.5,135.4 23.6,134.5 	"/>
</g>
<g>
	<path d="M8,57.6V22.4L40,40L8,57.6z M11.3,28v24l21.8-12L11.3,28z"/>
</g>
</svg>
