<?xml version="1.0" encoding="utf-8"?>
<!-- Generator: Adobe Illustrator 17.0.0, SVG Export Plug-In . SVG Version: 6.00 Build 0)  -->
<!DOCTYPE svg PUBLIC "-//W3C//DTD SVG 1.1//EN" "http://www.w3.org/Graphics/SVG/1.1/DTD/svg11.dtd">
<svg version="1.1" id="Layer_1" xmlns="http://www.w3.org/2000/svg" xmlns:xlink="http://www.w3.org/1999/xlink" x="0px" y="0px"
	 width="80px" height="80px" viewBox="0 0 80 80" enable-background="new 0 0 80 80" xml:space="preserve">
<g id="ADD" display="none">
	<g display="inline">
		<g>
			<g>
				<defs>
					<rect id="SVGID_1_" x="5.848" y="77.86" width="68.319" height="71.773"/>
				</defs>
				<clipPath id="SVGID_2_">
					<use xlink:href="#SVGID_1_"  overflow="visible"/>
				</clipPath>
				<path clip-path="url(#SVGID_2_)" fill="none" stroke-width="3" d="M41.834,147.886l-34.486-15.65v-27.732
					l30.827-24.895l34.492,15.665l-0.015,27.732L41.834,147.886z M41.834,147.886l0.032-27.69L7.348,104.504 M29.255,114.532
					l8.9-7.235l34.497,15.709 M38.175,79.609v27.721"/>
			</g>
		</g>
	</g>
	<polygon display="inline" points="17.714,121.753 31.349,128.111 31.349,130.712 17.714,124.354 	"/>
	<polygon display="inline" fill="none" points="17.714,121.753 31.349,128.111 31.349,130.712 17.714,124.354 	"/>
	<polygon display="inline" points="23.558,117.047 25.506,117.955 25.506,135.419 23.558,134.511 	"/>
	<polygon display="inline" fill="none" points="23.558,117.047 25.506,117.955 25.506,135.419 23.558,134.511 	"/>
</g>
<g>
	<path d="M29.358,64.562c-6.645,0-13.116-1.896-18.716-5.483c-0.49-0.314-0.699-0.926-0.503-1.474
		c0.196-0.548,0.744-0.89,1.323-0.82c0.872,0.103,1.768,0.154,2.662,0.154c4.027,0,7.874-1.04,11.281-3.029
		c-4.127-1.169-7.496-4.331-8.849-8.552c-0.135-0.42-0.038-0.88,0.254-1.211c0.226-0.254,0.542-0.402,0.874-0.419
		c-3.25-2.396-5.315-6.253-5.315-10.493c0-0.077,0-0.149,0.005-0.224c0.025-0.43,0.27-0.816,0.646-1.023
		c0.378-0.207,0.835-0.205,1.21,0.004c0.213,0.119,0.431,0.23,0.651,0.333c-1.552-2.175-2.417-4.807-2.417-7.564
		c0-2.298,0.609-4.561,1.763-6.544c0.206-0.354,0.573-0.585,0.982-0.618c0.405-0.028,0.808,0.138,1.067,0.456
		c5.432,6.663,13.308,10.879,21.802,11.722c-0.043-0.436-0.065-0.876-0.065-1.318c0-7.179,5.841-13.02,13.021-13.02
		c3.345,0,6.585,1.306,8.999,3.605c2.26-0.515,4.42-1.378,6.43-2.568c0.446-0.264,1.01-0.226,1.416,0.098s0.569,0.864,0.411,1.359
		c-0.45,1.405-1.134,2.713-2.014,3.874c0.645-0.217,1.278-0.464,1.898-0.74c0.509-0.226,1.105-0.089,1.464,0.337
		c0.358,0.425,0.393,1.037,0.084,1.499c-1.541,2.308-3.437,4.328-5.64,6.012c0.008,0.302,0.012,0.605,0.012,0.91
		c0,8.429-3.258,16.959-8.938,23.403C50.601,58.397,42.425,64.562,29.358,64.562z M16.399,59.338
		c4.068,1.791,8.472,2.724,12.959,2.724c15.847,0,32.237-12.059,32.237-32.238c0-0.491-0.011-0.979-0.032-1.466
		c-0.019-0.42,0.176-0.822,0.517-1.068c1.049-0.759,2.023-1.599,2.92-2.515c-0.96,0.232-1.938,0.409-2.928,0.527
		c-0.581,0.067-1.141-0.278-1.331-0.836c-0.191-0.558,0.034-1.173,0.54-1.477c1.159-0.696,2.163-1.596,2.968-2.647
		c-1.414,0.564-2.878,0.996-4.379,1.292c-0.427,0.082-0.858-0.057-1.153-0.371c-1.985-2.113-4.785-3.325-7.682-3.325
		c-5.801,0-10.521,4.719-10.521,10.52c0,0.819,0.092,1.625,0.272,2.398c0.089,0.382-0.006,0.784-0.258,1.085
		c-0.251,0.302-0.63,0.463-1.022,0.448c-9.136-0.459-17.737-4.541-23.89-11.275c-0.429,1.163-0.651,2.398-0.651,3.646
		c0,3.526,1.75,6.799,4.681,8.756c0.464,0.31,0.667,0.889,0.497,1.42c-0.17,0.532-0.685,0.875-1.229,0.869
		c-1.318-0.041-2.627-0.286-3.871-0.72c0.768,4.212,4.008,7.609,8.265,8.462c0.568,0.114,0.984,0.604,1.004,1.184
		c0.02,0.579-0.362,1.097-0.922,1.248c-1.193,0.323-2.432,0.47-3.663,0.456c1.787,3.266,5.212,5.394,9.037,5.464
		c0.529,0.01,0.994,0.352,1.162,0.854c0.168,0.501,0.002,1.054-0.414,1.38C25.685,57.133,21.189,58.911,16.399,59.338z"/>
</g>
</svg>
