# Processed with obj-simplify v1.0 (64ea2b9) | 2017-07-29T00:01:47Z | https://github.com/jonnenauha/obj-simplify

# vertices [123]

v -3 2 2.94
v -3 -2 2.94
v -3 2 -3
v 3 -2 2.94
v -3 -2 -3
v 3 2 -3
v 3 -2 -3
v 3 2 2.94
v 3 -2 3
v -3 -2 3
v 3 2 3
v -3 2 3
v 0.6 -0.4 -3
v 0.590885009765625 -0.5041889953613281 -3
v -0.22905000686645507 0.15270000457763672 -3
v -0.3 0.1196150016784668 -3
v 0.5638150024414063 -0.6052119827270508 -3
v -0.38567298889160156 0.05962669849395752 -3
v 0.5196149826049805 -0.7000000000000001 -3
v -0.4596269989013672 -0.014327399730682373 -3
v -0.5196149826049805 -0.1 -3
v 0.4596269989013672 -0.7856729888916015 -3
v -0.5638159942626954 -0.1947879981994629 -3
v 0.3856719970703125 -0.8596269989013672 -3
v -0.590885009765625 -0.2958110046386719 -3
v 0.3 -0.9196150207519531 -3
v -0.6 -0.4 -3
v 0.2052120018005371 -0.9638159942626954 -3
v -0.590885009765625 -0.5041889953613281 -3
v 0.10418899536132813 -0.990885009765625 -3
v -1.3113400200381876e-07 -1 -3
v -0.5638159942626954 -0.6052119827270508 -3
v -0.10418899536132813 -0.990885009765625 -3
v -0.5196149826049805 -0.7000000000000001 -3
v -0.4596269989013672 -0.7856729888916015 -3
v -0.2052120018005371 -0.9638159942626954 -3
v -0.38567298889160156 -0.8596269989013672 -3
v -0.3 -0.9196150207519531 -3
v -0.6 -0.4 2.94
v -0.590885009765625 -0.5041889953613281 2.94
v 0.22905000686645507 0.15270000457763672 2.94
v 0.3 0.1196150016784668 2.94
v -0.5638150024414063 -0.6052119827270508 2.94
v 0.38567298889160156 0.05962669849395752 2.94
v -0.5196149826049805 -0.7000000000000001 2.94
v 0.4596269989013672 -0.014327399730682373 2.94
v 0.5196149826049805 -0.1 2.94
v -0.4596269989013672 -0.7856729888916015 2.94
v 0.5638159942626954 -0.1947879981994629 2.94
v -0.3856719970703125 -0.8596269989013672 2.94
v 0.590885009765625 -0.2958110046386719 2.94
v -0.3 -0.9196150207519531 2.94
v 0.6 -0.4 2.94
v -0.2052120018005371 -0.9638159942626954 2.94
v 0.590885009765625 -0.5041889953613281 2.94
v -0.10418899536132813 -0.990885009765625 2.94
v 1.2851100109401159e-07 -1 2.94
v 0.5638159942626954 -0.6052119827270508 2.94
v 0.10418899536132813 -0.990885009765625 2.94
v 0.5196149826049805 -0.7000000000000001 2.94
v 0.4596269989013672 -0.7856729888916015 2.94
v 0.2052120018005371 -0.9638159942626954 2.94
v 0.38567298889160156 -0.8596269989013672 2.94
v 0.3 -0.9196150207519531 2.94
v -0.10418899536132813 0.19088499069213868 3
v -0.10418899536132813 0.19088499069213868 2.94
v 1.2851100109401159e-07 0.2 2.94
v 1.3113400200381876e-07 0.2 3
v 0.2052120018005371 -0.9638159942626954 3
v 0.10418899536132813 -0.990885009765625 3
v -0.2052120018005371 0.1638159942626953 3
v -0.2052120018005371 0.1638159942626953 2.94
v 0.3 -0.9196150207519531 3
v -0.3 0.1196150016784668 3
v -0.3 0.1196150016784668 2.94
v 0.38567298889160156 -0.8596269989013672 3
v -0.3856719970703125 0.05962669849395752 3
v -0.3856719970703125 0.05962669849395752 2.94
v 0.4596269989013672 -0.7856729888916015 3
v -0.4596269989013672 -0.014327399730682373 3
v -0.4596269989013672 -0.014327399730682373 2.94
v -0.5196149826049805 -0.1 3
v -0.5196149826049805 -0.1 2.94
v 0.5196149826049805 -0.7000000000000001 3
v -0.5638150024414063 -0.1947879981994629 3
v -0.5638150024414063 -0.1947879981994629 2.94
v 0.5638159942626954 -0.6052119827270508 3
v -0.590885009765625 -0.2958110046386719 3
v -0.590885009765625 -0.2958110046386719 2.94
v 0.590885009765625 -0.5041889953613281 3
v -0.6 -0.4 3
v 0.6 -0.4 3
v -0.590885009765625 -0.5041889953613281 3
v 0.590885009765625 -0.2958110046386719 3
v -0.5638150024414063 -0.6052119827270508 3
v 0.5638159942626954 -0.1947879981994629 3
v -0.5196149826049805 -0.7000000000000001 3
v 0.5196149826049805 -0.1 3
v -0.4596269989013672 -0.7856729888916015 3
v 0.4596269989013672 -0.014327399730682373 3
v -0.2052120018005371 0.1638159942626953 -3
v 0.590885009765625 -0.2958110046386719 -3
v -0.10418899536132813 0.19088499069213868 -3
v 0.5638150024414063 -0.1947879981994629 -3
v -1.3113400200381876e-07 0.2 -3
v 0.5196149826049805 -0.1 -3
v 0.4596269989013672 -0.014327399730682373 -3
v 0.10418899536132813 0.19088499069213868 -3
v 0.3856719970703125 0.05962669849395752 -3
v 0.2052120018005371 0.1638159942626953 -3
v 0.3 0.1196150016784668 -3
v 0.2052120018005371 0.1638159942626953 2.94
v 0.10418899536132813 0.19088499069213868 2.94
v 0.38567298889160156 0.05962669849395752 3
v -0.3856719970703125 -0.8596269989013672 3
v 0.3 0.1196150016784668 3
v -0.3 -0.9196150207519531 3
v 0.22905000686645507 0.15270000457763672 3
v 0.2052120018005371 0.1638159942626953 3
v -0.2052120018005371 -0.9638159942626954 3
v -0.10418899536132813 -0.990885009765625 3
v 0.10418899536132813 0.19088499069213868 3
v 1.3113400200381876e-07 -1 3

# normals [41]

vn 100 0 0
vn 0 100 0
vn -100 0 0
vn 0 -100 0
vn 0 0 100
vn 0 0 -100
vn 17.364799976348877 -98.48080277442932 -9.56060008938664e-08
vn -34.20200049877167 93.96929740905762 0
vn -17.364799976348877 98.48080277442932 9.560620073401083e-08
vn 34.20200049877167 -93.96929740905762 0
vn -50 86.6025984287262 0
vn 50 -86.60249710083008 -9.153320235100182e-06
vn -64.27879929542542 76.6044020652771 0
vn 64.27879929542542 -76.6044020652771 -2.0435399505913665e-05
vn -76.6044020652771 64.27879929542542 0
vn 76.6044020652771 -64.27879929542542 -1.128209987655282e-05
vn 86.60249710083008 -50 0
vn -86.60249710083008 50 0
vn 93.96929740905762 -34.20200049877167 0
vn -93.96929740905762 34.20200049877167 0
vn 98.48080277442932 -17.364799976348877 0
vn -98.48080277442932 17.364799976348877 0
vn 98.48080277442932 17.364799976348877 0
vn -98.48080277442932 -17.364799976348877 0
vn 93.96929740905762 34.20200049877167 0
vn -93.96929740905762 -34.20200049877167 0
vn 86.60249710083008 50 0
vn -86.60249710083008 -50 0
vn 76.6044020652771 64.2786979675293 -1.2204399979509617e-05
vn -76.6044020652771 -64.27879929542542 0
vn -64.27879929542542 -76.6044020652771 0
vn 64.27879929542542 76.6044020652771 -2.1355999990646524e-05
vn -50 -86.60249710083008 0
vn -47.45419919490814 -88.02329897880554 1.342129962722538e-06
vn 50 86.6025984287262 -9.151580115940305e-06
vn -42.26180016994476 -90.63079953193665 2.0063900763034326e-06
vn -36.92669868469238 -92.93230175971985 1.342129962722538e-06
vn -34.20200049877167 -93.96929740905762 0
vn 34.20200049877167 93.96929740905762 0
vn 17.364799976348877 98.48080277442932 -3.8138798785780637e-07
vn -17.364799976348877 -98.48080277442932 3.8138798785780637e-07

# uvs [196]

vt 0.4976629912853241 0.4808270037174225
vt 0.4976629912853241 0.2407049983739853
vt 0.960345983505249 0.4808270037174225
vt 0.01010220032185316 0.6356319785118103
vt 0.47745901346206665 0.6356319785118103
vt 0.01010220032185316 0.992214024066925
vt 0.01010220032185316 0.24790799617767334
vt 0.01010220032185316 0.007785560097545385
vt 0.47278499603271484 0.24790799617767334
vt 0.49298998713493347 0.02695859968662262
vt 0.960345983505249 0.03056040033698082
vt 0.49298998713493347 0.03056040033698082
vt 0.9852240085601807 0.2407049983739853
vt 0.98055100440979 0.4808270037174225
vt 0.98055100440979 0.2407049983739853
vt 0.960345983505249 0.01138749998062849
vt 0.49298998713493347 0.007785560097545385
vt 0.960345983505249 0.007785560097545385
vt 0.9852240085601807 0.992214024066925
vt 0.9898980259895325 0.7520920038223267
vt 0.9898980259895325 0.992214024066925
vt 0.47745901346206665 0.6200609803199768
vt 0.01010220032185316 0.6200609803199768
vt 0.47745901346206665 0.26347899436950684
vt 0.960345983505249 0.2407049983739853
vt 0.47745901346206665 0.992214024066925
vt 0.47278499603271484 0.007785560097545385
vt 0.01010220032185316 0.26347899436950684
vt 0.960345983505249 0.02695859968662262
vt 0.9852240085601807 0.4808270037174225
vt 0.49298998713493347 0.01138749998062849
vt 0.9852240085601807 0.7520920038223267
vt 0.7780770063400269 0.8481410145759583
vt 0.7773669958114624 0.8418859839439392
vt 0.9650200009346008 0.7520920038223267
vt 0.7135000228881836 0.8813199996948242
vt 0.4976629912853241 0.992214024066925
vt 0.7079740166664124 0.8793339729309082
vt 0.7752590179443359 0.8358219861984253
vt 0.7013009786605835 0.8757330179214478
vt 0.7718160152435303 0.830132007598877
vt 0.6955400109291077 0.8712930083274841
vt 0.690867006778717 0.8661500215530396
vt 0.7671430110931396 0.8249890208244324
vt 0.6874240040779114 0.8604599833488464
vt 0.7613829970359802 0.8205490112304688
vt 0.6853160262107849 0.8543949723243713
vt 0.754709005355835 0.8169479966163635
vt 0.6846060156822205 0.8481410145759583
vt 0.7473260164260864 0.8142949938774109
vt 0.4976629912853241 0.7520920038223267
vt 0.6853160262107849 0.8418859839439392
vt 0.7394570112228394 0.8126699924468994
vt 0.7313420176506042 0.8121230006217957
vt 0.6874240040779114 0.8358219861984253
vt 0.723226010799408 0.8126699924468994
vt 0.690867006778717 0.830132007598877
vt 0.6955400109291077 0.8249890208244324
vt 0.7153570055961609 0.8142949938774109
vt 0.7013009786605835 0.8205490112304688
vt 0.7079740166664124 0.8169479966163635
vt 0.7780770063400269 0.5924469828605652
vt 0.7773669958114624 0.5861930251121521
vt 0.9650200009346008 0.496398001909256
vt 0.7135000228881836 0.6256260275840759
vt 0.4976629912853241 0.7365210056304932
vt 0.7079740166664124 0.6236400008201599
vt 0.7752590179443359 0.580128014087677
vt 0.7013009786605835 0.6200389862060547
vt 0.7718160152435303 0.5744379758834839
vt 0.6955400109291077 0.6155989766120911
vt 0.690867006778717 0.6104559898376465
vt 0.7671430110931396 0.5692949891090393
vt 0.6874240040779114 0.6047660112380981
vt 0.7613829970359802 0.5648559927940369
vt 0.6853160262107849 0.5987020134925842
vt 0.754709005355835 0.5612540245056152
vt 0.6846060156822205 0.5924469828605652
vt 0.7473260164260864 0.5586010217666626
vt 0.4976629912853241 0.496398001909256
vt 0.6853160262107849 0.5861930251121521
vt 0.7394570112228394 0.5569760203361511
vt 0.7313420176506042 0.5564290285110474
vt 0.6874240040779114 0.580128014087677
vt 0.723226010799408 0.5569760203361511
vt 0.690867006778717 0.5744379758834839
vt 0.6955400109291077 0.5692949891090393
vt 0.7153570055961609 0.5586010217666626
vt 0.7013009786605835 0.5648559927940369
vt 0.7079740166664124 0.5612540245056152
vt 0.8361430168151855 0.2251330018043518
vt 0.8361430168151855 0.22153200209140778
vt 0.8442580103874207 0.22153200209140778
vt 0.8442580103874207 0.2251330018043518
vt 0.9405289888381958 0.22153200209140778
vt 0.9405289888381958 0.2251330018043518
vt 0.9326599836349487 0.2251330018043518
vt 0.9326599836349487 0.22153200209140778
vt 0.8282740116119385 0.2251330018043518
vt 0.8282740116119385 0.22153200209140778
vt 0.9479129910469055 0.22153200209140778
vt 0.9479129910469055 0.2251330018043518
vt 0.8208900094032288 0.2251330018043518
vt 0.8208900094032288 0.22153200209140778
vt 0.9545860290527344 0.22153200209140778
vt 0.9545860290527344 0.2251330018043518
vt 0.8142169713973999 0.2251330018043518
vt 0.8142169713973999 0.22153200209140778
vt 0.960345983505249 0.22153200209140778
vt 0.960345983505249 0.2251330018043518
vt 0.8084570169448853 0.2251330018043518
vt 0.8084570169448853 0.22153200209140778
vt 0.9852240085601807 0.7313780188560486
vt 0.9898980259895325 0.7313780188560486
vt 0.9898980259895325 0.7365210056304932
vt 0.9852240085601807 0.7365210056304932
vt 0.9852240085601807 0.6194620132446289
vt 0.9898980259895325 0.6194620132446289
vt 0.9898980259895325 0.6246050000190735
vt 0.9852240085601807 0.6246050000190735
vt 0.9852240085601807 0.7256879806518555
vt 0.9898980259895325 0.7256879806518555
vt 0.9898980259895325 0.6302949786186218
vt 0.9852240085601807 0.6302949786186218
vt 0.9852240085601807 0.7196230292320251
vt 0.9898980259895325 0.7196230292320251
vt 0.9898980259895325 0.6363599896430969
vt 0.9852240085601807 0.6363599896430969
vt 0.9852240085601807 0.7133690118789673
vt 0.9898980259895325 0.7133690118789673
vt 0.9898980259895325 0.6426140069961548
vt 0.9852240085601807 0.6426140069961548
vt 0.9852240085601807 0.7071139812469482
vt 0.9898980259895325 0.7071139812469482
vt 0.9898980259895325 0.648868978023529
vt 0.9852240085601807 0.648868978023529
vt 0.9852240085601807 0.7010499835014343
vt 0.9898980259895325 0.7010499835014343
vt 0.9898980259895325 0.654932975769043
vt 0.9852240085601807 0.654932975769043
vt 0.9852240085601807 0.6953589916229248
vt 0.9898980259895325 0.6953589916229248
vt 0.9898980259895325 0.6606230139732361
vt 0.9852240085601807 0.6606230139732361
vt 0.9852240085601807 0.6902160048484802
vt 0.9898980259895325 0.6902160048484802
vt 0.9898980259895325 0.6657660007476807
vt 0.9852240085601807 0.6657660007476807
vt 0.7153570055961609 0.8819869756698608
vt 0.9650200009346008 0.992214024066925
vt 0.7773669958114624 0.8543949723243713
vt 0.723226010799408 0.8836119771003723
vt 0.7752590179443359 0.8604599833488464
vt 0.7313420176506042 0.8841590285301208
vt 0.7718160152435303 0.8661500215530396
vt 0.7671430110931396 0.8712930083274841
vt 0.7394570112228394 0.8836119771003723
vt 0.7613829970359802 0.8757330179214478
vt 0.7473260164260864 0.8819869756698608
vt 0.754709005355835 0.8793339729309082
vt 0.7153570055961609 0.6262930035591125
vt 0.9650200009346008 0.7365210056304932
vt 0.7773669958114624 0.5987020134925842
vt 0.723226010799408 0.627918004989624
vt 0.7752590179443359 0.6047660112380981
vt 0.7313420176506042 0.628466010093689
vt 0.7718160152435303 0.6104559898376465
vt 0.7671430110931396 0.6155989766120911
vt 0.7394570112228394 0.627918004989624
vt 0.7613829970359802 0.6200389862060547
vt 0.7473260164260864 0.6262930035591125
vt 0.754709005355835 0.6236400008201599
vt 0.9898980259895325 0.6702060103416443
vt 0.9852240085601807 0.6702060103416443
vt 0.9852240085601807 0.6857770085334778
vt 0.9898980259895325 0.6857770085334778
vt 0.8676260113716125 0.2251330018043518
vt 0.8676260113716125 0.22153200209140778
vt 0.8742989897727966 0.22153200209140778
vt 0.8742989897727966 0.2251330018043518
vt 0.9011769890785217 0.22153200209140778
vt 0.9011769890785217 0.2251330018043518
vt 0.8945040106773376 0.2251330018043518
vt 0.8945040106773376 0.22153200209140778
vt 0.8621000051498413 0.2251330018043518
vt 0.8621000051498413 0.22153200209140778
vt 0.860243022441864 0.2251330018043518
vt 0.860243022441864 0.22153200209140778
vt 0.9085599780082703 0.22153200209140778
vt 0.9085599780082703 0.2251330018043518
vt 0.9164289832115173 0.22153200209140778
vt 0.9164289832115173 0.2251330018043518
vt 0.8523740172386169 0.2251330018043518
vt 0.8523740172386169 0.22153200209140778
vt 0.9245449900627136 0.22153200209140778
vt 0.9245449900627136 0.2251330018043518

# objects [1]

o horizontal-room-VR.1
usemtl horizontal-room-VR.1

f 1/1/1 2/2/1 3/3/1
f 2/4/2 4/5/2 5/6/2
f 6/7/3 7/8/3 8/9/3
f 2/10/4 9/11/4 10/12/4
f 4/13/1 11/14/1 9/15/1
f 8/16/2 12/17/2 11/18/2
f 1/19/3 10/20/3 12/21/3
f 8/22/4 1/23/4 6/24/4
f 3/3/1 2/2/1 5/25/1
f 5/6/2 4/5/2 7/26/2
f 8/9/3 7/8/3 4/27/3
f 6/24/4 1/23/4 3/28/4
f 4/29/4 9/11/4 2/10/4
f 8/30/1 11/14/1 4/13/1
f 1/31/2 12/17/2 8/16/2
f 2/32/3 10/20/3 1/19/3
f 13/33/5 14/34/5 7/35/5
f 15/36/5 3/37/5 16/38/5
f 14/34/5 17/39/5 7/35/5
f 16/38/5 3/37/5 18/40/5
f 17/39/5 19/41/5 7/35/5
f 18/40/5 3/37/5 20/42/5
f 20/42/5 3/37/5 21/43/5
f 19/41/5 22/44/5 7/35/5
f 21/43/5 3/37/5 23/45/5
f 22/44/5 24/46/5 7/35/5
f 23/45/5 3/37/5 25/47/5
f 24/46/5 26/48/5 7/35/5
f 25/47/5 3/37/5 27/49/5
f 26/48/5 28/50/5 7/35/5
f 5/51/5 29/52/5 27/49/5
f 3/37/5 5/51/5 27/49/5
f 28/50/5 30/53/5 7/35/5
f 30/53/5 31/54/5 7/35/5
f 29/52/5 5/51/5 32/55/5
f 31/54/5 33/56/5 5/51/5
f 7/35/5 31/54/5 5/51/5
f 32/55/5 5/51/5 34/57/5
f 34/57/5 5/51/5 35/58/5
f 33/56/5 36/59/5 5/51/5
f 35/58/5 5/51/5 37/60/5
f 36/59/5 38/61/5 5/51/5
f 38/61/5 37/60/5 5/51/5
f 39/62/6 40/63/6 2/64/6
f 41/65/6 8/66/6 42/67/6
f 40/63/6 43/68/6 2/64/6
f 42/67/6 8/66/6 44/69/6
f 43/68/6 45/70/6 2/64/6
f 44/69/6 8/66/6 46/71/6
f 46/71/6 8/66/6 47/72/6
f 45/70/6 48/73/6 2/64/6
f 47/72/6 8/66/6 49/74/6
f 48/73/6 50/75/6 2/64/6
f 49/74/6 8/66/6 51/76/6
f 50/75/6 52/77/6 2/64/6
f 51/76/6 8/66/6 53/78/6
f 52/77/6 54/79/6 2/64/6
f 4/80/6 55/81/6 53/78/6
f 8/66/6 4/80/6 53/78/6
f 54/79/6 56/82/6 2/64/6
f 56/82/6 57/83/6 2/64/6
f 55/81/6 4/80/6 58/84/6
f 57/83/6 59/85/6 4/80/6
f 2/64/6 57/83/6 4/80/6
f 58/84/6 4/80/6 60/86/6
f 60/86/6 4/80/6 61/87/6
f 59/85/6 62/88/6 4/80/6
f 61/87/6 4/80/6 63/89/6
f 62/88/6 64/90/6 4/80/6
f 63/89/6 4/80/6 64/90/6
f 65/91/7 66/92/7 67/93/4
f 68/94/4 65/91/7 67/93/4
f 69/95/8 62/96/8 59/97/9
f 70/98/9 69/95/8 59/97/9
f 71/99/10 72/100/10 66/92/7
f 65/91/7 71/99/10 66/92/7
f 73/101/11 64/102/11 62/96/8
f 69/95/8 73/101/11 62/96/8
f 74/103/12 75/104/12 72/100/10
f 71/99/10 74/103/12 72/100/10
f 76/105/13 63/106/13 64/102/11
f 73/101/11 76/105/13 64/102/11
f 77/107/14 78/108/14 75/104/12
f 74/103/12 77/107/14 75/104/12
f 79/109/15 61/110/15 63/106/13
f 76/105/13 79/109/15 63/106/13
f 80/111/16 81/112/16 78/108/14
f 77/107/14 80/111/16 78/108/14
f 82/113/17 83/114/17 81/115/16
f 80/116/16 82/113/17 81/115/16
f 61/117/15 79/118/15 84/119/18
f 60/120/18 61/117/15 84/119/18
f 85/121/19 86/122/19 83/114/17
f 82/113/17 85/121/19 83/114/17
f 60/120/18 84/119/18 87/123/20
f 58/124/20 60/120/18 87/123/20
f 88/125/21 89/126/21 86/122/19
f 85/121/19 88/125/21 86/122/19
f 58/124/20 87/123/20 90/127/22
f 55/128/22 58/124/20 90/127/22
f 91/129/1 39/130/1 89/126/21
f 88/125/21 91/129/1 89/126/21
f 55/128/22 90/127/22 92/131/3
f 53/132/3 55/128/22 92/131/3
f 93/133/23 40/134/23 39/130/1
f 91/129/1 93/133/23 39/130/1
f 53/132/3 92/131/3 94/135/24
f 51/136/24 53/132/3 94/135/24
f 95/137/25 43/138/25 40/134/23
f 93/133/23 95/137/25 40/134/23
f 51/136/24 94/135/24 96/139/26
f 49/140/26 51/136/24 96/139/26
f 97/141/27 45/142/27 43/138/25
f 95/137/25 97/141/27 43/138/25
f 49/140/26 96/139/26 98/143/28
f 47/144/28 49/140/26 98/143/28
f 99/145/29 48/146/29 45/142/27
f 97/141/27 99/145/29 45/142/27
f 47/144/28 98/143/28 100/147/30
f 46/148/30 47/144/28 100/147/30
f 15/36/5 101/149/5 3/37/5
f 6/150/5 102/151/5 13/33/5
f 7/35/5 6/150/5 13/33/5
f 101/149/5 103/152/5 3/37/5
f 102/151/5 6/150/5 104/153/5
f 105/154/5 6/150/5 3/37/5
f 103/152/5 105/154/5 3/37/5
f 104/153/5 6/150/5 106/155/5
f 106/155/5 6/150/5 107/156/5
f 105/154/5 108/157/5 6/150/5
f 107/156/5 6/150/5 109/158/5
f 108/157/5 110/159/5 6/150/5
f 109/158/5 6/150/5 111/160/5
f 111/160/5 6/150/5 110/159/5
f 41/65/6 112/161/6 8/66/6
f 1/162/6 89/163/6 39/62/6
f 2/64/6 1/162/6 39/62/6
f 112/161/6 113/164/6 8/66/6
f 89/163/6 1/162/6 86/165/6
f 67/166/6 1/162/6 8/66/6
f 113/164/6 67/166/6 8/66/6
f 86/165/6 1/162/6 83/167/6
f 83/167/6 1/162/6 81/168/6
f 67/166/6 66/169/6 1/162/6
f 81/168/6 1/162/6 78/170/6
f 66/169/6 72/171/6 1/162/6
f 78/170/6 1/162/6 75/172/6
f 72/171/6 75/172/6 1/162/6
f 114/173/31 44/174/31 46/148/30
f 100/147/30 114/173/31 46/148/30
f 115/175/32 50/176/32 48/146/29
f 99/145/29 115/175/32 48/146/29
f 116/177/33 42/178/34 44/179/31
f 114/180/31 116/177/33 44/179/31
f 117/181/35 52/182/35 50/183/32
f 115/184/32 117/181/35 50/183/32
f 118/185/36 42/178/34 116/177/33
f 41/186/36 119/187/37 112/188/38
f 119/187/37 41/186/36 42/178/34
f 118/185/36 119/187/37 42/178/34
f 120/189/39 54/190/39 52/182/35
f 117/181/35 120/189/39 52/182/35
f 121/191/40 56/192/40 54/190/39
f 120/189/39 121/191/40 54/190/39
f 122/193/41 113/194/41 112/188/38
f 119/187/37 122/193/41 112/188/38
f 123/195/2 57/196/2 56/192/40
f 121/191/40 123/195/2 56/192/40
f 68/94/4 67/93/4 113/194/41
f 122/193/41 68/94/4 113/194/41
f 70/98/9 59/97/9 57/196/2
f 123/195/2 70/98/9 57/196/2

