<?xml version="1.0" encoding="utf-8"?>
<!-- Generator: Adobe Illustrator 17.0.0, SVG Export Plug-In . SVG Version: 6.00 Build 0)  -->
<!DOCTYPE svg PUBLIC "-//W3C//DTD SVG 1.1//EN" "http://www.w3.org/Graphics/SVG/1.1/DTD/svg11.dtd">
<svg version="1.1" id="Layer_1" xmlns="http://www.w3.org/2000/svg" xmlns:xlink="http://www.w3.org/1999/xlink" x="0px" y="0px"
	 width="80px" height="80px" viewBox="0 0 80 80" enable-background="new 0 0 80 80" xml:space="preserve">
<g id="ADD" display="none">
	<g display="inline">
		<g>
			<g>
				<defs>
					<rect id="SVGID_1_" x="5.848" y="77.86" width="68.319" height="71.773"/>
				</defs>
				<clipPath id="SVGID_2_">
					<use xlink:href="#SVGID_1_"  overflow="visible"/>
				</clipPath>
				<path clip-path="url(#SVGID_2_)" fill="none" stroke-width="3" d="M41.834,147.886l-34.486-15.65v-27.732
					l30.827-24.895l34.492,15.665l-0.015,27.732L41.834,147.886z M41.834,147.886l0.032-27.69L7.348,104.504 M29.255,114.532
					l8.9-7.235l34.497,15.709 M38.175,79.609v27.721"/>
			</g>
		</g>
	</g>
	<polygon display="inline" points="17.714,121.753 31.349,128.111 31.349,130.712 17.714,124.354 	"/>
	<polygon display="inline" fill="none" points="17.714,121.753 31.349,128.111 31.349,130.712 17.714,124.354 	"/>
	<polygon display="inline" points="23.558,117.047 25.506,117.955 25.506,135.419 23.558,134.511 	"/>
	<polygon display="inline" fill="none" points="23.558,117.047 25.506,117.955 25.506,135.419 23.558,134.511 	"/>
</g>
<path d="M67.809,48.295h-5.668c-0.663,0-1.2-0.537-1.2-1.2v-6.963h-6.963c-0.663,0-1.2-0.538-1.2-1.2v-5.668
	c0-0.663,0.537-1.2,1.2-1.2h6.963v-6.736c0-0.663,0.537-1.2,1.2-1.2h5.668c0.663,0,1.2,0.538,1.2,1.2v6.736h6.735
	c0.663,0,1.2,0.538,1.2,1.2v5.668c0,0.663-0.537,1.2-1.2,1.2h-6.735v6.963C69.009,47.758,68.472,48.295,67.809,48.295z
	 M63.341,45.895h3.268v-6.963c0-0.663,0.537-1.2,1.2-1.2h6.735v-3.268h-6.735c-0.663,0-1.2-0.538-1.2-1.2v-6.736h-3.268v6.736
	c0,0.663-0.537,1.2-1.2,1.2h-6.963v3.268h6.963c0.663,0,1.2,0.538,1.2,1.2V45.895z"/>
<g>
	<path d="M26.567,61.962c-13.432,0-24.36-10.928-24.36-24.359c0-13.432,10.928-24.359,24.36-24.359
		c6.08,0,11.901,2.252,16.391,6.341c0.247,0.225,0.39,0.542,0.393,0.876s-0.134,0.654-0.376,0.883
		c-3.151,2.976-4.137,4.083-5.007,5.06c-0.465,0.523-0.888,0.998-1.56,1.669c-0.438,0.436-1.137,0.47-1.613,0.076
		c-1.95-1.613-4.297-3.105-8.228-3.105c-6.914,0-12.329,5.516-12.329,12.558c0,7.042,5.415,12.558,12.329,12.558
		c6.417,0,9.094-2.556,10.807-6.784c-4.141,0.003-10.805,0.013-10.805,0.013c-0.001,0-0.001,0-0.002,0
		c-0.318,0-0.623-0.126-0.848-0.351c-0.225-0.226-0.352-0.531-0.352-0.85v-9.172c0-0.663,0.538-1.2,1.2-1.2h22.242
		c0.599,0,1.105,0.441,1.188,1.034c0.887,6.354-0.147,15.42-5.71,21.813C40.073,59.507,34.111,61.962,26.567,61.962z M26.567,15.645
		c-12.109,0-21.96,9.851-21.96,21.958s9.851,21.958,21.96,21.958c6.819,0,12.172-2.178,15.91-6.473
		c4.742-5.45,5.837-13.126,5.267-18.872H27.767v6.771c2.554-0.004,8.517-0.012,11.32-0.012c0.385,0,0.747,0.185,0.973,0.497
		c0.226,0.312,0.288,0.714,0.167,1.079c-2.346,7.109-6.304,10.009-13.66,10.009c-8.259,0-14.729-6.57-14.729-14.958
		c0-8.388,6.47-14.958,14.729-14.958c4.102,0,6.809,1.406,8.884,2.965c0.259-0.279,0.486-0.534,0.725-0.802
		c0.805-0.904,1.707-1.917,4.186-4.291C36.464,17.366,31.615,15.645,26.567,15.645z"/>
</g>
</svg>
